<svg xmlns="http://www.w3.org/2000/svg" width="23" height="23" viewBox="0 0 23 23"><path d="M16.389 0H6.611C2.96 0 0 2.91 0 6.5v10C0 20.09 2.96 23 6.611 23h9.778C20.04 23 23 20.09 23 16.5v-10C23 2.91 20.04 0 16.389 0zM2.343 6.5c.002-2.315 1.91-4.191 4.264-4.193h9.778c2.354.003 4.261 1.878 4.264 4.193v10c-.003 2.314-1.911 4.189-4.264 4.192H6.611C4.257 20.69 2.35 18.815 2.347 16.5l-.004-10z"/><path d="M11.5 17.423c3.325 0 6.02-2.65 6.02-5.919s-2.695-5.919-6.02-5.919-6.02 2.65-6.02 5.919c.007 3.266 2.698 5.912 6.02 5.919zm0-9.801c2.178 0 3.944 1.736 3.944 3.878s-1.766 3.878-3.944 3.878-3.944-1.736-3.944-3.878c.002-2.141 1.767-3.876 3.944-3.878z"/><ellipse cx="17.699" cy="5.404" rx="1.349" ry="1.326"/></svg>