<svg xmlns="http://www.w3.org/2000/svg" width="39.765" height="39.95" viewBox="0 0 79.53 79.9"><path d="M69.82 79.92h-.9a76.13 76.13 0 01-33.43-12.07A74.1 74.1 0 0112 44.63 79.357 79.357 0 01.03 10.7a9.435 9.435 0 012.26-7.29A9.855 9.855 0 019.06 0h12.2a9.956 9.956 0 019.71 8.42 56.243 56.243 0 002.49 10.25 9.972 9.972 0 01-2.26 10.47l-3.62 3.65a57.418 57.418 0 0019.43 19.58l3.61-3.65a9.769 9.769 0 0110.39-2.27 47.6 47.6 0 0010.17 2.5 9.657 9.657 0 018.35 10.02v11.38a9.777 9.777 0 01-9.71 9.57zM21.26 4.32H9.52a5.691 5.691 0 00-4.97 5.92 70.313 70.313 0 0011.29 31.88 72.818 72.818 0 0021.91 22.09 74.752 74.752 0 0031.62 11.38h.45a5.275 5.275 0 005.2-5.24V58.97a5.393 5.393 0 00-4.52-5.46 46.362 46.362 0 01-11.07-2.74 5.675 5.675 0 00-5.65 1.14l-4.74 4.78a2.387 2.387 0 01-2.71.46 63.628 63.628 0 01-23.49-23.68 2.12 2.12 0 01.45-2.73l4.75-4.79a5.693 5.693 0 001.13-5.69 46.937 46.937 0 01-2.71-11.15 5.552 5.552 0 00-5.2-4.79z" fill-rule="evenodd"/></svg>