<?xml version="1.0" encoding="UTF-8"?>
<svg id="_圖層_1" data-name="圖層_1" xmlns="http://www.w3.org/2000/svg" version="1.1" viewBox="0 0 115.5 115.5">
  <!-- Generator: Adobe Illustrator 29.5.1, SVG Export Plug-In . SVG Version: 2.1.0 Build 141)  -->
  <defs>
    <style>
      .st0 {
        fill: #231815;
      }

      .st1 {
        fill: #fff;
      }
    </style>
  </defs>
  <circle class="st1" cx="57.8" cy="57.8" r="57.8"/>
  <path class="st0" d="M114.1,54.1c0-.2,0-.3,0-.5-.4-6-1.8-11.8-4-17.2,0,0,0-.2,0-.2-1.2-2.8-2.5-5.5-4.1-8,0-.2-.2-.3-.3-.5C96.2,12.9,81.1,3.5,64.2,1.6c-2.1-.2-4.2-.4-6.4-.4C27.9,1.2,3.3,24.5,1.4,53.9c0,1.3-.1,2.5-.1,3.8,0,6.2,1,12.3,3,18.1,0,.4.2.7.4,1,.2.6.4,1.2.7,1.7,0,.2.1.3.2.5,8.8,21.4,29.3,35.2,52.3,35.2s43.6-13.8,52.3-35.2c0-.2.1-.3.2-.5,1.2-2.9,2.1-5.9,2.7-9,.3-1.5.6-2.9.8-4.4,0-.2,0-.3,0-.5.3-2.4.5-4.8.5-7s0-2.3-.1-3.6Z"/>
  <path class="st1" d="M0,0"/>
  <path class="st1" d="M0,0"/>
  <g>
    <path class="st1" d="M61.6,70h1.9v-2.3h-5.4v2.3h1.4c.4,0,.7.3.7.7s-.3.7-.7.7h-1.4v2.3h1.9c.4,0,.7.3.7.7s-.3.7-.7.7h-1.9v2.5h5.4v-2.5h-1c-.4,0-.7-.3-.7-.7s.3-.7.7-.7h1v-2.3h-1.9c-.4,0-.7-.3-.7-.7s.3-.7.7-.7Z"/>
    <polygon class="st1" points="49.8 63.7 53.2 63.7 71.3 40.7 67.9 40.7 49.8 63.7"/>
    <path class="st1" d="M61.3,62.6h2.1v-2.3h-5.4v2.3h.7c.4,0,.7.3.7.7s-.3.7-.7.7h-.7v2.3h5.4v-2.3h-2.1c-.4,0-.7-.3-.7-.7s.3-.7.7-.7Z"/>
    <polygon class="st1" points="44.2 63.7 47.9 63.7 66 40.7 62.3 40.7 44.2 63.7"/>
    <path class="st1" d="M52.6,66.3h4v-4.5l-2.4,3c-.1.2-.3.3-.6.3H21v1.2h2.9c.4,0,.7.3.7.7s-.3.7-.7.7h-2.9v6h2.8c.4,0,.7.3.7.7s-.3.7-.7.7h-2.8v2.5h35.6v-2.5h-4.8c-.4,0-.7-.3-.7-.7s.3-.7.7-.7h4.8v-6h-4c-.4,0-.7-.3-.7-.7s.3-.7.7-.7ZM26,71.5h-3.5c-.4,0-.7-.3-.7-.7s.3-.7.7-.7h3.5c.4,0,.7.3.7.7s-.3.7-.7.7ZM27.6,67c0-.4.3-.7.7-.7h6.1c.4,0,.7.3.7.7s-.3.7-.7.7h-6.1c-.4,0-.7-.3-.7-.7ZM34.6,75.2h-5.5c-.4,0-.7-.3-.7-.7s.3-.7.7-.7h5.5c.4,0,.7.3.7.7s-.3.7-.7.7ZM36.3,71.5h-5.9c-.4,0-.7-.3-.7-.7s.3-.7.7-.7h5.9c.4,0,.7.3.7.7s-.3.7-.7.7ZM45,75.2h-5.9c-.4,0-.7-.3-.7-.7s.3-.7.7-.7h5.9c.4,0,.7.3.7.7s-.3.7-.7.7ZM39.6,70.8c0-.4.3-.7.7-.7h4.4c.4,0,.7.3.7.7s-.3.7-.7.7h-4.4c-.4,0-.7-.3-.7-.7ZM46.8,67.8h-6.4c-.4,0-.7-.3-.7-.7s.3-.7.7-.7h6.4c.4,0,.7.3.7.7s-.3.7-.7.7ZM53,70c.4,0,.7.3.7.7s-.3.7-.7.7h-4.2c-.4,0-.7-.3-.7-.7s.3-.7.7-.7h4.2Z"/>
    <path class="st1" d="M64.9,77.7h6.5v-17.4h-6.5v3s0,0,0,0,0,0,0,0v3.7s0,0,0,0,0,0,0,0v3.7s0,0,0,0,0,0,0,0v3.7s0,0,0,0,0,0,0,0v3.2Z"/>
    <path class="st1" d="M104.6,79.2H7.5c8.3,19.5,27.7,33.2,50.3,33.2s41.9-13.7,50.3-33.2h-3.4ZM84.8,84.9h3.7c.4,0,.7.3.7.7s-.3.7-.7.7h-3.7c-.4,0-.7-.3-.7-.7s.3-.7.7-.7ZM71.2,81.8h2.9c.4,0,.7.3.7.7s-.3.7-.7.7h-2.9c-.4,0-.7-.3-.7-.7s.3-.7.7-.7ZM41.1,88.1h2.5c.4,0,.7.3.7.7s-.3.7-.7.7h-2.5c-.4,0-.7-.3-.7-.7s.3-.7.7-.7ZM18.7,91.7h-1.6c-.4,0-.7-.3-.7-.7s.3-.7.7-.7h1.6c.4,0,.7.3.7.7s-.3.7-.7.7ZM20.2,84.3h-7c-.4,0-.7-.3-.7-.7s.3-.7.7-.7h7c.4,0,.7.3.7.7s-.3.7-.7.7ZM22.7,87.1c0-.4.3-.7.7-.7h1.6c.4,0,.7.3.7.7s-.3.7-.7.7h-1.6c-.4,0-.7-.3-.7-.7ZM24.3,91.4c0-.4.3-.7.7-.7h2.3c.4,0,.7.3.7.7s-.3.7-.7.7h-2.3c-.4,0-.7-.3-.7-.7ZM29.8,99h-2.5c-.4,0-.7-.3-.7-.7s.3-.7.7-.7h2.5c.4,0,.7.3.7.7s-.3.7-.7.7ZM30.6,83.1c0-.4.3-.7.7-.7h7.4c.4,0,.7.3.7.7s-.3.7-.7.7h-7.4c-.4,0-.7-.3-.7-.7ZM32.6,93.2c0-.4.3-.7.7-.7h8.7c.4,0,.7.3.7.7s-.3.7-.7.7h-8.7c-.4,0-.7-.3-.7-.7ZM39.7,100.9c0-.4.3-.7.7-.7h7c.4,0,.7.3.7.7s-.3.7-.7.7h-7c-.4,0-.7-.3-.7-.7ZM53.2,107.7h-9.7c-.4,0-.7-.3-.7-.7s.3-.7.7-.7h9.7c.4,0,.7.3.7.7s-.3.7-.7.7ZM57.7,101.2h-2c-.4,0-.7-.3-.7-.7s.3-.7.7-.7h2c.4,0,.7.3.7.7s-.3.7-.7.7ZM60.3,95.3h-6.4c-.4,0-.7-.3-.7-.7s.3-.7.7-.7h6.4c.4,0,.7.3.7.7s-.3.7-.7.7ZM53.8,89.5c0-.4.3-.7.7-.7h1.6c.4,0,.7.3.7.7s-.3.7-.7.7h-1.6c-.4,0-.7-.3-.7-.7ZM62.4,85.6h-11.4c-.4,0-.7-.3-.7-.7s.3-.7.7-.7h11.4c.4,0,.7.3.7.7s-.3.7-.7.7ZM67.7,109.4h-3.8c-.4,0-.7-.3-.7-.7s.3-.7.7-.7h3.8c.4,0,.7.3.7.7s-.3.7-.7.7ZM71.2,103.5h-7c-.4,0-.7-.3-.7-.7s.3-.7.7-.7h7c.4,0,.7.3.7.7s-.3.7-.7.7ZM65.8,95.5c0-.4.3-.7.7-.7h1.1c.4,0,.7.3.7.7s-.3.7-.7.7h-1.1c-.4,0-.7-.3-.7-.7ZM77.8,97h-4.3c-.4,0-.7-.3-.7-.7s.3-.7.7-.7h4.3c.4,0,.7.3.7.7s-.3.7-.7.7ZM78.8,90.2h-12.7c-.4,0-.7-.3-.7-.7s.3-.7.7-.7h12.7c.4,0,.7.3.7.7s-.3.7-.7.7ZM86.1,102.4h-3c-.4,0-.7-.3-.7-.7s.3-.7.7-.7h3c.4,0,.7.3.7.7s-.3.7-.7.7ZM90.6,93.6h-3.1c-.4,0-.7-.3-.7-.7s.3-.7.7-.7h3.1c.4,0,.7.3.7.7s-.3.7-.7.7ZM97.3,87.4h-2.5c-.4,0-.7-.3-.7-.7s.3-.7.7-.7h2.5c.4,0,.7.3.7.7s-.3.7-.7.7ZM101.4,82.1h-2.4c-.4,0-.7-.3-.7-.7s.3-.7.7-.7h2.4c.4,0,.7.3.7.7s-.3.7-.7.7Z"/>
    <path class="st1" d="M76.3,62.6h1.8v-2.3h-5.2v2.3h1.2c.4,0,.7.3.7.7s-.3.7-.7.7h-1.2v2.3h1.5c.4,0,.7.3.7.7s-.3.7-.7.7h-1.5v2.3h.3c.4,0,.7.3.7.7s-.3.7-.7.7h-.3v2.3h1.3c.4,0,.7.3.7.7s-.3.7-.7.7h-1.3v2.5h5.2v-2.5h-1.3c-.4,0-.7-.3-.7-.7s.3-.7.7-.7h1.3v-2.3h-1.9c-.4,0-.7-.3-.7-.7s.3-.7.7-.7h1.9v-2.3h-1c-.4,0-.7-.3-.7-.7s.3-.7.7-.7h1v-2.3h-1.8c-.4,0-.7-.3-.7-.7s.3-.7.7-.7Z"/>
    <path class="st1" d="M78.1,57.9l-.9-1.3h-4.6c-.4,0-.7-.3-.7-.7s.3-.7.7-.7h3.6l-1.5-2.3h-2.8c-.4,0-.7-.3-.7-.7s.3-.7.7-.7h1.9l-1.5-2.3h-2.5c-.4,0-.7-.3-.7-.7s.3-.7.7-.7h1.5l-1.7-2.5-1.9,2.5h.2c.4,0,.7.3.7.7s-.3.7-.7.7h-1.3l-4.7,6h5c.4,0,.7.3.7.7s-.3.7-.7.7h-6.1l-1.8,2.3h19.3v-1ZM68.1,52.9h-2.2c-.4,0-.7-.3-.7-.7s.3-.7.7-.7h2.2c.4,0,.7.3.7.7s-.3.7-.7.7Z"/>
    <polygon class="st1" points="38.5 63.7 42.3 63.7 60.4 40.7 56.6 40.7 38.5 63.7"/>
    <polygon class="st1" points="15.5 74.2 12.4 74.2 12.4 75.3 15.4 75.3 15.5 74.2"/>
    <polygon class="st1" points="16.6 63.7 19.8 63.7 38 40.7 34.7 40.7 16.6 63.7"/>
    <path class="st1" d="M6,75.3h.4v-1.2s-.8,0-.8,0c.1.4.3.8.4,1.2Z"/>
    <path class="st1" d="M7.9,72.3v.4s3.1,0,3.1,0v-.4c0-.4.3-.7.7-.7h0c.4,0,.7.3.7.7v.4s3.1,0,3.1,0v-.4c0-.4.3-.7.7-.7h0c.4,0,.7.3.7.7v.4s2.6,0,2.6,0v-7.6h-4.5c-.3,0-.5-.2-.7-.4-.1-.2,0-.5,0-.8l12.7-16.1s0,0,0,0c-.2,0-.5-.1-.8-.2-.3-.1-.5-.2-.7-.4-.3-.2-.6-.3-.8-.4-.3,0-.7.1-1.1.3-.2.1-.4.2-.6.3-.9.4-1.9.5-2.9.7-.5,0-1.1.2-1.6.3-1.4.3-2.8,1.6-4.1,2.7-.4.3-.7.6-1.1.9-2.3,1.9-5,3.6-8.2,5.4-.5.3-.9.5-1.4.7-.2,0-.4.2-.6.3,0,0-.1,0-.2,0,0,0,0,0,0,0,0,4.9.8,9.7,2.1,14.2h1.3v-.4c0-.4.3-.7.7-.7h0c.4,0,.7.3.7.7Z"/>
    <polygon class="st1" points="27.3 63.7 31.1 63.7 49.2 40.7 45.4 40.7 27.3 63.7"/>
    <polygon class="st1" points="21.7 63.7 25.5 63.7 43.6 40.7 39.8 40.7 21.7 63.7"/>
    <polygon class="st1" points="12.4 77.7 15.4 77.7 15.4 76.8 12.4 76.8 12.4 77.7"/>
    <polygon class="st1" points="7.8 77.7 10.9 77.7 10.9 76.8 7.9 76.8 7.8 77.7"/>
    <polygon class="st1" points="11 74.2 7.9 74.2 7.9 75.3 10.9 75.3 11 74.2"/>
    <polygon class="st1" points="32.9 63.7 36.7 63.7 54.8 40.7 51 40.7 32.9 63.7"/>
    <polygon class="st1" points="19.5 74.2 16.9 74.2 16.9 75.3 19.5 75.3 19.5 74.2"/>
    <polygon class="st1" points="96.3 74.2 96.3 75.3 99.3 75.3 99.3 74.2 96.3 74.2"/>
    <polygon class="st1" points="16.9 77.7 19.5 77.7 19.5 76.8 16.9 76.8 16.9 77.7"/>
    <path class="st1" d="M109.9,51.3c-.3-.3-.2-.8,0-1,.3-.3.8-.2,1,0,.4.4.8.9,1.1,1.3-.1-1.2-.3-2.3-.5-3.4-.9-1-1.9-1.9-3.3-2.8-.3-.2-.4-.7-.2-1,.2-.3.7-.4,1-.2.7.5,1.4.9,2,1.5-.2-.9-.4-1.7-.7-2.6-1.1-1.1-2.4-1.9-3.8-2.4-.4-.1-.6-.6-.4-.9.1-.4.6-.6.9-.4.9.3,1.8.8,2.6,1.3-.4-1.2-.8-2.3-1.3-3.4-.5-.4-1.1-.6-1.9-.7-.4,0-.7-.4-.6-.8,0-.4.4-.7.8-.6.3,0,.5,0,.8.2-.5-1.1-1-2.1-1.5-3.1-.9-.4-1.9-.5-3.1-.5-.4,0-.7-.3-.8-.7,0-.4.3-.7.7-.8.8,0,1.5,0,2.1.1-.2-.4-.4-.7-.7-1.1-.7,0-1.4,0-2-.1-.4,0-.7-.4-.7-.8,0-.4.4-.7.8-.7.3,0,.6,0,.9,0-.5-.8-1-1.5-1.5-2.2,0,0-.1,0-.2,0-1,.3-2.4.7-3.7.3-.8-.3-1.5-.8-2.1-1.2-.3-.2-.6-.4-.9-.6-.9-.5-1.8-1-2.7-1.5-.5-.2-.9-.5-1.4-.7l-1-.6c-2-1.1-4.1-2.3-6.2-3.2h-.2c-.2-.2-.5-.3-.7-.4-.4.6-.7,1.4-.7,2.2,1.9-.4,3.9.2,6,1.8.3.2.4.7.1,1-.1.2-.4.3-.6.3s-.3,0-.4-.1c-1.9-1.4-3.5-1.9-5-1.5.1.5.3.9.5,1.3,0,0,0,0,0,0,1.9,0,3.7,1.5,4.9,2.7l.2.2c.3.3.3.7,0,1-.1.2-.3.2-.5.2s-.4,0-.5-.2l-.2-.2c-.9-.8-2.1-1.9-3.2-2.3.5,1,1.1,2.1,1.3,3.3,1.5,0,3,.8,4.6,2.4.3.3.3.7,0,1-.1.1-.3.2-.5.2s-.4,0-.5-.2c-1.3-1.3-2.4-2-3.5-2,0,.7-.3,1.4-.5,2.1,1.7.5,3,1.6,3.9,2.5.3.3.3.7,0,1-.1.1-.3.2-.5.2s-.4,0-.5-.2c-1.2-1.2-2.2-1.9-3.3-2.2-.3.7-.5,1.4-.5,2.1,0,0,0,.2,0,.3,0,.3,0,.9,0,1.1,0,0,0,0,0,0,.1,0,.2,0,.3,0,4.2.9,7.7,2.8,11.2,6.3,1-.4,2.2-.7,3.5-.8.4,0,.7.3.8.7,0,.4-.3.7-.7.8-.8,0-1.6.3-2.5.5,0,0,.1.1.2.2.4.5.8.9,1.3,1.4h0c1.2-.1,2.4-.2,3.7,0,.4,0,.7.4.6.8,0,.4-.4.6-.7.6s0,0-.1,0c-.8-.1-1.5-.1-2.3,0,.9,1,1.8,2,2.6,2.9.4,0,.7,0,1.1.1,1.3.1,2.6.3,3.9,1,.3.2.5.6.3,1-.1.2-.4.4-.6.4s-.2,0-.4,0c-.9-.5-1.7-.7-2.7-.8,1.6,1.6,3.4,3.1,5.4,4.3,1.6,1,2.7,2.3,3.7,3.7,0,.1.2.2.2.3,0-.5,0-.9,0-1.4,0-1.2,0-2.4-.1-3.6-.9-1.1-1.6-2-2.4-2.9ZM96.4,27.3c0-.4.5-.6.9-.5.9.2,1.8.4,2.8.5.4,0,.7.4.6.8,0,.4-.4.6-.7.6s0,0-.1,0c-1-.1-2-.3-2.9-.5-.4,0-.6-.5-.5-.9ZM88.8,22.7c.3-.3.8-.2,1,0,1,1.1,2.2,2,3.8,2.7.4.2.5.6.4,1-.1.3-.4.4-.7.4s-.2,0-.3,0c-1.7-.8-3.1-1.8-4.2-3.1-.3-.3-.2-.8,0-1ZM88.9,28.6c-.3-.3-.3-.7,0-1,.3-.3.7-.3,1,0,.8.8,1.6,1.5,2.6,2,.3.2.5.6.3,1-.1.2-.4.4-.6.4s-.2,0-.4,0c-1.1-.6-2-1.4-2.9-2.3ZM89.8,31.4c.3-.3.8-.2,1,0l.4.4c.9,1.1,1.8,2.2,3,2.9.3.2.5.6.3,1-.1.2-.4.4-.6.4s-.2,0-.4,0c-1.4-.8-2.4-2-3.4-3.2l-.4-.4c-.3-.3-.2-.8,0-1ZM94.9,39.4s0,0-.1,0c-2-.4-3.7-1.2-5.2-2.5-.3-.3-.3-.7,0-1,.3-.3.7-.3,1,0,1.2,1.1,2.7,1.9,4.4,2.2.4,0,.7.4.6.8,0,.3-.4.6-.7.6ZM95.3,32.1c-.4,0-.7-.4-.6-.8,0-.4.4-.7.8-.6,1.4.2,2.9,0,4.3-.2.4,0,.8.2.8.6,0,.4-.2.8-.6.8-1,.2-2.1.3-3.2.3s-1.1,0-1.6-.1ZM97.8,35.6h0c1.2,0,2.4-.2,3.7-.4.8-.1,1.6-.2,2.4-.3.4,0,.7.3.8.7,0,.4-.3.7-.7.8-.8,0-1.5.2-2.3.3-1.3.2-2.6.4-3.9.4h0c-.4,0-.7-.3-.7-.7s.3-.7.7-.7ZM98.2,39.7h-.3c-.4,0-.7-.3-.7-.7,0-.4.3-.7.7-.7h.3c1.8,0,3.7,0,5.5.3.4,0,.7.4.6.8,0,.4-.4.6-.7.6s0,0,0,0c-1.8-.2-3.6-.2-5.4-.2ZM100.6,42.7c-.4,0-.7-.4-.7-.8,0-.4.4-.7.8-.7,1.9,0,3.8.6,5.9,1.6.4.2.5.6.4,1-.1.3-.4.4-.7.4s-.2,0-.3,0c-1.9-.9-3.7-1.3-5.4-1.4ZM108.2,48.7c-.1.2-.4.3-.6.3s-.3,0-.4-.1c-1-.7-2.2-1.3-3.5-1.8-.4-.1-.6-.5-.4-.9.1-.4.5-.6.9-.4,1.4.5,2.7,1.2,3.9,1.9.3.2.4.7.2,1ZM111.6,56.1c-.1.1-.3.2-.5.2s-.4,0-.5-.2c-.6-.5-1.2-1.1-1.9-2-.3-.3-.2-.8,0-1,.3-.3.8-.2,1,0,.7.8,1.3,1.4,1.8,1.9.3.3.3.7,0,1Z"/>
    <path class="st1" d="M81.9,34.3c0-1.1.4-2.1.8-3.1.4-1,.7-2,.7-3,0-1.3-.6-2.5-1.3-3.7-.6-1.2-1.2-2.3-1.4-3.8-.1-1.1,0-2.2.4-3.1-.6.3-1.3.6-1.9,1l-.7.4c-3.6,2.2-7.3,4.4-11.7,5-.4,0-.9,0-1.3.1-1.2,0-2.3.2-3.3.7-.7.4-1.4.9-2.1,1.4-.4.3-.8.6-1.2.8-1.3.9-2.6,1.7-3.9,2.6l-.3.2c-2.2,1.4-4.3,2.4-6.5,3.4,0,0-.2,0-.3.1,0,0,0,0-.1,0,.2,0,.4.1.6.2,1.3.3,3-.1,4.4-.5.3,0,.6-.2.9-.2l1.1-.2c1.7-.4,3.6-.8,5.4-1.1.4,0,.8-.1,1.1-.2,3.6-.7,7.1-1.3,10.7.7.6.4,1.2.7,1.8,1.1,1.1.8,2.2,1.5,3.6,1.7.9.2,1.8.2,2.7.3.6,0,1.1.1,1.7.2,0-.3,0-.7,0-1v-.3Z"/>
    <polygon class="st1" points="99.4 77.7 99.4 76.8 96.3 76.8 96.3 77.7 99.4 77.7"/>
    <path class="st1" d="M49.3,18.8c2,0,3.6-1.6,3.6-3.6s-1.6-3.6-3.6-3.6-3.6,1.6-3.6,3.6,1.6,3.6,3.6,3.6Z"/>
    <path class="st1" d="M29,19.9c1.5,2.8,4.3,3.9,7.3,5,.4.2.9.3,1.3.5,2.2.8,3.8,2.6,5.3,4.3,1.1,1.2,2.1,2.3,3.3,3.1.3-.3.7-.5,1.1-.6h.3c2.2-1.1,4.3-2.1,6.3-3.4l.3-.2c1.3-.8,2.6-1.7,3.9-2.5.4-.3.7-.5,1.1-.8.7-.5,1.5-1.1,2.3-1.6,1.2-.7,2.5-.8,3.8-.9.4,0,.8,0,1.2-.1,4.1-.5,7.7-2.7,11.1-4.8l.7-.4c.9-.6,1.9-1.2,3-1.4,1-.2,1.8.2,2.6.5h.2c2.2,1.1,4.3,2.2,6.3,3.4l1,.6c.4.2.9.5,1.3.7.9.5,1.8,1,2.7,1.5.3.2.6.4.9.6.6.4,1.2.8,1.8,1,.7.3,1.6,0,2.5-.2C90.8,11.4,75.2,3.1,57.8,3.1s-23,3.9-32,10.4c.7,1.2,1.4,2.6,2,3.9.4.8.8,1.7,1.2,2.5ZM62.4,21.1h-3.2c-.4,0-.7-.3-.7-.7s.3-.7.7-.7h3.2c.4,0,.7.3.7.7s-.3.7-.7.7ZM63,16.8h-1.7c-.4,0-.7-.3-.7-.7s.3-.7.7-.7h1.7c.4,0,.7.3.7.7s-.3.7-.7.7ZM77.7,10.5h2.4c.4,0,.7.3.7.7s-.3.7-.7.7h-2.4c-.4,0-.7-.3-.7-.7s.3-.7.7-.7ZM73.5,15.7c.4,0,.7.3.7.7s-.3.7-.7.7h-3.3c-.4,0-.7-.3-.7-.7s.3-.7.7-.7h3.3ZM67,6.6h2.2c.4,0,.7.3.7.7s-.3.7-.7.7h-2.2c-.4,0-.7-.3-.7-.7s.3-.7.7-.7ZM60.9,11.3h4.6c.4,0,.7.3.7.7s-.3.7-.7.7h-4.6c-.4,0-.7-.3-.7-.7s.3-.7.7-.7ZM55.7,6.6h3.2c.4,0,.7.3.7.7s-.3.7-.7.7h-3.2c-.4,0-.7-.3-.7-.7s.3-.7.7-.7ZM42.6,13.7h-1.3c-.4,0-.7-.3-.7-.7s.3-.7.7-.7h1.3c.4,0,.7.3.7.7s-.3.7-.7.7ZM44.4,24.3c-.4,0-.7-.3-.7-.7s.3-.7.7-.7h1.5c.4,0,.7.3.7.7s-.3.7-.7.7h-1.5ZM51.1,28.3h-4.3c-.4,0-.7-.3-.7-.7s.3-.7.7-.7h4.3c.4,0,.7.3.7.7s-.3.7-.7.7ZM47.7,4.8h2.9c.4,0,.7.3.7.7s-.3.7-.7.7h-2.9c-.4,0-.7-.3-.7-.7s.3-.7.7-.7ZM49.3,10.2c2.8,0,5,2.3,5,5s-2.3,5-5,5-5-2.3-5-5,2.3-5,5-5ZM40,7.9h4.3c.4,0,.7.3.7.7s-.3.7-.7.7h-4.3c-.4,0-.7-.3-.7-.7s.3-.7.7-.7ZM37.6,16h2.4c.4,0,.7.3.7.7s-.3.7-.7.7h-2.4c-.4,0-.7-.3-.7-.7s.3-.7.7-.7ZM32.7,13.1h2.4c.4,0,.7.3.7.7s-.3.7-.7.7h-2.4c-.4,0-.7-.3-.7-.7s.3-.7.7-.7ZM32.3,19.3h4.3c.4,0,.7.3.7.7s-.3.7-.7.7h-4.3c-.4,0-.7-.3-.7-.7s.3-.7.7-.7Z"/>
    <polygon class="st1" points="92 77.7 94.9 77.7 94.9 76.8 92 76.8 92 77.7"/>
    <polygon class="st1" points="92 74.2 92 75.3 94.8 75.3 94.8 74.2 92 74.2"/>
    <path class="st1" d="M4.6,56.2c3.2-1.7,5.8-3.4,8-5.2.3-.3.7-.6,1-.9,1.4-1.2,3-2.6,4.7-3,.6-.1,1.1-.2,1.7-.3.9-.1,1.8-.3,2.6-.6.2,0,.3-.2.5-.2.5-.3,1.2-.6,1.9-.5.5,0,.9.3,1.3.5.2.1.4.2.6.3.2,0,.4.1.5.1.2,0,.5.1.7.2l4.4-5.6c-2.2-1.8-4.6-3.4-7.6-3.9h-.3c-3.9-.6-8.3-1.2-11-4.6-.5-.6-2.1-2.3-2.8-2.9-4.8,8-7.6,17.3-7.7,27.2,0,0,.1,0,.2,0,.4-.2.9-.4,1.3-.6Z"/>
    <path class="st1" d="M98.4,68.8l-16.2-13.2c0,0-.1-.1-.2-.2l-9.2-14.2-2.3,2.9,8.8,13.2,12.4,10.4c.2.1.3.3.3.6v.6h6.4Z"/>
    <path class="st1" d="M90.6,77.7v-9.2l-2.4-2v.7c0,.4-.3.7-.7.7s-.7-.3-.7-.7v-1.9l-7.2-6.1v18.5h2.9v-1.7c0-.4.3-.7.7-.7s.7.3.7.7v1.7h2.9v-1.5c0-.4.3-.7.7-.7s.7.3.7.7v1.5h2.4ZM83.9,73.1c0,.4-.3.7-.7.7s-.7-.3-.7-.7v-3.2c0-.4.3-.7.7-.7s.7.3.7.7v3.2ZM83.9,67.2c0,.4-.3.7-.7.7s-.7-.3-.7-.7v-2.5c0-.4.3-.7.7-.7s.7.3.7.7v2.5ZM87.5,73.4c-.4,0-.7-.3-.7-.7v-3.2c0-.4.3-.7.7-.7s.7.3.7.7v3.2c0,.4-.3.7-.7.7Z"/>
    <polygon class="st1" points="108.2 74.2 105.3 74.2 105.3 75.3 108.2 75.3 108.2 74.2"/>
    <path class="st1" d="M102.9,60.3c-1.2-.2-2.4-.4-3.6-.8-2.1-.8-4.1-2-6.1-3.1-.7-.4-1.4-.8-2.1-1.2-2.3-1.3-4.7-2-7.3-2.1-.6,0-1.2,0-1.8-.2l1.1,1.7,17.7,14.4c.2.2.3.5.2.8-.1.3-.4.5-.7.5h-8.4v2.5h2.8v-.4c0-.4.3-.7.7-.7h0c.4,0,.7.3.7.7v.4h3.1v-.4c0-.4.3-.7.7-.7.4,0,.7.3.7.7v.4h3.1v-.4c0-.4.3-.7.7-.7.4,0,.7.3.7.7v.4h2.9v-.4c0-.4.3-.7.7-.7.4,0,.7.3.7.7v.4h.7c.7-2.5,1.2-5,1.6-7.6-1.6-1.5-3.5-3.2-5.4-4-1.1-.5-2.3-.6-3.6-.8Z"/>
    <path class="st1" d="M109.6,75c0-.3.2-.5.3-.8h-.3v.8Z"/>
    <path class="st1" d="M115.4,54c0-.2,0-.4,0-.5-.4-6.1-1.8-12-4.1-17.6,0,0,0-.2,0-.2-1.2-2.8-2.6-5.6-4.2-8.2,0-.2-.2-.4-.3-.5C97.1,11.9,81.6,2.3,64.3.4c-2.2-.3-4.3-.4-6.5-.4C27.2,0,2.1,23.8.1,53.9c0,1.3-.1,2.6-.1,3.9,0,6.3,1,12.5,3.1,18.5,0,.4.2.7.4,1,.2.6.4,1.2.7,1.8,0,.2.1.3.2.5,8.9,21.8,29.9,35.9,53.5,35.9s44.5-14.1,53.5-35.9c0-.2.1-.3.2-.5,1.2-3,2.1-6,2.8-9.1.3-1.5.6-3,.8-4.5,0-.2,0-.3,0-.5.3-2.5.5-4.9.5-7.2s0-2.3-.1-3.7ZM113.4,64.8c0,0,0,.2,0,.3-.6,4.7-1.8,9.2-3.5,13.5,0,0,0,.2-.1.3-8.4,20.5-28.5,35-52,35S14.1,99.4,5.8,78.8c0,0,0-.2-.1-.3-.3-.7-.5-1.3-.8-2-.1-.1-.2-.3-.2-.5s0,0,0,0c-2-5.7-3.1-11.9-3.1-18.3C1.6,26.8,26.8,1.6,57.8,1.6s37.6,10.5,47.5,26.3c0,0,.1.2.2.3,1.6,2.6,3,5.3,4.2,8.1,0,0,0,0,0,.1,2.2,5.4,3.6,11.2,4,17.3,0,0,0,.2,0,.3,0,1.2.1,2.5.1,3.7,0,2.4-.2,4.8-.5,7.1Z"/>
    <polygon class="st1" points="103.9 77.7 103.9 76.8 100.8 76.8 100.8 77.7 103.9 77.7"/>
    <polygon class="st1" points="100.8 74.2 100.8 75.3 103.8 75.3 103.8 74.2 100.8 74.2"/>
    <path class="st1" d="M107.7,56.4c-4-2.5-7.1-5.9-10-9.2-.8-.9-1.6-1.8-2.4-2.6-3.9-4.2-7.4-6.3-11.8-7.3-1.1-.2-2.3-.4-3.4-.5-.9,0-1.9-.2-2.8-.3-1.7-.3-2.9-1.1-4.1-2-.5-.4-1.1-.7-1.7-1.1-3.2-1.8-6.3-1.2-9.8-.5-.4,0-.8.1-1.1.2-1.8.3-3.6.7-5.3,1.1l-1.1.2c-.3,0-.6.1-.9.2-1.6.4-3.4.9-5.1.5-2.7-.6-4.5-2.6-6.3-4.6-1.5-1.7-2.9-3.2-4.8-3.9-.4-.2-.9-.3-1.3-.5-3.1-1.1-6.4-2.3-8.1-5.7-.4-.8-.8-1.7-1.3-2.5-.6-1.2-1.2-2.5-1.9-3.7-5.1,3.9-9.5,8.7-13,14.1,1.3.9,3.2,3.2,3.2,3.2,2.3,2.9,6.4,3.5,10,4h.3c3.3.5,6,2.3,8.3,4.2l.3-.4c.1-.2.3-.3.6-.3h38.5s0,0,.1,0c0,0,0,0,0,0,0,0,.2,0,.2,0,0,0,0,0,0,0,0,0,.1,0,.1.2,0,0,0,0,0,0l7.5,11.5c.9.3,1.8.4,3,.5,2.8.1,5.4.9,8,2.3.7.4,1.4.8,2.1,1.2,1.9,1.1,3.9,2.3,5.8,3,1,.4,2.1.6,3.3.7,1.3.2,2.6.4,3.9.9,1.9.8,3.6,2.2,5.1,3.6,0-.7.1-1.4.2-2.1-.5-.5-.9-1.1-1.3-1.6-1-1.3-1.9-2.5-3.3-3.3Z"/>
    <polygon class="st1" points="105.3 76.8 105.3 77.7 108.2 77.7 108.2 76.8 105.3 76.8"/>
  </g>
</svg>