<?xml version="1.0" encoding="UTF-8"?>
<svg id="_圖層_1" data-name="圖層_1" xmlns="http://www.w3.org/2000/svg" version="1.1" viewBox="0 0 115.5 115.5">
  <!-- Generator: Adobe Illustrator 29.5.1, SVG Export Plug-In . SVG Version: 2.1.0 Build 141)  -->
  <defs>
    <style>
      .st0 {
        fill: #3a1600;
      }

      .st1 {
        fill: #fff;
      }
    </style>
  </defs>
  <circle class="st1" cx="57.8" cy="57.8" r="57.8"/>
  <path class="st1" d="M0,0"/>
  <path class="st1" d="M0,0"/>
  <g>
    <g>
      <g>
        <g>
          <path class="st0" d="M81.7,70.7c-.3,0-.5-.2-.5-.5s.2-.5.5-.5h28.1c.3,0,.5.2.5.5s-.2.5-.5.5h-28.1Z"/>
          <path class="st0" d="M109.8,70.5h-28.1c-.2,0-.3-.1-.3-.3s.1-.3.3-.3h28.1c.2,0,.3.1.3.3s-.1.3-.3.3Z"/>
        </g>
        <g>
          <path class="st0" d="M81.7,78.6c-.3,0-.5-.2-.5-.5s.2-.5.5-.5h25.4c.3,0,.5.2.5.5s-.2.5-.5.5h-25.4Z"/>
          <path class="st0" d="M107.2,78.4h-25.4c-.2,0-.3-.1-.3-.3s.1-.3.3-.3h25.4c.2,0,.3.1.3.3s-.1.3-.3.3Z"/>
        </g>
        <g>
          <path class="st0" d="M91.5,82.3c-.3,0-.5-.2-.5-.5v-13.2c0-.3.2-.5.5-.5s.5.2.5.5v13.2c0,.3-.2.5-.5.5Z"/>
          <path class="st0" d="M91.5,82.1c-.2,0-.3-.1-.3-.3v-13.2c0-.2.1-.3.3-.3s.3.1.3.3v13.2c0,.2-.1.3-.3.3Z"/>
        </g>
        <g>
          <path class="st0" d="M84,81.4c-.3,0-.5-.2-.5-.5v-12.3c0-.3.2-.5.5-.5s.5.2.5.5v12.3c0,.3-.2.5-.5.5Z"/>
          <path class="st0" d="M84,81.2c-.2,0-.3-.1-.3-.3v-12.3c0-.2.1-.3.3-.3s.3.1.3.3v12.3c0,.2-.1.3-.3.3Z"/>
        </g>
        <g>
          <path class="st0" d="M98.9,83.5c-.3,0-.5-.2-.5-.5v-14.5c0-.3.2-.5.5-.5s.5.2.5.5v14.5c0,.3-.2.5-.5.5Z"/>
          <path class="st0" d="M98.9,83.3c-.2,0-.3-.1-.3-.3v-14.5c0-.2.1-.3.3-.3s.3.1.3.3v14.5c0,.2-.1.3-.3.3Z"/>
        </g>
        <g>
          <path class="st0" d="M106.3,80.8c-.3,0-.5-.2-.5-.5v-11.8c0-.3.2-.5.5-.5s.5.2.5.5v11.8c0,.3-.2.5-.5.5Z"/>
          <path class="st0" d="M106.3,80.6c-.2,0-.3-.1-.3-.3v-11.8c0-.2.1-.3.3-.3s.3.1.3.3v11.8c0,.2-.1.3-.3.3Z"/>
        </g>
      </g>
      <g>
        <g>
          <path class="st0" d="M5.7,70.7c-.3,0-.5-.2-.5-.5s.2-.5.5-.5h28.6c.3,0,.5.2.5.5s-.2.5-.5.5H5.7Z"/>
          <path class="st0" d="M34.3,70.5H5.7c-.2,0-.3-.1-.3-.3s.1-.3.3-.3h28.6c.2,0,.3.1.3.3s-.1.3-.3.3Z"/>
        </g>
        <g>
          <path class="st0" d="M8.2,78.6c-.3,0-.5-.2-.5-.5s.2-.5.5-.5h26.1c.3,0,.5.2.5.5s-.2.5-.5.5H8.2Z"/>
          <path class="st0" d="M34.3,78.4H8.2c-.2,0-.3-.1-.3-.3s.1-.3.3-.3h26.1c.2,0,.3.1.3.3s-.1.3-.3.3Z"/>
        </g>
        <g>
          <path class="st0" d="M24.5,82.3c-.3,0-.5-.2-.5-.5v-13.2c0-.3.2-.5.5-.5s.5.2.5.5v13.2c0,.3-.2.5-.5.5Z"/>
          <path class="st0" d="M24.5,82.1c-.2,0-.3-.1-.3-.3v-13.2c0-.2.1-.3.3-.3s.3.1.3.3v13.2c0,.2-.1.3-.3.3Z"/>
        </g>
        <g>
          <path class="st0" d="M32,81.4c-.3,0-.5-.2-.5-.5v-12.3c0-.3.2-.5.5-.5s.5.2.5.5v12.3c0,.3-.2.5-.5.5Z"/>
          <path class="st0" d="M32,81.2c-.2,0-.3-.1-.3-.3v-12.3c0-.2.1-.3.3-.3s.3.1.3.3v12.3c0,.2-.1.3-.3.3Z"/>
        </g>
        <g>
          <path class="st0" d="M17.1,83.4c-.3,0-.5-.2-.5-.5v-14.3c0-.3.2-.5.5-.5s.5.2.5.5v14.3c0,.3-.2.5-.5.5Z"/>
          <path class="st0" d="M17.1,83.2c-.2,0-.3-.1-.3-.3v-14.3c0-.2.1-.3.3-.3s.3.1.3.3v14.3c0,.2-.1.3-.3.3Z"/>
        </g>
        <g>
          <path class="st0" d="M9.7,82c-.3,0-.5-.2-.5-.5v-12.9c0-.3.2-.5.5-.5s.5.2.5.5v12.9c0,.3-.2.5-.5.5Z"/>
          <path class="st0" d="M9.7,81.8c-.2,0-.3-.1-.3-.3v-12.9c0-.2.1-.3.3-.3s.3.1.3.3v12.9c0,.2-.1.3-.3.3Z"/>
        </g>
      </g>
    </g>
    <g>
      <g>
        <g>
          <path class="st0" d="M34,81.4c0,0-.1,0-.1,0,0,0,0,0,0-.1v-24.5h-2c0,0-.1,0-.2-.1,0,0,0-.1,0-.2l13.4-20c0,0,0,0,.2,0s.1,0,.2,0l13.4,20c0,0,0,.1,0,.2,0,0-.1.1-.2.1h-2v23.3c0,.1,0,.2-.2.2,0,0-22.3,1.2-22.3,1.2ZM34.7,55.7c.1,0,.2,0,.2.2v24.5l20.6-1.2v-23.3c0-.1,0-.2.2-.2h1.3l-11.8-17.7-11.8,17.7h1.3Z"/>
          <path class="st0" d="M34,81.2v-24.7h-2.2l13.4-20,13.4,20h-2.2v23.5l-22.2,1.2ZM33,55.9h1.7v24.7l21-1.2v-23.5h1.7l-12.2-18.2-12.2,18.2Z"/>
        </g>
        <g>
          <path class="st0" d="M57.9,56.7c-.1,0-.2,0-.2-.2v-.6c0-.1,0-.2.2-.2h24.2l-12.1-18.4h-24.9c-.1,0-.2,0-.2-.2v-.6c0-.1,0-.2.2-.2h25.3c0,0,.1,0,.2,0l13.2,20c0,0,0,.1,0,.2,0,0-.1.1-.2.1h-25.8Z"/>
          <polygon class="st0" points="83.7 56.5 57.9 56.5 57.9 55.9 82.5 55.9 70.1 37.1 45.2 37.1 45.2 36.5 70.5 36.5 83.7 56.5"/>
        </g>
        <g>
          <rect class="st0" x="81.2" y="56" width="1" height="24.7" rx=".2" ry=".2"/>
          <rect class="st0" x="81.4" y="56.2" width=".6" height="24.3"/>
        </g>
        <g>
          <g>
            <path class="st0" d="M60.7,56.6c0,0-.1,0-.2,0l-12.8-19.4s0,0,0-.2c0,0,0,0,0-.1l.5-.3s0,0,.1,0c0,0,.1,0,.2,0l12.8,19.4s0,0,0,.2c0,0,0,0,0,.1l-.5.3s0,0-.1,0Z"/>
            <rect class="st0" x="54.3" y="34.9" width=".6" height="23.2" transform="translate(-16.6 37.8) rotate(-33.5)"/>
          </g>
          <g>
            <path class="st0" d="M65.7,56.6c0,0-.1,0-.2,0l-12.8-19.4s0,0,0-.2c0,0,0,0,0-.1l.5-.3s0,0,.1,0c0,0,.1,0,.2,0l12.8,19.4s0,0,0,.2c0,0,0,0,0,.1l-.5.3s0,0-.1,0Z"/>
            <rect class="st0" x="59.2" y="34.9" width=".6" height="23.2" transform="translate(-15.8 40.5) rotate(-33.5)"/>
          </g>
          <g>
            <path class="st0" d="M70.6,56.6c0,0-.1,0-.2,0l-12.8-19.4s0,0,0-.2c0,0,0,0,0-.1l.5-.3s0,0,.1,0c0,0,.1,0,.2,0l12.8,19.4s0,0,0,.2c0,0,0,0,0,.1l-.5.3s0,0-.1,0Z"/>
            <rect class="st0" x="64.1" y="34.9" width=".6" height="23.2" transform="translate(-15 43.3) rotate(-33.5)"/>
          </g>
          <g>
            <path class="st0" d="M75.5,56.6c0,0-.1,0-.2,0l-12.8-19.4s0,0,0-.2c0,0,0,0,0-.1l.5-.3s0,0,.1,0c0,0,.1,0,.2,0l12.8,19.4s0,0,0,.2c0,0,0,0,0,.1l-.5.3s0,0-.1,0Z"/>
            <rect class="st0" x="69.1" y="34.9" width=".6" height="23.2" transform="translate(-14.1 46) rotate(-33.5)"/>
          </g>
          <g>
            <path class="st0" d="M80.5,56.6c0,0-.1,0-.2,0l-8.4-12.7s0,0,0-.2c0,0,0,0,0-.1l.5-.3s0,0,.1,0c0,0,.1,0,.2,0l8.4,12.7s0,0,0,.2c0,0,0,0,0,.1l-.5.3s0,0-.1,0Z"/>
            <rect class="st0" x="76.2" y="42.2" width=".6" height="15.3" transform="translate(-14.8 50.5) rotate(-33.5)"/>
          </g>
          <g>
            <path class="st0" d="M70,40.8c0,0-.1,0-.2,0l-2.4-3.6s0,0,0-.2c0,0,0,0,0-.1l.5-.3s0,0,.1,0c0,0,.1,0,.2,0l2.4,3.6s0,0,0,.2c0,0,0,0,0,.1l-.5.3s0,0-.1,0Z"/>
            <rect class="st0" x="68.8" y="36.5" width=".6" height="4.3" transform="translate(-9.8 44.5) rotate(-33.5)"/>
          </g>
        </g>
        <g>
          <path class="st0" d="M68.5,45.9c-.1,0-.2,0-.2-.2v-5.5c0-.1,0-.2.2-.2h4.1c.1,0,.2,0,.2.2v5.5c0,.1,0,.2-.2.2h-4.1ZM71.8,44.9v-3.9h-2.4v3.9h2.4Z"/>
          <path class="st0" d="M72.6,45.7h-4.1v-5.5h4.1v5.5ZM69.2,45.1h2.8v-4.3h-2.8v4.3Z"/>
        </g>
      </g>
      <g>
        <g>
          <path class="st0" d="M59.8,71.1c-.3,0-.5-.2-.5-.5v-8.3c0-.3.2-.5.5-.5h5.6c.3,0,.5.2.5.5v8.3c0,.3-.2.5-.5.5h-5.6ZM64.9,70.1v-7.3h-4.6v7.3h4.6Z"/>
          <path class="st0" d="M65.4,70.9h-5.6c-.2,0-.3-.1-.3-.3v-8.3c0-.2.1-.3.3-.3h5.6c.2,0,.3.1.3.3v8.3c0,.2-.1.3-.3.3ZM60.1,70.3h5v-7.7h-5v7.7Z"/>
        </g>
        <g>
          <path class="st0" d="M59.1,73.4c-.3,0-.5-.2-.5-.5v-2.3c0-.3.2-.5.5-.5h7c.3,0,.5.2.5.5v2.3c0,.3-.2.5-.5.5h-7ZM65.6,72.4v-1.3h-5.9v1.3h5.9Z"/>
          <path class="st0" d="M66.1,73.2h-7c-.2,0-.3-.1-.3-.3v-2.3c0-.2.1-.3.3-.3h7c.2,0,.3.1.3.3v2.3c0,.2-.1.3-.3.3ZM59.4,72.6h6.3v-1.7h-6.3v1.7Z"/>
        </g>
        <g>
          <path class="st0" d="M62.6,71.1c-.3,0-.5-.2-.5-.5v-8.3c0-.3.2-.5.5-.5s.5.2.5.5v8.3c0,.3-.2.5-.5.5Z"/>
          <path class="st0" d="M62.6,70.9c-.2,0-.3-.1-.3-.3v-8.3c0-.2.1-.3.3-.3s.3.1.3.3v8.3c0,.2-.1.3-.3.3Z"/>
        </g>
        <g>
          <path class="st0" d="M59.8,65.7c-.3,0-.5-.2-.5-.5s.2-.5.5-.5h5.6c.3,0,.5.2.5.5s-.2.5-.5.5h-5.6Z"/>
          <path class="st0" d="M65.4,65.5h-5.6c-.2,0-.3-.1-.3-.3s.1-.3.3-.3h5.6c.2,0,.3.1.3.3s-.1.3-.3.3Z"/>
        </g>
      </g>
      <g>
        <g>
          <path class="st0" d="M72.1,71.1c-.3,0-.5-.2-.5-.5v-8.3c0-.3.2-.5.5-.5h5.6c.3,0,.5.2.5.5v8.3c0,.3-.2.5-.5.5h-5.6ZM77.2,70.1v-7.3h-4.6v7.3h4.6Z"/>
          <path class="st0" d="M77.7,70.9h-5.6c-.2,0-.3-.1-.3-.3v-8.3c0-.2.1-.3.3-.3h5.6c.2,0,.3.1.3.3v8.3c0,.2-.1.3-.3.3ZM72.4,70.3h5v-7.7h-5v7.7Z"/>
        </g>
        <g>
          <path class="st0" d="M71.4,73.4c-.3,0-.5-.2-.5-.5v-2.3c0-.3.2-.5.5-.5h7c.3,0,.5.2.5.5v2.3c0,.3-.2.5-.5.5h-7ZM77.8,72.4v-1.3h-5.9v1.3h5.9Z"/>
          <path class="st0" d="M78.4,73.2h-7c-.2,0-.3-.1-.3-.3v-2.3c0-.2.1-.3.3-.3h7c.2,0,.3.1.3.3v2.3c0,.2-.1.3-.3.3ZM71.7,72.6h6.3v-1.7h-6.3v1.7Z"/>
        </g>
        <g>
          <path class="st0" d="M74.9,71.1c-.3,0-.5-.2-.5-.5v-8.3c0-.3.2-.5.5-.5s.5.2.5.5v8.3c0,.3-.2.5-.5.5Z"/>
          <path class="st0" d="M74.9,70.9c-.2,0-.3-.1-.3-.3v-8.3c0-.2.1-.3.3-.3s.3.1.3.3v8.3c0,.2-.1.3-.3.3Z"/>
        </g>
        <g>
          <path class="st0" d="M72.1,65.7c-.3,0-.5-.2-.5-.5s.2-.5.5-.5h5.6c.3,0,.5.2.5.5s-.2.5-.5.5h-5.6Z"/>
          <path class="st0" d="M77.7,65.5h-5.6c-.2,0-.3-.1-.3-.3s.1-.3.3-.3h5.6c.2,0,.3.1.3.3s-.1.3-.3.3Z"/>
        </g>
      </g>
      <g>
        <g>
          <path class="st0" d="M40.2,80.9c-.3,0-.5-.2-.5-.5,0-.5,0-1,0-1.6,0-5.8,2.4-10.3,5.6-10.3s5.6,4.5,5.6,10.3,0,.8,0,1.1c0,.3-.2.5-.5.5-.2,0-.3,0-.4-.2,0-.1-.1-.2-.1-.4,0-.4,0-.7,0-1.1,0-5.1-2-9.2-4.5-9.2s-4.5,4.1-4.5,9.2,0,1,0,1.5c0,.1,0,.3-.1.4,0,.1-.2.2-.3.2,0,0,0,0,0,0Z"/>
          <path class="st0" d="M40.2,80.7c-.2,0-.3-.1-.3-.3,0-.5,0-1,0-1.6,0-5.6,2.4-10.1,5.4-10.1s5.4,4.4,5.4,10.1,0,.8,0,1.1c0,.2-.2.3-.3.3-.2,0-.3-.2-.3-.3,0-.4,0-.7,0-1.1,0-5.2-2.1-9.4-4.7-9.4s-4.7,4.2-4.7,9.4,0,1,0,1.5c0,.2-.1.3-.3.3,0,0,0,0,0,0Z"/>
        </g>
        <g>
          <g>
            <path class="st0" d="M45.2,62.1c-2.3,0-4.1-1.9-4.1-4.1s1.9-4.1,4.1-4.1,4.1,1.9,4.1,4.1-1.9,4.1-4.1,4.1ZM45.2,54.8c-1.7,0-3.1,1.4-3.1,3.1s1.4,3.1,3.1,3.1,3.1-1.4,3.1-3.1-1.4-3.1-3.1-3.1Z"/>
            <path class="st0" d="M45.2,61.9c-2.2,0-3.9-1.8-3.9-3.9s1.8-3.9,3.9-3.9,3.9,1.8,3.9,3.9-1.8,3.9-3.9,3.9ZM45.2,54.6c-1.8,0-3.3,1.5-3.3,3.3s1.5,3.3,3.3,3.3,3.3-1.5,3.3-3.3-1.5-3.3-3.3-3.3Z"/>
          </g>
          <g>
            <path class="st0" d="M41.7,57.2c-.3,0-.5-.2-.5-.5s.2-.5.5-.5h6.8c.3,0,.5.2.5.5s-.2.5-.5.5h-6.8Z"/>
            <path class="st0" d="M48.6,57h-6.8c-.2,0-.3-.1-.3-.3s.1-.3.3-.3h6.8c.2,0,.3.1.3.3s-.1.3-.3.3Z"/>
          </g>
        </g>
      </g>
      <g>
        <path class="st0" d="M41.7,42.7c-.3,0-.5-.2-.5-.5s.2-.5.5-.5h6.8c.3,0,.5.2.5.5s-.2.5-.5.5h-6.8Z"/>
        <path class="st0" d="M48.6,42.5h-6.8c-.2,0-.3-.1-.3-.3s.1-.3.3-.3h6.8c.2,0,.3.1.3.3s-.1.3-.3.3Z"/>
      </g>
      <g>
        <g>
          <path class="st0" d="M56,76.3c-.3,0-.5-.2-.5-.5s.2-.5.5-.5h25.6c.3,0,.5.2.5.5s-.2.5-.5.5h-25.6Z"/>
          <path class="st0" d="M81.6,76.1h-25.6c-.2,0-.3-.1-.3-.3s.1-.3.3-.3h25.6c.2,0,.3.1.3.3s-.1.3-.3.3Z"/>
        </g>
        <g>
          <path class="st0" d="M56,78.1c-.3,0-.5-.2-.5-.5s.2-.5.5-.5h25.6c.3,0,.5.2.5.5s-.2.5-.5.5h-25.6Z"/>
          <path class="st0" d="M81.6,77.9h-25.6c-.2,0-.3-.1-.3-.3s.1-.3.3-.3h25.6c.2,0,.3.1.3.3s-.1.3-.3.3Z"/>
        </g>
        <g>
          <path class="st0" d="M56,79.8c-.3,0-.5-.2-.5-.5s.2-.5.5-.5h25.6c.3,0,.5.2.5.5s-.2.5-.5.5h-25.6Z"/>
          <path class="st0" d="M81.6,79.6h-25.6c-.2,0-.3-.1-.3-.3s.1-.3.3-.3h25.6c.2,0,.3.1.3.3s-.1.3-.3.3Z"/>
        </g>
      </g>
    </g>
    <g>
      <g>
        <g>
          <path class="st0" d="M12.3,57.2c-.3,0-.5-.2-.5-.5s.2-.5.5-.5h11.3c.3,0,.5.2.5.5s-.2.5-.5.5h-11.3Z"/>
          <path class="st0" d="M23.5,57h-11.3c-.2,0-.3-.1-.3-.3s.1-.3.3-.3h11.3c.2,0,.3.1.3.3s-.1.3-.3.3Z"/>
        </g>
        <g>
          <path class="st0" d="M21.1,60.5c-.3,0-.5-.2-.5-.5s.2-.5.5-.5h11.3c.3,0,.5.2.5.5s-.2.5-.5.5h-11.3Z"/>
          <path class="st0" d="M32.4,60.3h-11.3c-.2,0-.3-.1-.3-.3s.1-.3.3-.3h11.3c.2,0,.3.1.3.3s-.1.3-.3.3Z"/>
        </g>
        <g>
          <path class="st0" d="M14.6,63.7c-.3,0-.5-.2-.5-.5s.2-.5.5-.5h3.3c.3,0,.5.2.5.5s-.2.5-.5.5h-3.3Z"/>
          <path class="st0" d="M17.9,63.5h-3.3c-.2,0-.3-.1-.3-.3s.1-.3.3-.3h3.3c.2,0,.3.1.3.3s-.1.3-.3.3Z"/>
        </g>
        <g>
          <path class="st0" d="M25.6,65.7c-.3,0-.5-.2-.5-.5s.2-.5.5-.5h3.3c.3,0,.5.2.5.5s-.2.5-.5.5h-3.3Z"/>
          <path class="st0" d="M29,65.5h-3.3c-.2,0-.3-.1-.3-.3s.1-.3.3-.3h3.3c.2,0,.3.1.3.3s-.1.3-.3.3Z"/>
        </g>
      </g>
      <g>
        <g>
          <path class="st0" d="M93.4,57.2c-.3,0-.5-.2-.5-.5s.2-.5.5-.5h11.3c.3,0,.5.2.5.5s-.2.5-.5.5h-11.3Z"/>
          <path class="st0" d="M104.7,57h-11.3c-.2,0-.3-.1-.3-.3s.1-.3.3-.3h11.3c.2,0,.3.1.3.3s-.1.3-.3.3Z"/>
        </g>
        <g>
          <path class="st0" d="M84.6,60.5c-.3,0-.5-.2-.5-.5s.2-.5.5-.5h11.3c.3,0,.5.2.5.5s-.2.5-.5.5h-11.3Z"/>
          <path class="st0" d="M95.8,60.3h-11.3c-.2,0-.3-.1-.3-.3s.1-.3.3-.3h11.3c.2,0,.3.1.3.3s-.1.3-.3.3Z"/>
        </g>
        <g>
          <path class="st0" d="M99,63.7c-.3,0-.5-.2-.5-.5s.2-.5.5-.5h3.3c.3,0,.5.2.5.5s-.2.5-.5.5h-3.3Z"/>
          <path class="st0" d="M102.4,63.5h-3.3c-.2,0-.3-.1-.3-.3s.1-.3.3-.3h3.3c.2,0,.3.1.3.3s-.1.3-.3.3Z"/>
        </g>
        <g>
          <path class="st0" d="M88,65.7c-.3,0-.5-.2-.5-.5s.2-.5.5-.5h3.3c.3,0,.5.2.5.5s-.2.5-.5.5h-3.3Z"/>
          <path class="st0" d="M91.3,65.5h-3.3c-.2,0-.3-.1-.3-.3s.1-.3.3-.3h3.3c.2,0,.3.1.3.3s-.1.3-.3.3Z"/>
        </g>
      </g>
    </g>
    <g>
      <g>
        <g>
          <path class="st0" d="M73.5,37c-.3,0-.5-.2-.5-.5s.2-.5.5-.5h2.5c0-1.2.4-2.3,1.2-3.1.8-.8,1.8-1.3,2.9-1.3s.6,0,.9.1c1.4.4,2.5,1.6,2.6,3,0,.3-.2.5-.5.5h0c-.3,0-.5-.2-.5-.5,0-.9-.8-1.8-1.8-2.1-.2,0-.4,0-.6,0-.8,0-1.6.4-2.2,1-.7.7-1,1.8-.9,2.9v.3c0,0,0,.1,0,.2s0,0-.2,0h-3.4Z"/>
          <path class="st0" d="M76.9,36.8h-3.4c-.2,0-.3-.1-.3-.3s.1-.3.3-.3h2.7c0-1.2.3-2.3,1.1-3.2.9-1,2.3-1.4,3.6-1.1,1.3.3,2.3,1.5,2.4,2.8,0,.2-.1.3-.3.3-.2,0-.3-.1-.3-.3,0-1-.9-2-2-2.3-1-.3-2.2.1-3,.9-.7.8-1.1,1.9-.9,3v.3Z"/>
        </g>
        <g>
          <path class="st0" d="M81,32.8c-.3,0-.5-.3-.4-.6.2-.8.7-1.5,1.2-2,.7-.7,1.3-1.1,2-1.4.4-.2.9-.2,1.4-.2.7,0,1.4.2,2,.5,1,.5,1.8,1.4,2.3,2.5,0,.1,0,.3,0,.4,0,.1-.1.2-.3.3,0,0-.1,0-.2,0-.2,0-.4-.1-.5-.3-.4-.9-1-1.6-1.8-2-.5-.2-1-.4-1.6-.4s-.7,0-1,.2c-.5.2-1.1.5-1.6,1.1-.4.4-.8.9-.9,1.4,0,.2-.3.4-.5.4s0,0,0,0Z"/>
          <path class="st0" d="M81.1,32.6s0,0,0,0c-.2,0-.3-.2-.2-.4.2-.8.7-1.4,1.1-1.8.7-.7,1.3-1.1,1.9-1.3,1-.4,2.2-.3,3.2.3,1,.5,1.7,1.3,2.2,2.4,0,.2,0,.3-.2.4-.2,0-.3,0-.4-.2-.4-.9-1.1-1.7-1.9-2.1-.9-.4-1.9-.5-2.7-.2-.6.2-1.1.6-1.7,1.2-.4.4-.9.9-1,1.5,0,.1-.2.3-.3.3Z"/>
        </g>
        <g>
          <path class="st0" d="M92.3,37c0,0-.1,0-.2,0,0,0,0-.1,0-.2v-.4c.2-.6.4-1.7.3-2.7-.1-.8-.5-1.6-1.1-1.9-.3-.2-.7-.3-1.1-.3s-.7.1-.9.3c0,0-.2.1-.3.1-.2,0-.3,0-.4-.2,0-.1-.1-.2,0-.4,0-.1,0-.3.2-.3.4-.3,1-.5,1.5-.5s1.2.2,1.6.5c.8.6,1.4,1.5,1.6,2.6.1.8,0,1.8,0,2.4h1.3c.3,0,.5.2.5.5s-.2.5-.5.5h-2.3Z"/>
          <path class="st0" d="M94.6,36.8h-2.3v-.4c.2-.6.4-1.8.3-2.8-.1-.9-.6-1.7-1.2-2.1-.7-.5-1.6-.5-2.2,0-.1.1-.3,0-.4,0-.1-.1,0-.3,0-.4.8-.6,2-.6,2.9,0,.8.5,1.3,1.4,1.5,2.5.1.9,0,1.9-.1,2.6h1.6c.2,0,.3.1.3.3s-.1.3-.3.3Z"/>
        </g>
      </g>
      <g>
        <g>
          <path class="st0" d="M40.3,27.9c0,0-.1,0-.2,0s0-.1,0-.2v-.3c.2-1.1-.1-2.1-.8-2.9-.6-.6-1.4-1-2.2-1s-.4,0-.6,0c-1,.2-1.7,1.1-1.8,2.1,0,.3-.2.5-.5.5-.3,0-.5-.3-.5-.5,0-1.4,1.2-2.7,2.6-3,.3,0,.6-.1.9-.1,1.1,0,2.1.5,2.9,1.3.8.8,1.2,1.9,1.2,3.1h2.5c.3,0,.5.2.5.5s-.2.5-.5.5h-3.4Z"/>
          <path class="st0" d="M43.8,27.7h-3.4v-.3c.2-1.1-.1-2.2-.9-3-.8-.8-1.9-1.2-3-.9-1,.3-1.9,1.2-2,2.3,0,.2-.2.3-.3.3s-.3-.2-.3-.3c0-1.3,1.1-2.5,2.4-2.8,1.2-.3,2.6.1,3.6,1.1.8.8,1.2,2,1.1,3.2h2.7c.2,0,.3.1.3.3s-.1.3-.3.3Z"/>
        </g>
        <g>
          <path class="st0" d="M36.1,23.7c-.2,0-.5-.2-.5-.4-.1-.6-.5-1.1-.9-1.4-.6-.6-1.1-.9-1.6-1.1-.3-.1-.7-.2-1-.2-.5,0-1.1.1-1.6.4-.8.4-1.4,1.1-1.8,2,0,.2-.3.3-.5.3s-.1,0-.2,0c-.3-.1-.4-.4-.3-.7.5-1.1,1.3-2,2.3-2.5.6-.3,1.3-.5,2-.5s.9,0,1.4.2c.7.2,1.3.7,2,1.4.5.5,1,1.1,1.2,2,0,.1,0,.3,0,.4,0,.1-.2.2-.3.2h0Z"/>
          <path class="st0" d="M36.1,23.5c-.1,0-.3-.1-.3-.3-.1-.6-.6-1.1-1-1.5-.6-.6-1.2-1-1.7-1.2-.9-.3-1.9-.2-2.7.2-.8.4-1.5,1.2-1.9,2.1,0,.2-.2.2-.4.2-.2,0-.2-.2-.2-.4.4-1,1.2-1.9,2.2-2.4,1-.5,2.2-.6,3.2-.3.7.2,1.3.7,1.9,1.3.5.4,1,1.1,1.1,1.8,0,.2,0,.3-.2.4,0,0,0,0,0,0Z"/>
        </g>
        <g>
          <path class="st0" d="M22.6,27.9c-.3,0-.5-.2-.5-.5s.2-.5.5-.5h1.3c-.1-.7-.2-1.6,0-2.4.2-1.1.7-2.1,1.6-2.6.5-.3,1.1-.5,1.6-.5s1.1.2,1.5.5c.2.2.3.5,0,.7,0,.1-.2.2-.4.2s-.2,0-.3-.1c-.2-.2-.6-.3-.9-.3s-.7.1-1.1.3c-.6.4-1,1.1-1.1,1.9-.2,1,0,2.1.2,2.7v.4c0,0,0,.1,0,.2,0,0,0,0-.2,0h-2.4Z"/>
          <path class="st0" d="M25,27.7h-2.4c-.2,0-.3-.1-.3-.3s.1-.3.3-.3h1.6c-.1-.7-.3-1.7-.1-2.6.2-1.1.7-2,1.5-2.5.9-.6,2.1-.6,2.9,0,.1.1.2.3,0,.4-.1.1-.3.2-.4,0-.6-.4-1.5-.4-2.2,0-.6.4-1.1,1.2-1.2,2.1-.2,1,0,2.2.2,2.8v.4Z"/>
        </g>
      </g>
      <g>
        <path class="st0" d="M66.7,31.2c-3.9,0-7-3.1-7-7s3.1-7,7-7,7,3.1,7,7-3.1,7-7,7ZM66.7,18.2c-3.3,0-6,2.7-6,6s2.7,6,6,6,6-2.7,6-6-2.7-6-6-6Z"/>
        <path class="st0" d="M66.7,31c-3.8,0-6.8-3.1-6.8-6.8s3.1-6.8,6.8-6.8,6.8,3.1,6.8,6.8-3.1,6.8-6.8,6.8ZM66.7,18c-3.4,0-6.2,2.8-6.2,6.2s2.8,6.2,6.2,6.2,6.2-2.8,6.2-6.2-2.8-6.2-6.2-6.2Z"/>
      </g>
    </g>
    <g>
      <g>
        <path class="st0" d="M104.4,84.6c-14.3-2.9-29.6-4.4-45.6-4.4-24.1,0-42.6,3.4-47.6,4.4,0,0,0,0,0,0,0,0,0,0-.1,0,0,0,0,0,0-.1v-.6c-.1-.1,0-.2,0-.2,5.1-1,23.6-4.5,47.9-4.5s31.5,1.5,45.8,4.5c0,0,0,0,.1,0,0,0,0,0,0,.2v.6c-.1,0-.2.2-.3.2s0,0,0,0Z"/>
        <path class="st0" d="M104.4,84.4c-44.2-9.1-85.5-1.6-93.3,0v-.6c7.7-1.6,49.1-9.1,93.4,0v.6Z"/>
      </g>
      <g>
        <path class="st0" d="M14.2,89.4s0,0-.1,0c0,0,0,0,0-.1v-.6c-.1-.1,0-.2,0-.2,6.3-1.1,23.4-3.8,45-3.8s29.2,1.3,42.5,3.8c.1,0,.2.1.2.2v.6c-.1,0-.2,0-.2.1,0,0,0,0-.1,0s0,0,0,0c-13.2-2.5-27.4-3.8-42.3-3.8-21.5,0-38.5,2.6-44.8,3.8,0,0,0,0,0,0Z"/>
        <path class="st0" d="M14.2,89.2v-.6c10.4-1.9,47.8-7.5,87.3,0v.6c-39.5-7.5-76.8-1.9-87.3,0Z"/>
      </g>
      <g>
        <path class="st0" d="M18,94.2s0,0-.1,0c0,0,0,0,0-.1v-.6c-.1-.1,0-.2,0-.2,9.2-1.5,23.7-3.2,41-3.2s26.5,1.1,38.9,3.2c.1,0,.2.1.2.2v.6c-.1,0-.1,0-.2.1,0,0,0,0-.1,0s0,0,0,0c-12.3-2.1-25.3-3.1-38.7-3.1s-31.7,1.7-40.9,3.2c0,0,0,0,0,0Z"/>
        <path class="st0" d="M18,94v-.6c15.3-2.5,46.2-5.7,79.7,0v.6c-33.5-5.7-64.3-2.4-79.7,0Z"/>
      </g>
      <g>
        <path class="st0" d="M22.9,98.8s0,0-.1,0c0,0,0,0,0-.1v-.6c0-.1,0-.2,0-.2,8.1-1.1,21-2.4,36.2-2.4s23.2.8,33.9,2.4c0,0,0,0,.1,0,0,0,0,0,0,.1v.6c-.1,0-.2.2-.3.2s0,0,0,0c-10.7-1.6-22.1-2.3-33.8-2.3s-28,1.3-36.1,2.4c0,0,0,0,0,0Z"/>
        <path class="st0" d="M22.9,98.6v-.6c13.5-1.9,40.7-4.4,70,0v.6c-29.4-4.3-56.5-1.8-70,0Z"/>
      </g>
      <g>
        <path class="st0" d="M29,103.5c-.1,0-.2,0-.2-.2v-.6c0,0,0-.1,0-.1,0,0,0,0,.1,0,9.9-1.1,20-1.7,30-1.7s19,.5,27.9,1.6c.1,0,.2.1.2.2v.6c0,0-.1.1-.1.1,0,0,0,0-.1,0s0,0,0,0c-8.9-1-18.3-1.6-27.8-1.6s-20,.6-29.9,1.7c0,0,0,0,0,0Z"/>
        <path class="st0" d="M29,103.3v-.6c13.6-1.5,34.7-2.8,57.8-.1v.6c-23.1-2.7-44.2-1.4-57.8.1Z"/>
      </g>
      <g>
        <path class="st0" d="M37.6,108c-.1,0-.2,0-.2-.2v-.6c0,0,0-.1,0-.1,0,0,0,0,.1,0,6.7-.5,13.6-.8,20.5-.8s13.4.3,19.9.7c0,0,.1,0,.1,0,0,0,0,0,0,.1v.6c0,.1-.1.2-.2.2s0,0,0,0c-6.5-.5-13.1-.7-19.8-.7s-13.8.3-20.4.8c0,0,0,0,0,0Z"/>
        <path class="st0" d="M37.6,107.8v-.6c9.2-.7,23.6-1.3,40.3,0v.6c-16.7-1.3-31.1-.7-40.3,0Z"/>
      </g>
    </g>
    <g>
      <g>
        <path class="st0" d="M4.5,53.5c-.3,0-.5-.2-.5-.5s.2-.5.5-.5h30.1c.3,0,.5.2.5.5s-.2.5-.5.5H4.5Z"/>
        <path class="st0" d="M34.5,53.3H4.5c-.2,0-.3-.1-.3-.3s.1-.3.3-.3h30.1c.2,0,.3.1.3.3s-.1.3-.3.3Z"/>
      </g>
      <g>
        <g>
          <path class="st0" d="M12.5,53.5c-.3,0-.5-.2-.5-.4,0-.6-.1-1.1-.1-1.7,0-5.9,4.8-10.6,10.6-10.6s10.6,4.8,10.6,10.6,0,1.1-.1,1.7c0,.2-.3.4-.5.4H12.5ZM32,52.5c0-.4,0-.7,0-1.1,0-5.3-4.3-9.6-9.6-9.6s-9.6,4.3-9.6,9.6,0,.7,0,1.1h19.1Z"/>
          <path class="st0" d="M32.4,53.3H12.5c-.2,0-.3-.1-.3-.3,0-.5-.1-1.1-.1-1.6,0-5.7,4.7-10.4,10.4-10.4s10.4,4.7,10.4,10.4,0,1.1-.1,1.6c0,.2-.2.3-.3.3ZM12.7,52.7h19.4c0-.4,0-.9,0-1.3,0-5.4-4.4-9.8-9.8-9.8s-9.8,4.4-9.8,9.8,0,.9,0,1.3Z"/>
        </g>
        <g>
          <path class="st0" d="M22.4,53.3c-.1,0-.3,0-.4-.2l-3-3c0,0-.1-.2-.1-.4s0-.3.1-.4c0,0,.2-.1.4-.1s.3,0,.4.1l2.7,2.7,2.9-2.9c0,0,.2-.1.4-.1s.3,0,.4.1c0,0,.1.2.1.4s0,.3-.1.4l-3.2,3.2c0,0-.2.1-.4.1Z"/>
          <path class="st0" d="M22.4,53.1c0,0-.2,0-.2,0l-3-3c-.1-.1-.1-.3,0-.4s.3-.1.4,0l2.8,2.8,3-3c.1-.1.3-.1.4,0s.1.3,0,.4l-3.2,3.2c0,0-.1,0-.2,0Z"/>
        </g>
      </g>
      <g>
        <g>
          <path class="st0" d="M92.4,53.5c-.3,0-.5-.2-.5-.4,0-.5-.1-1-.1-1.6,0-5.4,4.4-9.8,9.8-9.8s9.8,4.4,9.8,9.8,0,1-.1,1.6c0,.2-.2.4-.5.4h-18.4ZM110.4,52.5c0-.3,0-.6,0-1,0-4.8-3.9-8.8-8.8-8.8s-8.8,3.9-8.8,8.8,0,.6,0,1h17.5Z"/>
          <path class="st0" d="M110.8,53.3h-18.4c-.2,0-.3-.1-.3-.3,0-.5-.1-1-.1-1.5,0-5.3,4.3-9.6,9.6-9.6s9.6,4.3,9.6,9.6,0,1-.1,1.5c0,.2-.2.3-.3.3ZM92.7,52.7h17.8c0-.4,0-.8,0-1.2,0-5-4-9-9-9s-9,4-9,9,0,.8,0,1.2Z"/>
        </g>
        <g>
          <path class="st0" d="M101.5,53.5c-.1,0-.3,0-.4-.1l-2.8-2.8c-.2-.2-.2-.5,0-.7,0,0,.2-.2.4-.2s.3,0,.4.1l2.4,2.4,2.6-2.6c0,0,.2-.1.4-.1s.3,0,.4.1c0,0,.1.2.1.4s0,.3-.1.4l-3,3c0,0-.2.1-.4.1Z"/>
          <path class="st0" d="M101.5,53.3c0,0-.2,0-.2,0l-2.8-2.8c-.1-.1-.1-.3,0-.4s.3-.1.4,0l2.6,2.6,2.7-2.7c.1-.1.3-.1.4,0s.1.3,0,.4l-3,3c0,0-.1,0-.2,0Z"/>
        </g>
      </g>
      <g>
        <g>
          <path class="st0" d="M81.1,53.4c-.3,0-.5-.2-.5-.4,0-.3,0-.6,0-1,0-3.4,2.8-6.2,6.2-6.2s6.2,2.8,6.2,6.2,0,.7,0,1c0,.2-.2.4-.5.4h-11.1ZM91.8,52.4c0-.1,0-.3,0-.4,0-2.8-2.3-5.1-5.1-5.1s-5.1,2.3-5.1,5.1,0,.3,0,.4h10.2Z"/>
          <path class="st0" d="M92.2,53.2h-11.1c-.2,0-.3-.1-.3-.3,0-.3,0-.6,0-.9,0-3.3,2.7-6,6-6s6,2.7,6,6,0,.6,0,.9c0,.2-.2.3-.3.3ZM81.4,52.6h10.6c0-.2,0-.4,0-.6,0-2.9-2.4-5.3-5.3-5.3s-5.3,2.4-5.3,5.3,0,.4,0,.6Z"/>
        </g>
        <g>
          <path class="st0" d="M86.6,53.4c-.1,0-.3,0-.4-.1l-1.7-1.7c-.2-.2-.2-.5,0-.7,0,0,.2-.1.4-.1s.3,0,.4.1l1.3,1.3,1.4-1.4c0,0,.2-.1.4-.1s.3,0,.4.1c.2.2.2.5,0,.7l-1.8,1.8c0,0-.2.1-.4.1Z"/>
          <path class="st0" d="M86.6,53.2c0,0-.2,0-.2,0l-1.7-1.7c-.1-.1-.1-.3,0-.4s.3-.1.4,0l1.5,1.5,1.6-1.6c.1-.1.3-.1.4,0s.1.3,0,.4l-1.8,1.8c0,0-.1,0-.2,0Z"/>
        </g>
      </g>
    </g>
    <g>
      <path class="st0" d="M57.8,111.9c-29.8,0-54.1-24.3-54.1-54.1S27.9,3.6,57.8,3.6s54.1,24.3,54.1,54.1-24.3,54.1-54.1,54.1ZM57.8,4.6C28.5,4.6,4.6,28.5,4.6,57.8s23.8,53.1,53.1,53.1,53.1-23.8,53.1-53.1S87,4.6,57.8,4.6Z"/>
      <path class="st0" d="M57.8,111.7c-29.7,0-53.9-24.2-53.9-53.9S28,3.8,57.8,3.8s53.9,24.2,53.9,53.9-24.2,53.9-53.9,53.9ZM57.8,4.4C28.3,4.4,4.4,28.3,4.4,57.8s23.9,53.3,53.3,53.3,53.3-23.9,53.3-53.3S87.2,4.4,57.8,4.4Z"/>
    </g>
  </g>
</svg>