<?xml version="1.0" encoding="utf-8"?>
<!-- Generator: Adobe Illustrator 29.5.1, SVG Export Plug-In . SVG Version: 9.03 Build 0)  -->
<svg version="1.0" id="圖層_1" xmlns="http://www.w3.org/2000/svg" xmlns:xlink="http://www.w3.org/1999/xlink" x="0px" y="0px"
	 viewBox="0 0 177.8 55.8" style="enable-background:new 0 0 177.8 55.8;" xml:space="preserve">
<g>
	<path d="M101,22.6l-2.5,0.5L95.4,6l0,0c-0.4,0.8-1.3,2.7-2.6,5.7c-1.3,3-2.7,6-4,9h-2.1c-1.2-2.8-2.5-5.8-4-9.1
		c-1.5-3.1-2.4-5-2.6-5.6l0,0c-0.1,0.3-0.5,2.2-1.2,5.8c-0.8,3.6-1.5,7.4-2.2,11.2l-2.4-0.3c1-4.4,2-8.7,2.8-13
		c0.8-4.3,1.4-6.6,1.4-7l2.4-0.4c0.1,0.2,0.8,1.9,2.2,4.9c1.3,3,2.9,6.5,4.7,10.5h0.1c1.4-3.1,2.8-6.4,4.4-9.9
		c1.6-3.5,2.3-5.3,2.4-5.5L97,2.5c0,0.2,0.5,2.4,1.3,6.7C99.1,13.4,100,17.9,101,22.6z"/>
	<path d="M124.4,22.1l-2.4,1.2c0-0.1-0.4-0.9-1-2.3s-1.4-3.2-2.4-5.4h-9c-1.1,2.4-1.9,4.2-2.5,5.5s-0.9,2-1,2.2l-2-1.1
		c0.3-0.5,1.4-2.9,3.3-7s3.9-8.5,6-13h2c2,4.5,4,8.9,6,13.2S124.4,21.9,124.4,22.1z M117.8,13.7c-0.5-1.2-1.1-2.5-1.7-3.9
		c-0.6-1.4-1.2-2.8-1.9-4.2h-0.1c-0.5,1.1-1.1,2.5-1.8,4.1c-0.7,1.6-1.3,3-1.8,4l0,0H117.8L117.8,13.7z"/>
	<path d="M154.3,22.6l-2.5,0.5L148.7,6l0,0c-0.4,0.8-1.3,2.7-2.6,5.7c-1.3,3-2.7,6-4,9H140c-1.2-2.8-2.5-5.8-4-9.1
		c-1.5-3.2-2.3-5.1-2.6-5.7l0,0c-0.1,0.3-0.5,2.2-1.2,5.8c-0.8,3.6-1.5,7.4-2.2,11.2l-2.3-0.4c1-4.4,2-8.7,2.8-13
		c0.9-4.3,1.4-6.6,1.4-7l2.4-0.4c0.1,0.2,0.8,1.9,2.2,4.9c1.3,3,2.9,6.5,4.7,10.5h0.1c1.4-3.1,2.8-6.4,4.4-9.9
		c1.6-3.5,2.3-5.3,2.4-5.5l2.3,0.2c0,0.2,0.5,2.4,1.3,6.7C152.5,13.4,153.4,17.9,154.3,22.6z"/>
	<path d="M177.8,22.1l-2.4,1.2c0-0.1-0.4-0.9-1-2.3c-0.6-1.4-1.4-3.2-2.4-5.4h-9c-1.1,2.4-1.9,4.2-2.5,5.5c-0.6,1.3-0.9,2-1,2.2
		l-2-1.1c0.3-0.5,1.4-2.9,3.3-7c1.9-4.1,3.9-8.5,6-13h2c2,4.5,4,8.9,6,13.2S177.7,21.9,177.8,22.1z M171.1,13.7
		c-0.5-1.2-1.1-2.5-1.7-3.9c-0.6-1.4-1.2-2.8-1.9-4.2h-0.1c-0.5,1.1-1.1,2.5-1.8,4.1c-0.7,1.6-1.3,3-1.8,4l0,0H171.1L171.1,13.7z"/>
	<g>
		<path d="M94.1,55.1h-2.5c0-0.6,0-1.7,0-3.4c0-1.6,0-3.7,0-6.1c-0.2,0-1.1,0-2.7,0c-1.7,0-2.9,0-3.7,0c-1,0-2.2,0-3.6,0
			s-2.2,0-2.3,0c0,2.8,0,5,0,6.4c0,1.5,0,2.5,0,3.1h-2.5c0-0.6,0-1.7,0-3.2c0-1.6,0-4.2,0-7.9c0-1.1,0-2.5,0-4.1s0-3.3-0.1-5.2h2.5
			c0,1.5,0,3.1,0,4.5c0,1.5,0,2.9,0,4.2c0.1,0,0.8,0,2,0s2.5,0,3.9,0c1.1,0,2.4,0,4,0c1.5,0,2.4,0,2.5,0c0-1.3,0-2.8,0-4.2
			s0-3,0-4.6h2.5c0,1.5,0,3.3-0.1,5.3c0,2,0,3.6,0,4.9c0,3,0,5.3,0,6.9C94,53.4,94,54.5,94.1,55.1z"/>
		<path d="M120.7,45c0,1.6-0.3,3.2-0.8,4.5c-0.6,1.4-1.3,2.5-2.2,3.4c-1,1-2.1,1.7-3.2,2.2c-1.1,0.5-2.3,0.7-3.6,0.7
			s-2.4-0.2-3.6-0.6c-1.1-0.4-2.1-1.1-3-1.9c-1-0.9-1.8-2.1-2.4-3.5c-0.6-1.4-0.9-3-0.9-4.7c0-1.6,0.2-3,0.7-4.3
			c0.5-1.3,1.2-2.4,2.1-3.5c0.9-1,1.9-1.7,3.1-2.2s2.5-0.8,3.8-0.8c1.4,0,2.6,0.2,3.8,0.7s2.2,1.2,3,2c1,1,1.7,2.2,2.3,3.6
			C120.5,41.9,120.7,43.4,120.7,45z M118.2,45.2c0-1.3-0.2-2.6-0.7-3.9c-0.5-1.3-1.1-2.3-2-3.2c-0.6-0.6-1.3-1-2-1.4
			c-0.8-0.3-1.6-0.5-2.5-0.5s-1.8,0.2-2.6,0.5s-1.5,0.8-2.1,1.5c-0.8,0.8-1.4,1.8-1.9,3c-0.5,1.2-0.7,2.4-0.7,3.7
			c0,1.5,0.2,2.8,0.7,3.9c0.5,1.2,1.1,2.1,2,2.9c0.6,0.6,1.3,1,2.1,1.3s1.6,0.5,2.5,0.5s1.8-0.2,2.5-0.5c0.8-0.3,1.5-0.8,2.1-1.4
			c0.8-0.7,1.4-1.7,1.9-2.8S118.2,46.6,118.2,45.2z"/>
		<path d="M152.4,54.8l-2.5,0.5l-3.1-17.1l0,0c-0.4,0.8-1.3,2.7-2.6,5.7c-1.3,3-2.7,6-4,9h-2.1c-1.2-2.8-2.5-5.8-4-9.1
			c-1.5-3.2-2.3-5.1-2.6-5.7l0,0c-0.1,0.3-0.5,2.2-1.2,5.8c-0.8,3.6-1.5,7.4-2.2,11.2l-2.3-0.4c1-4.4,2-8.7,2.8-13
			c0.8-4.3,1.4-6.6,1.4-7l2.4-0.4c0.1,0.2,0.8,1.9,2.2,4.9c1.3,3,2.9,6.5,4.7,10.5h0.1c1.4-3.1,2.8-6.4,4.4-9.9
			c1.6-3.5,2.3-5.3,2.4-5.5l2.3,0.2c0,0.2,0.5,2.4,1.3,6.7C150.6,45.6,151.5,50.1,152.4,54.8z"/>
		<path d="M171.9,55.1c-0.1,0-0.8,0-2,0c-1.3,0-2.8,0-4.7,0c-1.3,0-2.5,0-3.5,0c-1.1,0-2,0-2.7,0c0-0.6,0-1.9,0.1-3.8c0-2,0-4,0-6.1
			c0-1.1,0-2.7,0-4.6c0-1.9,0-3.8-0.1-5.9c0.7,0,1.6,0,2.7,0c1.1,0,2.2,0,3.3,0c1.9,0,3.5,0,4.7,0s1.9,0,2,0v2.1c-0.1,0-0.7,0-1.9,0
			s-2.6,0-4.4,0c-0.8,0-1.5,0-2.2,0s-1.3,0-1.7,0c0,1.1,0,2.3,0,3.4s0,2.2,0,3.2c0.5,0,1,0,1.6,0s1.2,0,1.7,0c1.8,0,3.4,0,4.8,0
			c1.4,0,2.2,0,2.2,0v2.1c-0.1,0-0.9,0-2.5,0s-3,0-4.4,0c-0.5,0-1.1,0-1.7,0c-0.7,0-1.2,0-1.7,0c0,1.9,0,3.4,0,4.6
			c0,1.1,0,2.1,0,2.8c0.6,0,1.3,0,2.2,0s1.8,0,2.8,0c1.5,0,2.8,0,3.8,0s1.6,0,1.7,0v2.2H171.9z"/>
	</g>
	<g>
		<path d="M0,40.1c5.9-0.1,11.9-0.3,18-0.6v-3.3h1.3l8.4-4.9h-26v-1.7h28.9l3.2-1.9l2,2.8l-14.6,6.7v2.2c5.7-0.4,11.6-0.7,18-1.3
			l0.2,1.8c-5,0.6-11,1.3-18,2v3.7c0,2.8-0.5,4.9-1.6,6.5c-1.1,1.5-3.2,2.8-6.4,3.8l-1.9-3.2c4.8-0.9,6.5-2.8,6.5-7V42
			c-3.5,0.3-9.4,0.7-17.7,1.3L0,40.1z M0.8,7.4V5.6H18V0h3.3v5.6h9.9l0.3-1.1h0.7L36.9,6l-0.3,1.3H0.8z M3.8,10.7h0.8L7,12.1h22.2
			l0.3-1.1h0.8l5.4,1.5l-0.3,1.3h-1.7v11.7l-2.1,0.8h-1.1v-2.8H6.9v2.2l-2.3,0.8H3.7L3.8,10.7L3.8,10.7z M30.3,21.9v-8H6.9v8H30.3z
			 M41.7,1.9h1.1l2,1.3h16.3L61.4,2l3.7,1.1l-7.5,17.1c4.6,6.7,6.9,12.4,6.9,16.9c0,0.8-0.1,1.6-0.2,2.4c-0.8,4.4-3.2,6.1-9.8,6.1
			c-1.4,0-3.1-0.1-4.9-0.2L48.8,42c2.8,0.4,4.9,0.6,6.5,0.6c3.7,0,5-1.2,5.7-4.1c0.2-0.6,0.2-1.4,0.2-2.1c0-2.3-0.6-4.8-1.7-7.6
			c-1.1-2.8-2.4-5.4-4-7.8l5-16.1H45v50.9h-3.2L41.7,1.9L41.7,1.9z"/>
	</g>
</g>
</svg>
