<?xml version="1.0" encoding="utf-8"?>
<!-- Generator: Adobe Illustrator 29.5.1, SVG Export Plug-In . SVG Version: 9.03 Build 0)  -->
<svg version="1.0" id="圖層_1" xmlns="http://www.w3.org/2000/svg" xmlns:xlink="http://www.w3.org/1999/xlink" x="0px" y="0px"
	 viewBox="0 0 195.6 115.1" style="enable-background:new 0 0 195.6 115.1;" xml:space="preserve">
<style type="text/css">
	.st0{fill:#FFFFFF;}
</style>
<g>
	<g>
		<path class="st0" d="M9.1,108.6l-5.1-8.9c-0.1-0.2-0.4-0.7-0.7-1.3l-0.1,0c0,0.4,0.1,0.9,0.1,1.7v14.1c0,0.5-0.5,0.8-1.4,0.8H1.4
			c-1,0-1.4-0.3-1.4-0.8V93.8C0,93.3,0.5,93,1.4,93h1.3c0.7,0,1.2,0.2,1.5,0.7l5.7,9.9c0.3,0.6,0.5,1.1,0.7,1.6
			c0.1-0.3,0.4-0.9,0.8-1.6l5.6-9.9c0.2-0.4,0.7-0.7,1.5-0.7h1.2c1,0,1.4,0.3,1.4,0.8v20.4c0,0.5-0.5,0.8-1.4,0.8h-0.4
			c-1,0-1.4-0.3-1.4-0.8v-13.9c0-0.7,0-1.3,0.1-1.7l-0.1,0c-0.2,0.5-0.5,1-0.7,1.4l-5,8.7c-0.2,0.3-0.5,0.5-0.8,0.5H10
			C9.6,109.1,9.3,108.9,9.1,108.6z"/>
		<path class="st0" d="M25.5,114.4c0-0.1,0-0.3,0.1-0.5l7.2-20.4c0.1-0.4,0.6-0.5,1.4-0.5h1.1c0.8,0,1.3,0.2,1.4,0.5L44,114
			c0.1,0.2,0.1,0.3,0.1,0.5c0,0.4-0.5,0.6-1.4,0.6h-0.6c-0.8,0-1.3-0.2-1.4-0.5l-1.7-4.7h-8.6l-1.6,4.7c-0.1,0.4-0.6,0.5-1.3,0.5H27
			C26,115,25.5,114.8,25.5,114.4z M38,106.8l-2.8-8.2c-0.1-0.3-0.2-0.6-0.2-1c-0.1-0.4-0.1-0.7-0.2-0.8h-0.1
			c-0.2,0.9-0.3,1.5-0.5,1.9l-2.9,8.2H38z"/>
		<path class="st0" d="M57.7,108.6l-5.1-8.9c-0.1-0.2-0.4-0.7-0.7-1.3l-0.1,0c0,0.4,0.1,0.9,0.1,1.7v14.1c0,0.5-0.5,0.8-1.4,0.8H50
			c-1,0-1.4-0.3-1.4-0.8V93.8c0-0.5,0.5-0.8,1.4-0.8h1.3c0.7,0,1.2,0.2,1.5,0.7l5.7,9.9c0.3,0.6,0.5,1.1,0.7,1.6
			c0.1-0.3,0.4-0.9,0.8-1.6l5.6-9.9c0.2-0.4,0.7-0.7,1.5-0.7h1.2c1,0,1.4,0.3,1.4,0.8v20.4c0,0.5-0.5,0.8-1.4,0.8h-0.4
			c-1,0-1.4-0.3-1.4-0.8v-13.9c0-0.7,0-1.3,0.1-1.7l-0.1,0c-0.2,0.5-0.5,1-0.7,1.4l-5,8.7c-0.2,0.3-0.5,0.5-0.8,0.5h-1.2
			C58.1,109.1,57.8,108.9,57.7,108.6z"/>
		<path class="st0" d="M74,114.4c0-0.1,0-0.3,0.1-0.5l7.2-20.4c0.1-0.4,0.6-0.5,1.4-0.5h1.1c0.8,0,1.3,0.2,1.4,0.5l7.2,20.4
			c0.1,0.2,0.1,0.3,0.1,0.5c0,0.4-0.5,0.6-1.4,0.6h-0.6c-0.8,0-1.3-0.2-1.4-0.5l-1.7-4.7h-8.6l-1.6,4.7c-0.1,0.4-0.6,0.5-1.3,0.5
			h-0.5C74.5,115,74,114.8,74,114.4z M86.6,106.8l-2.8-8.2c-0.1-0.3-0.2-0.6-0.2-1c-0.1-0.4-0.1-0.7-0.2-0.8h-0.1
			c-0.2,0.9-0.3,1.5-0.5,1.9l-2.9,8.2H86.6z"/>
		<path class="st0" d="M106.3,114.2V93.8c0-0.5,0.5-0.8,1.4-0.8h0.5c0.9,0,1.4,0.3,1.4,0.8v8.5h10.5v-8.5c0-0.5,0.5-0.8,1.4-0.8h0.5
			c1,0,1.4,0.3,1.4,0.8v20.4c0,0.5-0.5,0.8-1.4,0.8h-0.5c-1,0-1.4-0.3-1.4-0.8v-9h-10.5v9c0,0.5-0.5,0.8-1.4,0.8h-0.5
			C106.8,115,106.3,114.7,106.3,114.2z"/>
		<path class="st0" d="M132.1,112.3c-1.7-1.9-2.5-4.7-2.5-8.3c0-3.6,0.8-6.4,2.5-8.3c1.7-1.9,4.1-2.8,7.2-2.8c3.2,0,5.6,0.9,7.2,2.8
			s2.5,4.6,2.5,8.3s-0.8,6.4-2.5,8.3s-4.1,2.9-7.2,2.9C136.1,115.1,133.7,114.2,132.1,112.3z M143.9,110.1c1.1-1.4,1.6-3.5,1.6-6.2
			s-0.5-4.7-1.6-6.1c-1.1-1.4-2.6-2.1-4.7-2.1c-2.1,0-3.6,0.7-4.7,2.1c-1.1,1.4-1.6,3.4-1.6,6.1s0.5,4.8,1.6,6.2
			c1.1,1.4,2.6,2.1,4.7,2.1S142.8,111.6,143.9,110.1z"/>
		<path class="st0" d="M164,108.6l-5.1-8.9c-0.1-0.2-0.4-0.7-0.7-1.3l-0.1,0c0,0.4,0.1,0.9,0.1,1.7v14.1c0,0.5-0.5,0.8-1.4,0.8h-0.4
			c-1,0-1.4-0.3-1.4-0.8V93.8c0-0.5,0.5-0.8,1.4-0.8h1.3c0.7,0,1.2,0.2,1.5,0.7l5.7,9.9c0.3,0.6,0.5,1.1,0.7,1.6
			c0.1-0.3,0.4-0.9,0.8-1.6l5.6-9.9c0.2-0.4,0.7-0.7,1.5-0.7h1.2c1,0,1.4,0.3,1.4,0.8v20.4c0,0.5-0.5,0.8-1.4,0.8h-0.4
			c-1,0-1.4-0.3-1.4-0.8v-13.9c0-0.7,0-1.3,0.1-1.7l-0.1,0c-0.2,0.5-0.5,1-0.7,1.4l-5,8.7c-0.2,0.3-0.5,0.5-0.8,0.5h-1.2
			C164.4,109.1,164.2,108.9,164,108.6z"/>
		<path class="st0" d="M183.2,114.7c-0.2-0.2-0.2-0.4-0.2-0.8V94.1c0-0.4,0.1-0.6,0.2-0.8c0.2-0.2,0.4-0.2,0.8-0.2h10.9
			c0.2,0,0.4,0.1,0.5,0.3s0.2,0.5,0.2,0.9v0.6c0,0.4-0.1,0.7-0.2,0.9c-0.1,0.2-0.3,0.3-0.5,0.3h-8.6v6.4h7.7c0.2,0,0.4,0.1,0.5,0.3
			c0.1,0.2,0.2,0.5,0.2,0.9v0.6c0,0.4-0.1,0.7-0.2,0.9c-0.1,0.2-0.3,0.3-0.5,0.3h-7.7v6.9h8.6c0.2,0,0.4,0.1,0.5,0.3
			c0.1,0.2,0.2,0.5,0.2,0.9v0.6c0,0.4-0.1,0.7-0.2,0.9c-0.1,0.2-0.3,0.3-0.5,0.3h-10.9C183.6,114.9,183.3,114.8,183.2,114.7z"/>
	</g>
	<g>
		<path class="st0" d="M83.7,53.1c6.3-0.2,12.9-0.6,19.4-0.8l-0.2,4.9c-6.5,0.3-13,0.6-19.3,0.9v9.6c0,2.9-0.6,4.4-3.1,5.2
			c-2.4,0.8-6,0.9-11.8,0.9c-0.3-1.6-1.2-3.6-2-5.1c4.1,0.1,8.1,0.1,9.1,0c1.2,0,1.4-0.2,1.4-1v-9.2l-19.9,0.8L57,54
			c5.6-0.2,12.7-0.4,20.3-0.6v-3.6c3-1.5,6.5-3.3,9.4-5.3H61.5v-4.8h31.9l1.4-0.3l4,3.2c-4.3,3.2-10,6.5-15.2,8.9V53.1z M80.3,0
			c1.6,2.3,3.3,5.4,4.3,7.8h18.5V13H57.7V7.8h20.4c-1-2-2.1-4.3-3.3-6.1L80.3,0z M96.3,34.2H64.9V18.9h31.3V34.2z M90.9,23H70v7.2
			h20.9V23z M137.5,7.2c-3.6,7.6-8.3,16.9-12.3,24.3c8.9,7.4,11.1,13.8,11.2,19.6c0,4.8-1.2,8.6-4.3,10.5c-1.5,1-3.6,1.5-5.7,1.8
			c-2.2,0.2-5.1,0.2-7.6,0.1c-0.1-1.7-0.7-4.1-1.8-5.8c2.6,0.2,5.1,0.2,6.8,0.1c1.4,0,2.8-0.3,3.8-0.9c1.9-1.1,2.5-3.5,2.5-6.4
			c0-5.1-2.6-11.1-11.5-18.2c3.7-6.9,7.5-15.6,10.3-22h-16.2V74h-6.5V4.6h25.7l1-0.2L137.5,7.2z"/>
	</g>
</g>
</svg>
