<?xml version="1.0" encoding="utf-8"?>
<!-- Generator: Adobe Illustrator 29.5.1, SVG Export Plug-In . SVG Version: 9.03 Build 0)  -->
<svg version="1.0" id="圖層_1" xmlns="http://www.w3.org/2000/svg" xmlns:xlink="http://www.w3.org/1999/xlink" x="0px" y="0px"
	 viewBox="0 0 213.2 100.9" style="enable-background:new 0 0 213.2 100.9;" xml:space="preserve">
<style type="text/css">
	.st0{fill:#231815;}
</style>
<g>
	<g>
		<path class="st0" d="M26.7,100l-2.5,0.5l-3.1-17.1l0,0c-0.4,0.8-1.3,2.7-2.6,5.7s-2.7,6-4,9h-2.1c-1.2-2.8-2.5-5.8-4-9.1
			c-1.5-3.1-2.4-5-2.6-5.6l0,0c-0.1,0.3-0.5,2.2-1.2,5.8c-0.8,3.6-1.5,7.4-2.2,11.2L0,100.1c1-4.4,2-8.7,2.8-13s1.4-6.6,1.4-7
			l2.4-0.4c0.1,0.2,0.8,1.9,2.2,4.9c1.3,3,2.9,6.5,4.7,10.5h0.1c1.4-3.1,2.8-6.4,4.4-9.9s2.3-5.3,2.4-5.5l2.3,0.2
			c0,0.2,0.5,2.4,1.3,6.7C24.8,90.8,25.7,95.3,26.7,100z"/>
		<path class="st0" d="M50.1,99.5l-2.4,1.2c0-0.1-0.4-0.9-1-2.3s-1.4-3.2-2.4-5.4h-9c-1.1,2.4-1.9,4.2-2.5,5.5s-0.9,2-1,2.2l-2-1.1
			c0.3-0.5,1.4-2.9,3.3-7c1.9-4.1,3.9-8.5,6-13h2c2,4.5,4,8.9,6,13.2S50.1,99.3,50.1,99.5z M43.5,91.1c-0.5-1.2-1.1-2.5-1.7-3.9
			c-0.6-1.4-1.2-2.8-1.9-4.2h-0.1c-0.5,1.1-1.1,2.5-1.8,4.1s-1.3,3-1.8,4l0,0H43.5L43.5,91.1z"/>
		<path class="st0" d="M80,100l-2.5,0.5l-3.1-17.1l0,0c-0.4,0.8-1.3,2.7-2.6,5.7s-2.7,6-4,9h-2.1c-1.2-2.8-2.5-5.8-4-9.1
			c-1.5-3.2-2.3-5.1-2.6-5.7l0,0c-0.1,0.3-0.5,2.2-1.2,5.8c-0.8,3.6-1.5,7.4-2.2,11.2l-2.3-0.4c1-4.4,2-8.7,2.8-13
			c0.9-4.3,1.4-6.6,1.4-7l2.4-0.4c0.1,0.2,0.8,1.9,2.2,4.9c1.3,3,2.9,6.5,4.7,10.5H67c1.4-3.1,2.8-6.4,4.4-9.9s2.3-5.3,2.4-5.5
			l2.3,0.2c0,0.2,0.5,2.4,1.3,6.7C78.2,90.8,79.1,95.3,80,100z"/>
		<path class="st0" d="M103.5,99.5l-2.4,1.2c0-0.1-0.4-0.9-1-2.3s-1.4-3.2-2.4-5.4h-9c-1.1,2.4-1.9,4.2-2.5,5.5s-0.9,2-1,2.2l-2-1.1
			c0.3-0.5,1.4-2.9,3.3-7s3.9-8.5,6-13h2c2,4.5,4,8.9,6,13.2S103.4,99.3,103.5,99.5z M96.8,91.1c-0.5-1.2-1.1-2.5-1.7-3.9
			s-1.2-2.8-1.9-4.2h-0.1c-0.5,1.1-1.1,2.5-1.8,4.1c-0.7,1.6-1.3,3-1.8,4l0,0H96.8L96.8,91.1z"/>
		<path class="st0" d="M135.4,100.3h-2.5c0-0.6,0-1.7,0-3.4c0-1.6,0-3.7,0-6.1c-0.2,0-1.1,0-2.7,0c-1.7,0-2.9,0-3.7,0
			c-1,0-2.2,0-3.6,0s-2.2,0-2.3,0c0,2.8,0,5,0,6.4c0,1.5,0,2.5,0,3.1h-2.5c0-0.6,0-1.7,0-3.2c0-1.6,0-4.2,0-7.9c0-1.1,0-2.5,0-4.1
			s0-3.3-0.1-5.2h2.5c0,1.5,0,3.1,0,4.5c0,1.5,0,2.9,0,4.2c0.1,0,0.8,0,2,0s2.5,0,3.9,0c1.1,0,2.4,0,4,0c1.5,0,2.4,0,2.5,0
			c0-1.3,0-2.8,0-4.2s0-3,0-4.6h2.5c0,1.5,0,3.3-0.1,5.3c0,2,0,3.6,0,4.9c0,3,0,5.3,0,6.9C135.3,98.6,135.3,99.7,135.4,100.3z"/>
		<path class="st0" d="M162,90.2c0,1.6-0.3,3.2-0.8,4.5c-0.6,1.4-1.3,2.5-2.2,3.4c-1,1-2.1,1.7-3.2,2.2c-1.1,0.5-2.3,0.7-3.6,0.7
			s-2.4-0.2-3.6-0.6c-1.1-0.4-2.1-1.1-3-1.9c-1-0.9-1.8-2.1-2.4-3.5c-0.6-1.4-0.9-3-0.9-4.7c0-1.6,0.2-3,0.7-4.3s1.2-2.4,2.1-3.5
			c0.9-1,1.9-1.7,3.1-2.2s2.5-0.8,3.8-0.8c1.4,0,2.6,0.2,3.8,0.7s2.2,1.2,3,2c1,1,1.7,2.2,2.3,3.6C161.8,87.1,162,88.6,162,90.2z
			 M159.5,90.4c0-1.3-0.2-2.6-0.7-3.9s-1.1-2.3-2-3.2c-0.6-0.6-1.3-1-2-1.4c-0.8-0.3-1.6-0.5-2.5-0.5s-1.8,0.2-2.6,0.5
			s-1.5,0.8-2.1,1.5c-0.8,0.8-1.4,1.8-1.9,3s-0.7,2.4-0.7,3.7c0,1.5,0.2,2.8,0.7,3.9c0.5,1.2,1.1,2.1,2,2.9c0.6,0.6,1.3,1,2.1,1.3
			s1.6,0.5,2.5,0.5s1.8-0.2,2.5-0.5c0.8-0.3,1.5-0.8,2.1-1.4c0.8-0.7,1.4-1.7,1.9-2.8S159.5,91.8,159.5,90.4z"/>
		<path class="st0" d="M193.7,100l-2.5,0.5l-3.1-17.1l0,0c-0.4,0.8-1.3,2.7-2.6,5.7s-2.7,6-4,9h-2.1c-1.2-2.8-2.5-5.8-4-9.1
			c-1.5-3.2-2.3-5.1-2.6-5.7l0,0c-0.1,0.3-0.5,2.2-1.2,5.8c-0.8,3.6-1.5,7.4-2.2,11.2l-2.3-0.4c1-4.4,2-8.7,2.8-13s1.4-6.6,1.4-7
			l2.4-0.4c0.1,0.2,0.8,1.9,2.2,4.9c1.3,3,2.9,6.5,4.7,10.5h0.1c1.4-3.1,2.8-6.4,4.4-9.9s2.3-5.3,2.4-5.5l2.3,0.2
			c0,0.2,0.5,2.4,1.3,6.7C191.9,90.8,192.8,95.3,193.7,100z"/>
		<path class="st0" d="M213.2,100.3c-0.1,0-0.8,0-2,0c-1.3,0-2.8,0-4.7,0c-1.3,0-2.5,0-3.5,0c-1.1,0-2,0-2.7,0c0-0.6,0-1.9,0.1-3.8
			c0-2,0-4,0-6.1c0-1.1,0-2.7,0-4.6s0-3.8-0.1-5.9c0.7,0,1.6,0,2.7,0c1.1,0,2.2,0,3.3,0c1.9,0,3.5,0,4.7,0s1.9,0,2,0V82
			c-0.1,0-0.7,0-1.9,0s-2.6,0-4.4,0c-0.8,0-1.5,0-2.2,0s-1.3,0-1.7,0c0,1.1,0,2.3,0,3.4s0,2.2,0,3.2c0.5,0,1,0,1.6,0s1.2,0,1.7,0
			c1.8,0,3.4,0,4.8,0c1.4,0,2.2,0,2.2,0v2.1c-0.1,0-0.9,0-2.5,0s-3,0-4.4,0c-0.5,0-1.1,0-1.7,0c-0.7,0-1.2,0-1.7,0
			c0,1.9,0,3.4,0,4.6c0,1.1,0,2.1,0,2.8c0.6,0,1.3,0,2.2,0s1.8,0,2.8,0c1.5,0,2.8,0,3.8,0s1.6,0,1.7,0v2.2H213.2z"/>
	</g>
	<g>
		<path class="st0" d="M68.3,44.7c6.6-0.1,13.3-0.3,20-0.7v-3.7h1.5l9.4-5.5h-29v-1.9h32.2l3.6-2.1l2.2,3.1l-16.3,7.5v2.4
			c6.3-0.4,12.9-0.8,20-1.4l0.2,2c-5.6,0.7-12.3,1.5-20.1,2.2v4.1c0,3.1-0.6,5.5-1.8,7.2s-3.6,3.1-7.1,4.2L81,58.5
			c5.4-1,7.2-3.1,7.2-7.8v-3.9c-3.9,0.3-10.5,0.8-19.7,1.4L68.3,44.7z M69.2,8.2v-2h19.1V0H92v6.2h11l0.3-1.2h0.8l5.3,1.7l-0.3,1.5
			H69.2z M72.5,11.9h0.9l2.7,1.6h24.7l0.3-1.2h0.9l6,1.7l-0.3,1.5h-1.9v13l-2.3,0.9h-1.2v-3.1H76v2.5l-2.6,0.9h-1L72.5,11.9
			L72.5,11.9z M102.1,24.4v-8.9H76v8.9H102.1z M114.8,2.1h1.2l2.2,1.4h18.1l0.4-1.3l4.1,1.2l-8.3,19.1c5.1,7.5,7.7,13.8,7.7,18.8
			c0,0.9-0.1,1.8-0.2,2.7c-0.9,4.9-3.6,6.8-10.9,6.8c-1.6,0-3.4-0.1-5.5-0.2l-0.9-3.8c3.1,0.5,5.5,0.7,7.2,0.7
			c4.1,0,5.6-1.3,6.3-4.6c0.2-0.7,0.2-1.6,0.2-2.3c0-2.6-0.7-5.4-1.9-8.5s-2.7-6-4.4-8.7l5.6-17.9h-17.3v56.7h-3.6L114.8,2.1
			L114.8,2.1z"/>
	</g>
</g>
</svg>
