<?xml version="1.0" encoding="utf-8"?>
<!-- Generator: Adobe Illustrator 29.5.1, SVG Export Plug-In . SVG Version: 9.03 Build 0)  -->
<svg version="1.0" id="圖層_1" xmlns="http://www.w3.org/2000/svg" xmlns:xlink="http://www.w3.org/1999/xlink" x="0px" y="0px"
	 viewBox="0 0 341.9 187.5" style="enable-background:new 0 0 341.9 187.5;" xml:space="preserve">
<g id="bMXM40_00000091007132234386508530000016094498026359968924_">
	
		<image style="overflow:visible;" width="374" height="204" id="bMXM40" xlink:href="B91C22C954A2A1C2.png"  transform="matrix(1 0 0 1 513.999 97.9998)">
	</image>
</g>
<g>
	<g>
		<path d="M-352-269.4h-3.7c0-1.1,0-3.1,0-6c0-2.9,0-7.6,0-13.9c0-2.2,0-4.7,0-7.5c0-2.8,0-4.7,0-5.7c-0.1-4.7-0.9-8.1-2.4-10
			c-1.5-1.9-4.1-2.9-7.7-2.9c-1.8,0-4.1,0.5-6.8,1.5c-2.7,1-6.2,2.8-10.5,5.4c0,0.3,0.1,0.9,0.1,1.8c0.1,0.9,0.1,1.7,0.1,2.4
			c0,3.4,0,6.4,0,9.1c0,2.7,0,5.1,0,7.3c0,1.6,0,4.5,0,8.9c0,4.4,0,7.6,0,9.6h-3.7c0-1.2,0-3.9,0-8c0-4.1,0-7.8,0-11
			c0-3.2,0-6.1,0-8.8c0-2.7,0-4.4,0-5.4c0-2.2-0.2-4.2-0.6-5.9c-0.4-1.7-1-3.1-1.8-4.1c-0.7-0.9-1.6-1.5-2.8-2
			c-1.2-0.5-2.8-0.8-4.7-0.8c-2,0-4.4,0.6-7.2,1.8c-2.8,1.2-6.1,3.1-10.1,5.6c0,0.6,0,2.5,0,5.9c0,3.4,0,6.6,0,9.7
			c0,3.5,0,7.7,0,12.8c0,5.1,0,8.5,0,10.2h-3.7c0-1.1,0-3.3,0-6.5c0-3.2,0-9.1,0-17.5c0-3.4,0-7.2,0-11.3c0-4.1,0-8.4-0.1-12.8h3.6
			l0,6.3l0.1,0.1c3.8-2.4,7.2-4.3,10.1-5.5c3-1.3,5.6-1.9,8.1-1.9c3,0,5.4,0.7,7.4,2.1s3.3,3.1,4,5.1h0.2c3.2-2.1,6.6-3.8,10-5.2
			c3.5-1.4,6.4-2.1,8.8-2.1c4.3,0,7.4,1.3,9.5,3.9c2.1,2.6,3.1,6.1,3.1,10.4c0,3.7,0,6.8,0,9.2c0,2.4,0,4.5,0,6.2c0,1.9,0,5.2,0,9.8
			C-352-274.3-352-271.1-352-269.4z"/>
		<path d="M-305.5-296.9c0,4.9,0,10.5,0,16.6c0,6.2,0,9.8,0,10.9c-1,0-2.9,0.1-5.4,0.3c-2.6,0.2-5,0.3-7.2,0.3c-2.4,0-5-0.2-7.6-0.6
			c-2.6-0.4-4.9-1-6.8-2c-2.5-1.2-4.4-2.8-5.7-4.8c-1.3-2-1.9-4.2-1.9-6.7c0-2.7,0.9-5.1,2.6-7.1c1.7-2,4.3-3.8,7.8-5.2
			c2.3-0.9,4.6-1.6,7-2.1s7-1.1,13.6-1.8c-0.2-3.4-0.9-6.1-2-8.1c-1.1-2.1-2.8-3.7-5-5c-1.4-0.8-3-1.4-4.9-1.8
			c-1.9-0.4-4.1-0.6-6.7-0.6c-1.5,0-2.8,0-3.9,0.1c-1.1,0-2.2,0.1-3.2,0.1l0.4-3.2c0.5,0,1.2-0.1,2.1-0.1c1,0,2.4,0,4.2,0
			c3.8,0,7.2,0.4,10,1.3s5.2,2.1,7,3.8c1.8,1.7,3.2,3.7,4.1,6C-305.9-304.4-305.5-301.1-305.5-296.9z M-309-283.8c0-2.1,0-4.1,0-6.1
			c0-2,0-4.1,0-6.2c-2.7,0.2-6,0.6-9.8,1.2c-3.8,0.6-6.9,1.4-9.4,2.4c-2.8,1.1-4.9,2.5-6.2,4.2c-1.3,1.7-2,3.4-2,5.4
			c0,2.4,0.7,4.5,2,6.1c1.3,1.6,3.3,2.9,6,3.9c1.5,0.5,3.3,0.9,5.5,1.1c2.2,0.2,4.7,0.3,7.5,0.3c0.6,0,1.4,0,2.6-0.1
			c1.2,0,2.4-0.1,3.8-0.3c0-0.6,0-2.1,0-4.4C-309-278.8-309-281.3-309-283.8z"/>
		<path d="M-224.5-269.4h-3.7c0-1.1,0-3.1,0-6c0-2.9,0-7.6,0-13.9c0-2.2,0-4.7,0-7.5c0-2.8,0-4.7,0-5.7c-0.1-4.7-0.9-8.1-2.4-10
			c-1.5-1.9-4.1-2.9-7.7-2.9c-1.8,0-4.1,0.5-6.8,1.5c-2.7,1-6.2,2.8-10.5,5.4c0,0.3,0.1,0.9,0.1,1.8c0.1,0.9,0.1,1.7,0.1,2.4
			c0,3.4,0,6.4,0,9.1c0,2.7,0,5.1,0,7.3c0,1.6,0,4.5,0,8.9c0,4.4,0,7.6,0,9.6h-3.7c0-1.2,0-3.9,0-8c0-4.1,0-7.8,0-11
			c0-3.2,0-6.1,0-8.8c0-2.7,0-4.4,0-5.4c0-2.2-0.2-4.2-0.6-5.9c-0.4-1.7-1-3.1-1.8-4.1c-0.7-0.9-1.6-1.5-2.8-2
			c-1.2-0.5-2.8-0.8-4.7-0.8c-2,0-4.4,0.6-7.2,1.8c-2.8,1.2-6.1,3.1-10.1,5.6c0,0.6,0,2.5,0,5.9c0,3.4,0,6.6,0,9.7
			c0,3.5,0,7.7,0,12.8c0,5.1,0,8.5,0,10.2h-3.7c0-1.1,0-3.3,0-6.5c0-3.2,0-9.1,0-17.5c0-3.4,0-7.2,0-11.3c0-4.1,0-8.4-0.1-12.8h3.6
			l0,6.3l0.1,0.1c3.8-2.4,7.2-4.3,10.1-5.5c3-1.3,5.6-1.9,8.1-1.9c3,0,5.4,0.7,7.4,2.1s3.3,3.1,4,5.1h0.2c3.2-2.1,6.6-3.8,10-5.2
			c3.5-1.4,6.4-2.1,8.8-2.1c4.3,0,7.4,1.3,9.5,3.9c2.1,2.6,3.1,6.1,3.1,10.4c0,3.7,0,6.8,0,9.2c0,2.4,0,4.5,0,6.2c0,1.9,0,5.2,0,9.8
			C-224.6-274.3-224.5-271.1-224.5-269.4z"/>
		<path d="M-178.1-296.9c0,4.9,0,10.5,0,16.6c0,6.2,0,9.8,0,10.9c-1,0-2.9,0.1-5.4,0.3c-2.6,0.2-5,0.3-7.2,0.3c-2.4,0-5-0.2-7.6-0.6
			c-2.6-0.4-4.9-1-6.8-2c-2.5-1.2-4.4-2.8-5.7-4.8c-1.3-2-1.9-4.2-1.9-6.7c0-2.7,0.9-5.1,2.6-7.1c1.7-2,4.3-3.8,7.8-5.2
			c2.3-0.9,4.6-1.6,7-2.1s7-1.1,13.6-1.8c-0.2-3.4-0.9-6.1-2-8.1c-1.1-2.1-2.8-3.7-5-5c-1.4-0.8-3-1.4-4.9-1.8
			c-1.9-0.4-4.1-0.6-6.7-0.6c-1.5,0-2.8,0-3.9,0.1c-1.1,0-2.2,0.1-3.2,0.1l0.4-3.2c0.5,0,1.2-0.1,2.1-0.1c1,0,2.4,0,4.2,0
			c3.8,0,7.2,0.4,10,1.3s5.2,2.1,7,3.8c1.8,1.7,3.2,3.7,4.1,6C-178.5-304.4-178.1-301.1-178.1-296.9z M-181.6-283.8
			c0-2.1,0-4.1,0-6.1c0-2,0-4.1,0-6.2c-2.7,0.2-6,0.6-9.8,1.2c-3.8,0.6-6.9,1.4-9.4,2.4c-2.8,1.1-4.9,2.5-6.2,4.2
			c-1.3,1.7-2,3.4-2,5.4c0,2.4,0.7,4.5,2,6.1c1.3,1.6,3.3,2.9,6,3.9c1.5,0.5,3.3,0.9,5.5,1.1c2.2,0.2,4.7,0.3,7.5,0.3
			c0.6,0,1.4,0,2.6-0.1c1.2,0,2.4-0.1,3.8-0.3c0-0.6,0-2.1,0-4.4C-181.6-278.8-181.6-281.3-181.6-283.8z"/>
		<path d="M-157.3-335.9l-7.7,15.5l-2.4-1l7-16L-157.3-335.9z"/>
		<path d="M-124.1-282.4c0,2.1-0.5,4-1.5,5.6c-1,1.7-2.4,3.1-4.3,4.4c-1.6,1.1-3.7,1.9-6.1,2.4c-2.4,0.5-5.2,0.8-8.2,0.8
			c-1.1,0-2.4,0-3.8-0.1c-1.5-0.1-2.5-0.2-3.1-0.2l-0.1-3.1c0.7,0.1,1.7,0.1,3,0.2c1.3,0.1,2.8,0.1,4.5,0.1c1.9,0,4-0.2,6.1-0.5
			c2.1-0.3,3.7-0.8,4.6-1.3c1.7-0.9,3-2,4-3.2c0.9-1.2,1.4-2.8,1.4-4.7c0-1.5-0.4-2.9-1.3-4.2c-0.9-1.3-2.1-2.4-3.7-3.5
			c-1.1-0.7-2.9-1.6-5.2-2.7c-2.4-1.1-4.2-2-5.7-2.9c-1.9-1.1-3.5-2.6-4.6-4.3c-1.2-1.7-1.7-3.7-1.7-5.9c0-2.2,0.5-4.1,1.6-5.7
			c1-1.7,2.6-3.1,4.8-4.3c1.3-0.7,2.9-1.3,5-1.7c2-0.4,4.4-0.6,7.1-0.6c1.7,0,3,0,4.1,0.1c1.1,0,1.9,0.1,2.2,0.1l0.2,3.1
			c-0.7,0-1.6-0.1-2.9-0.1c-1.3,0-2.6,0-4.2,0c-2.2,0-4.1,0.2-5.7,0.5c-1.6,0.3-3.1,0.8-4.4,1.5c-1.4,0.9-2.5,1.9-3.2,3.1
			c-0.7,1.2-1.1,2.5-1.1,3.9c0,1.5,0.4,2.9,1.2,4.2c0.8,1.3,2.2,2.5,4.2,3.6c1.3,0.7,2.9,1.5,4.8,2.4c2,0.9,3.7,1.8,5.3,2.7
			c2.4,1.4,4.1,2.9,5.2,4.6C-124.6-286.4-124.1-284.5-124.1-282.4z"/>
		<path d="M-380.7-152.2h-3.7c0-1.3,0-4.1,0-8.5c0-4.4,0-8.2,0-11.4c0-3.1,0-5.9,0-8.4c0-2.4,0-4.1,0-5c-0.1-4.6-0.9-7.8-2.6-9.8
			c-1.7-2-4.4-3-8.2-3c-1.8,0-4.3,0.6-7.3,1.8c-3,1.2-6.7,3-11,5.6l0.1,38.7h-3.7c0-1.5,0-4.9,0-10.3c0-5.4,0-14.5,0-27.2
			c0-4.2,0-9.4,0-15.5c0-6.1,0-11.8-0.1-16.9h3.7l-0.1,28l0.1,0c4-2.4,7.5-4.2,10.6-5.5c3.1-1.3,5.9-1.9,8.6-1.9
			c4.4,0,7.7,1.3,9.9,3.9c2.2,2.6,3.3,6.1,3.3,10.3c0,3.7,0,6.8,0,9.3c0,2.5,0,4.6,0,6.3c0,1.9,0,5.1,0,9.8
			C-380.7-157.1-380.7-153.9-380.7-152.2z"/>
		<path d="M-324.8-176.3c0,4-0.6,7.5-1.7,10.7c-1.2,3.1-2.9,6-5.4,8.4c-2.1,2.1-4.3,3.6-6.7,4.5c-2.4,1-5,1.4-7.9,1.4
			c-2.9,0-5.6-0.5-8-1.5c-2.5-1-4.7-2.5-6.7-4.5c-2.3-2.4-4.1-5.1-5.3-8.3c-1.2-3.2-1.8-6.8-1.8-10.7c0-3.9,0.5-7.3,1.6-10.3
			c1-3,2.7-5.7,4.8-8.1c2.2-2.4,4.5-4.1,7.1-5.1c2.6-1,5.3-1.6,8.4-1.6c3,0,5.8,0.5,8.3,1.6c2.6,1.1,4.8,2.7,6.8,4.9
			c2.3,2.5,4,5.3,5.1,8.4C-325.3-183.4-324.8-180-324.8-176.3z M-328.4-176.2c0-4-0.6-7.5-1.7-10.3c-1.2-2.9-2.8-5.4-4.9-7.5
			c-1.5-1.5-3.3-2.7-5.2-3.4c-2-0.7-4-1.1-6.1-1.1c-2.5,0-4.7,0.4-6.6,1.1c-1.9,0.7-3.8,2.1-5.6,4.1c-2,2.2-3.5,4.6-4.5,7.4
			c-1,2.8-1.5,6-1.5,9.7c0,4.1,0.6,7.6,1.9,10.6c1.2,3,3,5.5,5.4,7.7c1.3,1.2,3,2.2,4.9,2.9c1.9,0.7,3.9,1,6,1
			c2.1,0,4.2-0.4,6.3-1.2c2.1-0.8,3.9-2,5.4-3.6c2.1-2.2,3.7-4.7,4.8-7.6C-329-169.3-328.4-172.5-328.4-176.2z"/>
		<path d="M-247.2-152.2h-3.7c0-1.1,0-3.1,0-6c0-2.9,0-7.6,0-13.9c0-2.2,0-4.7,0-7.5c0-2.8,0-4.7,0-5.7c-0.1-4.7-0.9-8.1-2.4-10
			c-1.5-1.9-4.1-2.9-7.7-2.9c-1.8,0-4.1,0.5-6.8,1.5c-2.7,1-6.2,2.8-10.5,5.4c0,0.3,0.1,0.9,0.1,1.8c0.1,0.9,0.1,1.7,0.1,2.4
			c0,3.4,0,6.4,0,9.1c0,2.7,0,5.1,0,7.3c0,1.6,0,4.5,0,8.9c0,4.4,0,7.6,0,9.6h-3.7c0-1.2,0-3.9,0-8c0-4.1,0-7.8,0-11
			c0-3.2,0-6.1,0-8.8c0-2.7,0-4.4,0-5.4c0-2.2-0.2-4.2-0.6-5.9c-0.4-1.7-1-3.1-1.8-4.1c-0.7-0.9-1.6-1.5-2.8-2
			c-1.2-0.5-2.8-0.8-4.7-0.8c-2,0-4.4,0.6-7.2,1.8c-2.8,1.2-6.1,3.1-10.1,5.6c0,0.6,0,2.5,0,5.9c0,3.4,0,6.6,0,9.7
			c0,3.5,0,7.7,0,12.8c0,5.1,0,8.5,0,10.2h-3.7c0-1.1,0-3.3,0-6.5c0-3.2,0-9.1,0-17.5c0-3.4,0-7.2,0-11.3c0-4.1,0-8.4-0.1-12.8h3.6
			l0,6.3l0.1,0.1c3.8-2.4,7.2-4.3,10.1-5.5c3-1.3,5.6-1.9,8.1-1.9c3,0,5.4,0.7,7.4,2.1s3.3,3.1,4,5.1h0.2c3.2-2.1,6.6-3.8,10-5.2
			c3.5-1.4,6.4-2.1,8.8-2.1c4.3,0,7.4,1.3,9.5,3.9c2.1,2.6,3.1,6.1,3.1,10.4c0,3.7,0,6.8,0,9.2c0,2.4,0,4.5,0,6.2c0,1.9,0,5.2,0,9.8
			C-247.2-157.1-247.2-153.9-247.2-152.2z"/>
		<path d="M-196.2-179h-35.2c0,4.4,0.6,8.2,1.8,11.3c1.2,3.1,3.5,5.8,7,8.4c1.9,1.4,4.2,2.5,6.8,3.2c2.7,0.7,5.6,1.1,8.7,1.1
			c1.1,0,2.3,0,3.6-0.1c1.3,0,2.3-0.1,3-0.1l-0.6,3c-0.4,0-1,0-1.9,0.1c-0.9,0.1-2.4,0.1-4.4,0.1c-4.4,0-8.4-0.6-11.9-1.9
			c-3.5-1.3-6.5-3.1-8.9-5.6c-2.1-2.2-3.8-4.8-5.1-7.9c-1.2-3.1-1.9-6.2-1.9-9.5c0-3.8,0.4-7.1,1.3-9.7c0.9-2.7,2.4-5.3,4.7-7.9
			c1.8-2.2,4-3.9,6.5-5c2.5-1.2,5.2-1.7,8.1-1.7c2.7,0,5.1,0.4,7.2,1.3c2.1,0.9,3.9,2.2,5.5,3.8c1.7,1.9,3.1,4.3,4,7.2
			C-196.7-186.1-196.3-182.8-196.2-179z M-199.7-181.7c-0.5-5.8-2.1-10-4.6-12.7c-2.6-2.7-6-4.1-10.1-4.1c-4.2,0-7.8,1.4-10.8,4.3
			c-3,2.8-5,7-6,12.6H-199.7z"/>
	</g>
</g>
<text transform="matrix(1 0 0 1 462.0171 -181.7388)"><tspan x="0" y="0" style="font-family:'Lane-Cane'; font-size:97.6313px;">mama’s</tspan><tspan x="0" y="117.2" style="font-family:'Lane-Cane'; font-size:97.6313px;">home</tspan></text>
<text transform="matrix(1 0 0 1 529.7231 -452.2723)"><tspan x="0" y="0" style="font-family:'Papyrus'; font-size:97.6313px;">mama’s</tspan><tspan x="0" y="117.2" style="font-family:'Papyrus'; font-size:97.6313px;">home</tspan></text>
<text transform="matrix(1 0 0 1 -34.4684 -233.3086)"><tspan x="0" y="0" style="font-family:'Tomarik-Extrovert'; font-size:97.6313px;">mama’s</tspan><tspan x="0" y="117.2" style="font-family:'Tomarik-Extrovert'; font-size:97.6313px;">home</tspan></text>
<g>
	<path d="M53.6,68.7l-0.3-2.6L53,63.2l-0.1-1.9v-5.5l-0.4-2.3v-3.7L52.2,46L52,44.1l-0.4-2l-0.5-1.9l-1.8-3.2l-3.1-2.4L42,33.8
		l-4,1.1l-1.6,0.9l-2.2,2.4l-1.9,2.9l-0.6,1.8l-0.3,4v17.8L31.2,68l-1.6,1.9l-2.1-0.5L27,66.8l0.1-1.9V48.1L27,46.1l-0.2-2l-0.4-3.6
		L25.2,37l-2.4-3l-2.6-1.1L17.9,33l-2.2,0.3l-2,0.5L11.2,35l-1.6,1.3l-1.4,1.6l-1.1,1.7l-1.6,3.7l-0.4,1.9l-0.2,3.2l-0.5,2.3
		l0.1,2.7l-0.2,1.7l-0.2,2.1l0.3,2.1l-0.1,3.3l0.1,3.9l-1.1,2.9l-1.1,0.6l-2-1.4l-0.4-4.1l0.1-3.3L0,58.6V56l0.3-1.8v-2l0.2-3.4v-6
		l0.3-1.8l-0.1-2l0.2-2.6v-4.7l0.9-1.9h2.1l1.4,2.2l0.7,1.4l1.7-1.5l1.5-1l1.6-0.9l1.7-0.8l2.8-0.9l3.4-0.1l3.8,0.2l1.8,0.7l2.8,2.2
		l1.8,2.2l0.8,1.8l0.8,0.4l1.7-2.1l2.9-2.6l3.4-1.7l2.9-0.4h3l2.1,0.5l1.9,0.8l1.8,1.1l1.7,1.3l1.4,1.5l2,3.1l0.9,2.8l0.7,2.5l0.3,3
		l0.1,1.9l0.1,3.4V53l0.4,3.7l0.1,4.6l0.3,4V67l-0.3,2.1l-0.8,0.8L55.3,70L53.6,68.7z"/>
	<path d="M115.4,70l-0.9-2.4l0.1-2.9v-3l-0.6-1.3l-1.5,1.7l-1.4,1.4l-1.5,1.2l-1.5,1.1l-3.4,2l-2,0.7l-2,0.6l-3.8,1l-1.8,0.1
		l-1.9-0.1L90,69.4l-3.5-0.9l-3.1-2.1L80.5,64l-2.4-3.1l-0.9-2.1l-0.6-2.1l-0.6-3.7v-3.8l0.1-2.1l0.9-3.9l0.5-1.8l0.7-1.7l0.9-1.8
		l1.1-1.5l2.5-2.9l1.5-1.4l3.4-2.2l1.9-1l2-0.8l2.4-0.6l2.6-0.1h2.2l4,0.3l1.9,0.4l1.9,0.5l1.8,0.6l3.4,1.7l2.3,2l1.5-1.6l1.1-3
		l1.7-0.6l1.2,0.9l0.3,2.9l-0.4,3.5v3.2l-0.4,2.3l-0.1,2.1l0.1,1.6l-0.1,3.4v6.6l0.1,2.8l0.1,2.2v2.1l0.1,1.6l-0.2,2.1l0.4,3.1
		l-1.6,2L115.4,70z M96.4,65.3l2.6-0.5l1.9-0.5l1.9-0.8l1.7-0.9l1.7-1l3.2-2.5l1.4-1.7l1.3-1.8l1.7-3.2l0.8-3.7l0.1-2.2v-3l-0.9-2.8
		l-2-3.8l-2.8-2.4l-2.4-1l-2.8-0.9l-1.9-0.3l-3,0.1L95.3,32l-3.9,1.2l-1.7,0.9l-3.1,2.2L85,37.7L83,40.4l-1.2,2.2l-1,3l-0.4,1.9
		l-0.1,2.8v2.8l0.4,2l0.6,2l1.7,3.2l2.3,2.2l2.8,1.9l1.8,0.6l3.2,0.2H96.4z"/>
	<path d="M194.2,68.7l-0.3-2.6l-0.3-2.9l-0.1-1.9v-5.5l-0.4-2.3v-3.7l-0.3-3.8l-0.2-1.9l-0.4-2l-0.5-1.9l-1.8-3.2l-3.1-2.4l-4.3-0.9
		l-4,1.1l-1.6,0.9l-2.2,2.4l-1.9,2.9l-0.6,1.8l-0.3,4v17.8l-0.2,3.4l-1.6,1.9l-2.1-0.5l-0.5-2.6l0.1-1.9V48.1l-0.1-2.1l-0.2-2
		l-0.4-3.6l-1.3-3.5l-2.4-3l-2.6-1.1l-2.2,0.1l-2.2,0.3l-2,0.5l-2.4,1.3l-1.6,1.3l-1.4,1.6l-1.1,1.7l-1.6,3.7l-0.4,1.9l-0.2,3.2
		l-0.5,2.3l0.1,2.7l-0.2,1.7l-0.2,2.1l0.3,2.1l-0.1,3.3l0.1,3.9l-1.1,2.9l-1.1,0.6l-2-1.4l-0.4-4.1l0.1-3.3l-0.2-2.5V56l0.3-1.8v-2
		l0.2-3.4v-6l0.3-1.8l-0.1-2l0.2-2.6v-4.7l0.9-1.9h2.1l1.4,2.2l0.7,1.4l1.7-1.5l1.5-1l1.6-0.9l1.7-0.8l2.8-0.9l3.4-0.1l3.8,0.2
		l1.8,0.7l2.8,2.2l1.8,2.2l0.8,1.8l0.8,0.4l1.7-2.1l2.9-2.6l3.4-1.7l2.9-0.4h3l2.1,0.5l1.9,0.8l1.8,1.1L192,33l1.4,1.5l2,3.1
		l0.9,2.8l0.7,2.5l0.3,3l0.1,1.9l0.1,3.4V53l0.4,3.7l0.1,4.6l0.3,4V67l-0.3,2.1l-0.8,0.8l-1.3,0.1L194.2,68.7z"/>
	<path d="M256,70l-0.9-2.4l0.1-2.9v-3l-0.6-1.3l-1.5,1.7l-1.4,1.4l-1.5,1.2l-1.5,1.1l-3.4,2l-2,0.7l-2,0.6l-3.8,1l-1.8,0.1l-1.9-0.1
		l-3.5-0.4l-3.5-0.9l-3.1-2.1l-2.8-2.4l-2.4-3.1l-0.9-2.1l-0.6-2.1l-0.6-3.7v-3.8l0.1-2.1l0.9-3.9l0.5-1.8l0.7-1.7l0.9-1.8l1.1-1.5
		l2.5-2.9l1.5-1.4l3.4-2.2l1.9-1l2-0.8l2.4-0.6l2.6-0.1h2.2l4,0.3l1.9,0.4l1.9,0.5l1.8,0.6l3.4,1.7l2.3,2l1.5-1.6l1.1-3l1.7-0.6
		l1.2,0.9l0.3,2.9l-0.4,3.5v3.2l-0.4,2.3l-0.1,2.1l0.1,1.6l-0.1,3.4v6.6l0.1,2.8l0.1,2.2v2.1l0.1,1.6l-0.2,2.1l0.4,3.1l-1.6,2
		L256,70z M236.9,65.3l2.6-0.5l1.9-0.5l1.9-0.8l1.7-0.9l1.7-1l3.2-2.5l1.4-1.7l1.3-1.8l1.7-3.2l0.8-3.7l0.1-2.2v-3l-0.9-2.8l-2-3.8
		l-2.8-2.4l-2.4-1l-2.8-0.9l-1.9-0.3l-3,0.1l-3.3-0.4l-3.9,1.2l-1.7,0.9l-3.1,2.2l-1.6,1.4l-2.1,2.7l-1.2,2.2l-1,3l-0.4,1.9
		l-0.1,2.8v2.8l0.4,2l0.6,2l1.7,3.2l2.3,2.2l2.8,1.9l1.8,0.6l3.2,0.2H236.9z"/>
	<path d="M285.2,28.5l0.9-3.5l3.8-10.8l0.8-3.4l-0.8-1.9L288,6.8l-0.5-3.4l0.7-1.6l1.2-1.3l3.2-0.6l2.4,1l1.1,1.9l0.3,1.2l-0.1,2
		L296,7.6l-0.7,3.2l-0.5,1.8l-0.7,2.3l-1,2.5l-0.5,1.9l-1.4,3.6L290,27l-1.1,2.8l-2,0.6L285.2,28.5z"/>
	<path d="M320.5,69.2l-1-1.8l0.6-1.6l2.9-0.7l4.2-0.1l2-0.4l3.2-1.1l1.1-2.5l-1.4-2.6l-2.5-2.2l-1.5-1.1l-1.6-1.2l-2.1-2l-3.6-4.1
		l-1.3-3.8l-0.1-2l0.4-2.1l0.7-2.4l1.1-2l2.9-3.2l1.8-1.4l3.7-1.9l3.4-0.7l1.8-0.2h3.6l2,0.3l0.6,0.6l0.6,1.2l-0.5,1.5l-2,0.9
		l-6.4,0.4l-1.8,0.5l-1.7,0.7l-1.6,1l-2.5,2.6l-0.9,1.7l-0.6,2.2l-0.2,0.8l0.7,2.4l1.2,1.9l2.8,3.1l1.5,1.2l1.5,1.1l2.8,2.2l1.2,1.2
		l1.9,2.9l1,3.7l-0.4,1.9l-2.4,3.1l-2.8,1.2l-2.8,0.9l-3.4,0.3l-3.1,0.2L320.5,69.2z"/>
	<path d="M1.2,186.3l-0.3-0.8l-0.4-2.4v-29.4l-0.1-4v-4.1l0.1-3.2l0.1-2.3l-0.1-2.4l0.2-1.8l-0.2-1.5l0.3-2.1l-0.2-1.9v-1.8l0.2-2.3
		l0.1-2.4L1,121l0.4-1.9l1.1-0.7l1.4,0.2l1.2,1l0.4,0.8l-0.1,0.9l-0.2,2.5l0.1,2.1l-0.1,2l0.1,3.9l-0.1,1.9v7.4l-0.2,1.4l-0.1,2.5
		l-0.1,3.4l0.1,2.1l0.6,0.3l1.8-1.5l1.4-1.1l1.5-1l2.6-1.3l3.4-0.8l2.4-0.4l1.8,0.2l3.5,0.2l1.8,0.8l3.1,1.9l1.3,1.1l2.4,2.5
		l0.9,1.6l1.1,2.7l0.9,3.1l0.3,2.1l0.2,2.1v12.4l0.1,3.8l-0.1,2.6l0.5,2.1l-0.6,1.1l-0.8,0.6l-0.9,0.6l-1.6-0.8l-0.9-2.8v-4l-0.1-2
		v-12l-0.1-2l-0.5-3.7l-1.1-3.4l-2.2-2.9l-3.1-2.2l-3.6-1.1l-3.9,0.3l-2.1,0.5l-1.9,0.8l-3,2.1l-2.3,2.3l-1.4,3.1l-0.5,1.8l-0.4,1.8
		l-0.4,3.2l-0.1,3v6.2l0.3,2.8L5,180.4l-0.2,4l-2,2.2L1.2,186.3z"/>
	<path d="M75,187.1l-3.7-0.6l-1.7-0.4l-1.7-0.5l-3.4-1.5l-1.7-1l-1.6-1.4l-1.4-1.4l-1.1-1.5l-1-1.6l-0.8-1.7l-1.3-3.1l-0.7-2.8
		l-0.4-1.8l-0.1-2.9l0.4-4.4l0.5-2.1l0.7-2.1l2.1-3.6l1.4-1.7l1.7-1.5l3.4-2.1l3.2-1.4l3.2-0.9l2.2-0.3l2-0.4l2.4,0.4l2.8,0.1l2,0.2
		l4,0.8l3.7,1.4l1.8,0.9l3.1,2.1l1.3,1.4l1.1,1.5l0.8,1.8l0.5,1.8l0.5,2.7l0.1,2.4l-0.1,2.9l-0.7,3.4l-0.5,2l-1.1,3.9l-2,3.7
		l-2.5,3.2l-1.6,1.4l-1.6,1.2l-3.2,1.8l-1.7,0.5l-3.7,0.9l-2,0.1H77L75,187.1z M78.4,182.9l1.8-0.2l2.2-0.6l2.4-0.7l1.8-0.9l1.7-1.1
		l2.8-3l1.1-1.8l1-1.9l1.2-4.1l0.5-2.1l0.3-3.3V161l-0.2-2.6l-1.3-3l-1.1-1.5l-3.2-2l-1.9-0.8l-2-0.5l-2-0.4l-2.6-0.2l-2.6-0.4
		l-2-0.1l-2,0.1l-3.2,0.7l-2.7,0.8l-3.2,1.6l-2,1.5l-0.8,1l-1.5,2.1l-0.8,1.7l-1,3.6l-0.2,2l0.3,4.3l1.3,4.1l2,3.8l1.7,1.9l1.6,1.2
		l1.8,1l4.1,1.3l2.7,0.5l2.2,0.3H78.4z"/>
	<path d="M172.6,185.9l-0.3-2.6l-0.3-2.9l-0.1-1.9V173l-0.4-2.3v-3.7l-0.3-3.8l-0.2-1.9l-0.4-2l-0.5-1.9l-1.8-3.2l-3.1-2.4l-4.3-0.9
		l-4,1.1l-1.6,0.9l-2.2,2.4l-1.9,2.9l-0.6,1.8l-0.3,4v17.8l-0.2,3.4l-1.6,1.9l-2.1-0.5l-0.5-2.6l0.1-1.9v-16.8l-0.1-2.1l-0.2-2
		l-0.4-3.6l-1.3-3.5l-2.4-3l-2.6-1.1l-2.2,0.1l-2.2,0.3l-2,0.5l-2.4,1.3l-1.6,1.3l-1.4,1.6l-1.1,1.7l-1.6,3.7l-0.4,1.9l-0.2,3.2
		l-0.5,2.3l0.1,2.7l-0.2,1.7l-0.2,2.1l0.3,2.1l-0.1,3.3l0.1,3.9l-1.1,2.9l-1.1,0.6l-2-1.4l-0.4-4.1l0.1-3.3l-0.2-2.5v-2.5l0.3-1.8
		v-2l0.2-3.4v-6l0.3-1.8l-0.1-2l0.2-2.6v-4.7l0.9-1.9h2.1l1.4,2.2l0.7,1.4l1.7-1.5l1.5-1l1.6-0.9l1.7-0.8l2.8-0.9l3.4-0.1l3.8,0.2
		l1.8,0.7l2.8,2.2l1.8,2.2l0.8,1.8l0.8,0.4l1.7-2l2.9-2.6l3.4-1.7l2.9-0.4h3l2.1,0.5l1.9,0.8l1.8,1.1l1.7,1.3l1.4,1.5l2,3.1l0.9,2.8
		l0.7,2.5l0.3,3l0.1,1.9l0.1,3.4v1.8l0.4,3.7l0.1,4.6l0.3,4v1.7l-0.3,2.1l-0.8,0.8l-1.3,0.1L172.6,185.9z"/>
	<path d="M220.3,187.4l-3.4-0.3h-3.4l-1.9-0.4l-2.1-0.8l-2.1-0.6l-1.7-0.7l-1.6-0.9l-1.4-1l-2.6-2.4l-1.2-1.5l-1.1-1.5l-1-1.6
		l-1.7-3.8l-0.3-2.8l-0.2-1l0.3-2.5l0.3-2l0.3-2.1l0.4-2l1.5-3.7l1-1.8l1.1-1.7l1.2-1.6l1.3-1.5l1.5-1.4l2.7-1.9l2.9-1l1.8-0.4
		l3.8-0.5l3.6,0.6l3.5,1.3l3.4,1.9l2.1,1.5l1.9,1.9l1.1,1.4l1.5,3.3l0.5,2l-0.1,4l-2.6,2.6l-4,0.3h-3.9l-2.5,0.3l-1.4-0.1l-5.8,0.3
		l-10.9-0.4l-1.6,0.5l-0.1,2.9l0.7,4l0.8,1.5l1.6,2.1l1.9,2.3l1.6,1.3l3.4,1.6l1.8,0.6l1.8,0.4l1.9,0.4l5.2,0.3l3.6-0.1l3.5-0.9
		l2.2,0.3l0.9,1.1l-0.2,1.7l-0.8,1l-1.9,0.6l-1.7,0.4l-3.5,0.5L220.3,187.4z M209.5,161h8.7l1.9-0.1h5.3l2.4-0.3l0.2-2.2l-0.7-1.9
		l-0.9-1.7l-3-2.6l-1.8-1.1l-2.3-1.3l-2.8-0.6l-2.2-0.1l-2.6,0.2l-2.2,0.8l-1.8,1l-1.7,1.2l-1.4,1.4l-2.3,3.4l-1.4,2.8l1.6,1
		l1.9,0.1l3.5,0.1L209.5,161z"/>
</g>
<text transform="matrix(1 0 0 1 -31.0998 -513.8317)"><tspan x="0" y="0" style="font-family:'Tomarik-Extrovert'; font-size:97.6313px;">mama’s</tspan><tspan x="0" y="117.2" style="font-family:'Tomarik-Extrovert'; font-size:97.6313px;">home</tspan></text>
</svg>
