<?xml version="1.0" encoding="UTF-8"?>
<svg id="_圖層_1" data-name="圖層_1" xmlns="http://www.w3.org/2000/svg" version="1.1" viewBox="0 0 600 36.7">
  <!-- Generator: Adobe Illustrator 29.6.0, SVG Export Plug-In . SVG Version: 2.1.1 Build 207)  -->
  <defs>
    <style>
      .st0 {
        fill: #fff;
      }
    </style>
  </defs>
  <path class="st0" d="M18.1,16.2l2,3.9c-1.2,1.9-2.8,3.8-4.7,5.6-1.9,1.8-4,3.5-6.3,5-2.3,1.5-4.8,2.8-7.3,3.9l-.3-.6c2.3-1.2,4.5-2.8,6.7-4.6,2.2-1.8,4.1-3.9,5.9-6.1,1.7-2.2,3.1-4.6,4.1-7ZM2,6.4h29.4l2.2-2.7c.6.4,1,.8,1.4,1.1.4.3.8.7,1.3,1.1.5.4.9.7,1.3,1.1-.1.4-.5.6-1.1.6H2.4l-.4-1.2ZM9.8,8.9l4.4,1.3c0,.2-.2.4-.5.6-.2.1-.6.2-1,.2-1,2.7-2.2,5.1-3.8,7.1-1.5,2-3.3,3.6-5.2,4.8l-.5-.4c1.5-1.6,2.8-3.5,3.9-5.9,1.2-2.3,2-4.9,2.6-7.7ZM10,13.6c1.4.5,2.5,1,3.4,1.5s1.4,1.1,1.8,1.7c.4.6.6,1.1.6,1.6s-.1.9-.4,1.2c-.3.3-.6.5-1,.5-.4,0-.9-.1-1.3-.5-.1-.7-.4-1.3-.7-2.1-.4-.7-.8-1.4-1.3-2-.5-.6-1-1.2-1.5-1.7l.4-.3ZM18.1,0l4.6.5c0,.3-.1.5-.3.7-.2.2-.6.3-1.1.4v33.7c0,.1-.1.3-.4.5-.3.2-.6.4-1,.5-.4.1-.8.2-1.2.2h-.6V0ZM21.3,17.1c1.1,2.2,2.5,4.3,4.3,6.2,1.8,1.9,3.8,3.5,6,4.9,2.2,1.4,4.5,2.4,6.8,3.2v.4c-.7.1-1.3.4-1.8.9-.5.5-.9,1.1-1.1,1.9-2.2-1.1-4.3-2.4-6.2-4s-3.6-3.6-5-5.8c-1.4-2.2-2.6-4.6-3.6-7.3l.6-.3ZM27.7,8.9l4.5,1.1c0,.2-.2.4-.4.6-.2.2-.6.3-1,.3-.8,2.5-1.8,4.6-3,6.4-1.3,1.8-2.7,3.3-4.4,4.4l-.5-.4c1.2-1.5,2.2-3.3,3.1-5.4.9-2.1,1.5-4.4,1.8-6.9ZM28.1,13.9c1.7.5,3.1,1,4.2,1.7,1.1.7,1.9,1.3,2.4,2,.5.7.8,1.3,1,1.9.1.6,0,1.1-.2,1.5-.2.4-.5.6-1,.7s-.9,0-1.5-.4c-.2-.8-.6-1.7-1.2-2.5-.6-.9-1.2-1.7-1.9-2.5-.7-.8-1.4-1.5-2.1-2.1l.4-.3Z"/>
  <path class="st0" d="M50.8,29c.7.8,1.4,1.4,2.2,1.8.8.4,1.6.8,2.6,1,1,.2,2.1.4,3.4.5,1.3,0,2.8.1,4.6.1h5.1c1.8,0,3.7,0,5.5,0,1.9,0,3.6,0,5.2-.1v.6c-1.4.3-2.2,1.2-2.3,2.7h-13.5c-1.9,0-3.5,0-4.8-.2-1.4-.2-2.6-.4-3.6-.9-1-.4-1.9-1-2.7-1.7-.8-.7-1.5-1.7-2.2-2.9-.5.6-1.1,1.3-1.7,2-.6.7-1.3,1.4-1.9,2-.6.6-1.2,1.2-1.7,1.7,0,.4-.1.8-.5,1l-2.1-3.8c.7-.3,1.6-.7,2.5-1.2,1-.5,2-1,3-1.6,1-.6,2-1.1,2.9-1.6v.7ZM50.8,21.4v7.3l-3,2.1v-9.9h-5.2l-.2-1.2h4.8l1.7-2.3,3.8,3.1c-.1.1-.4.3-.7.4s-.7.3-1.3.3ZM43.2,8.9c1.6.1,2.9.4,3.9.8,1,.4,1.8.9,2.3,1.4.5.5.9,1,1,1.6.1.5.1,1,0,1.4-.2.4-.5.6-.9.8-.4.1-.9,0-1.4-.2-.3-.6-.7-1.3-1.3-2-.6-.7-1.2-1.3-1.9-1.9s-1.3-1.1-2-1.5l.4-.3ZM44.9.8c1.6.2,2.9.5,3.9,1,1,.5,1.8,1,2.3,1.5.5.6.8,1.1.9,1.7.1.5,0,1-.1,1.4-.2.4-.5.6-.9.8-.4.1-.9,0-1.4-.2-.3-.7-.7-1.3-1.2-2.1s-1.2-1.4-1.8-2.1c-.7-.7-1.3-1.2-1.9-1.7l.4-.3ZM53.5,7h19.9l2-2.5c.8.6,1.5,1.2,2.1,1.6.6.5,1.1.9,1.6,1.3-.1.4-.5.6-1.1.6h-24.2l-.3-1.2ZM56.8,2.5h13.6l1.9-2.4c.8.6,1.5,1.2,2,1.6.6.5,1.1.9,1.6,1.3-.1.4-.5.6-1.1.6h-17.7l-.3-1.2ZM56.8,11.6h13.7l1.9-2.3c.5.4.9.7,1.2,1,.4.3.7.6,1.1.9.4.3.8.6,1.1,1,0,.4-.4.6-1,.6h-17.7l-.3-1.2ZM56.8,16.1h13.7l1.9-2.3c.5.4.9.7,1.2,1,.4.3.7.6,1.1.9.4.3.8.6,1.1.9,0,.4-.4.6-1,.6h-17.7l-.3-1.2ZM57.1,20.7v-1.4l3.3,1.4h12.9v1.2h-13.1v8.2c0,.1-.1.2-.4.4-.3.2-.6.3-1,.4-.4.1-.8.2-1.2.2h-.5v-10.3ZM58.5,27.3h14.6v1.2h-14.6v-1.2ZM71.6,20.7h-.4l1.6-1.8,3.6,2.7c-.1.2-.3.3-.6.5-.3.1-.7.3-1,.4v7.4c0,0-.2.2-.5.3-.3.1-.7.3-1.1.4-.4.1-.8.2-1.1.2h-.5v-10Z"/>
  <path class="st0" d="M93.7,7.8h-.2l1.9-1.8,2.9,2.7c-.1.2-.3.3-.6.4-.3,0-.6.1-1.1.1-.8,1.8-1.9,3.6-3.2,5.4-1.3,1.8-2.8,3.5-4.5,5.1-1.7,1.6-3.6,3-5.7,4.3l-.4-.6c1.6-1.3,3.1-2.9,4.5-4.6,1.4-1.8,2.7-3.6,3.8-5.5,1.1-1.9,2-3.8,2.6-5.6ZM83.5,7.8h11.8v1.2h-11.5l-.4-1.2ZM92,15.5v19.9c0,0-.1.2-.3.3-.2.2-.5.3-.9.5-.4.1-.8.2-1.3.2h-.5v-18.3l2.9-2.6ZM89.1,0l4.4.4c0,.3-.2.5-.4.7-.2.2-.6.3-1.1.4v6.9h-3V0ZM91.6,16.5c1.5.5,2.6,1.1,3.5,1.7.9.6,1.5,1.2,2,1.8.4.6.7,1.2.7,1.7,0,.5,0,.9-.2,1.2-.2.3-.5.5-.9.6-.4,0-.8,0-1.2-.4-.2-.7-.6-1.4-1-2.1-.5-.7-1-1.5-1.6-2.2-.6-.7-1.1-1.4-1.6-1.9l.4-.3ZM96.2,13.6l2.8,1.8c-.1.2-.3.3-.6.4-.3,0-.6,0-1,0-.6.5-1.1,1-1.8,1.5-.6.5-1.2,1-1.8,1.3l-.6-.4c.4-.6.8-1.2,1.3-2.1.5-.8,1-1.7,1.5-2.5ZM95.8,33.8h19.4l1.9-2.6c.5.4.9.8,1.3,1.1.4.3.8.6,1.2,1,.4.4.8.7,1.1,1.1-.1.4-.5.6-1,.6h-23.5l-.3-1.2ZM98.7,25.4h15.3l1.9-2.4c.8.6,1.4,1.2,2,1.6.5.5,1,.9,1.5,1.3-.1.4-.5.6-1.1.6h-19.2l-.3-1.2ZM99.1,2.6v-1.4l3.4,1.4h12.6l1.6-1.8,3.2,2.5c-.1.2-.3.3-.6.5-.2.1-.6.2-1,.3v15.8c0,0-.2.2-.7.5-.5.3-1.1.4-1.8.4h-.5V3.7h-13.2v16.9c0,.1-.2.3-.7.5-.5.2-1.1.4-1.8.4h-.5V2.6ZM100.2,10.3h16.5v1.1h-16.5v-1.1ZM100.2,18.1h16.4v1.2h-16.4v-1.2ZM107,2.6h3.1v32h-3.1V2.6Z"/>
  <path class="st0" d="M169.8,9.6h-.4l1.7-1.8,3.3,2.9c-.2.2-.3.3-.6.4-.2,0-.5.1-1,.2-.3,2.6-.7,5.1-1.2,7.5-.5,2.4-1.3,4.7-2.4,6.8-1.1,2.2-2.5,4.1-4.3,5.9-1.8,1.8-4.1,3.3-7,4.6l-.4-.5c2.3-1.5,4.2-3.1,5.7-5,1.5-1.9,2.7-3.9,3.6-6.2.9-2.2,1.6-4.6,2-7.1.4-2.5.8-5.1,1-7.7ZM157.9,9.6h14.6v1.2h-14.2l-.4-1.2ZM164.8,0l4.3.9c0,.3-.2.5-.5.7-.2.2-.6.3-1.1.3-.2,1-.5,2.3-.8,3.8-.3,1.5-.7,3.1-1.2,4.8s-.9,3.5-1.3,5.3c-.5,1.8-.9,3.5-1.4,5.2-.5,1.7-.9,3.1-1.3,4.4-.3.2-.7.3-1.3.3-.6,0-1.2,0-1.8-.2.4-1.2.9-2.7,1.4-4.4.5-1.7,1-3.5,1.5-5.5.5-1.9,1-3.9,1.4-5.9.5-2,.9-3.8,1.2-5.5.4-1.7.6-3.1.8-4.3ZM161.7,21.8c2.4.7,4.5,1.6,6.1,2.5,1.6.9,2.8,1.9,3.7,2.9.9,1,1.5,1.9,1.8,2.8.3.9.4,1.6.3,2.2-.1.6-.4,1-.9,1.2-.5.2-1,.1-1.7-.3-.3-1-.8-2-1.4-3.1-.7-1-1.5-2-2.4-3s-1.9-1.9-2.9-2.7c-1-.8-2-1.6-3-2.2l.4-.4ZM172.8,17.2h16.9l2-2.6c.5.4.9.8,1.3,1.1.4.3.7.7,1.2,1,.4.4.8.7,1.1,1.1,0,.4-.4.6-1,.6h-21.1l-.3-1.2ZM173.4,3.2h17.8v1.2h-17.5l-.3-1.2ZM181.8,10.3l4.6.5c0,.3-.2.5-.4.7-.2.2-.5.3-1,.3v20.4c0,.8-.1,1.5-.3,2.1-.2.6-.7,1.1-1.3,1.5-.7.4-1.7.6-3.2.8,0-.5-.2-1-.3-1.4-.1-.4-.4-.7-.7-1-.3-.3-.8-.5-1.3-.7s-1.3-.4-2.3-.5v-.6c.9,0,1.7,0,2.3.1.6,0,1.2,0,1.8.1.6,0,1,0,1.2,0,.3,0,.6,0,.7-.2.1-.1.2-.3.2-.6V10.3ZM189.4,3.2h-.5l2-1.9,3.3,3.1c-.2.2-.4.3-.6.3-.3,0-.6,0-1.1.1-.7.6-1.6,1.3-2.5,2.1-1,.8-2,1.6-3.1,2.4-1.1.8-2.1,1.5-3,2.1h-.7c.7-.7,1.5-1.6,2.3-2.7.8-1,1.5-2.1,2.2-3.1.7-1,1.2-1.8,1.6-2.5Z"/>
  <path class="st0" d="M210.7,9.6h-.4l1.7-1.8,3.3,2.9c-.2.2-.3.3-.6.4-.2,0-.5.1-1,.2-.3,2.6-.7,5.1-1.2,7.5-.5,2.4-1.3,4.7-2.4,6.8-1.1,2.2-2.5,4.1-4.3,5.9-1.8,1.8-4.1,3.3-7,4.6l-.4-.5c2.3-1.5,4.2-3.1,5.7-5,1.5-1.9,2.7-3.9,3.6-6.2.9-2.2,1.6-4.6,2-7.1.4-2.5.8-5.1,1-7.7ZM198.7,9.6h14.6v1.2h-14.2l-.4-1.2ZM205.7,0l4.3.9c0,.3-.2.5-.5.7-.2.2-.6.3-1.1.3-.2,1-.5,2.3-.8,3.8-.3,1.5-.7,3.1-1.2,4.8s-.9,3.5-1.3,5.3c-.5,1.8-.9,3.5-1.4,5.2-.5,1.7-.9,3.1-1.3,4.4-.3.2-.7.3-1.3.3-.6,0-1.2,0-1.8-.2.4-1.2.9-2.7,1.4-4.4.5-1.7,1-3.5,1.5-5.5.5-1.9,1-3.9,1.4-5.9.5-2,.9-3.8,1.2-5.5.4-1.7.6-3.1.8-4.3ZM202.6,21.8c2.4.7,4.5,1.6,6.1,2.5,1.6.9,2.8,1.9,3.7,2.9.9,1,1.5,1.9,1.8,2.8.3.9.4,1.6.3,2.2-.1.6-.4,1-.9,1.2-.5.2-1,.1-1.7-.3-.3-1-.8-2-1.4-3.1-.7-1-1.5-2-2.4-3s-1.9-1.9-2.9-2.7c-1-.8-2-1.6-3-2.2l.4-.4ZM213.7,17.2h16.9l2-2.6c.5.4.9.8,1.3,1.1.4.3.7.7,1.2,1,.4.4.8.7,1.1,1.1,0,.4-.4.6-1,.6h-21.1l-.3-1.2ZM214.3,3.2h17.8v1.2h-17.5l-.3-1.2ZM222.7,10.3l4.6.5c0,.3-.2.5-.4.7-.2.2-.5.3-1,.3v20.4c0,.8-.1,1.5-.3,2.1-.2.6-.7,1.1-1.3,1.5-.7.4-1.7.6-3.2.8,0-.5-.2-1-.3-1.4-.1-.4-.4-.7-.7-1-.3-.3-.8-.5-1.3-.7s-1.3-.4-2.3-.5v-.6c.9,0,1.7,0,2.3.1.6,0,1.2,0,1.8.1.6,0,1,0,1.2,0,.3,0,.6,0,.7-.2.1-.1.2-.3.2-.6V10.3ZM230.3,3.2h-.5l2-1.9,3.3,3.1c-.2.2-.4.3-.6.3-.3,0-.6,0-1.1.1-.7.6-1.6,1.3-2.5,2.1-1,.8-2,1.6-3.1,2.4-1.1.8-2.1,1.5-3,2.1h-.7c.7-.7,1.5-1.6,2.3-2.7.8-1,1.5-2.1,2.2-3.1.7-1,1.2-1.8,1.6-2.5Z"/>
  <path class="st0" d="M245.1,8.1h3.5c0,2.8-.2,5.4-.4,8-.2,2.6-.6,5.1-1.2,7.5-.6,2.4-1.4,4.6-2.5,6.7-1.1,2.1-2.6,4.1-4.5,5.9l-.4-.4c1.3-2,2.3-4,3-6.2.8-2.2,1.3-4.4,1.7-6.8.4-2.3.6-4.7.7-7.2.1-2.5.1-5,.1-7.5ZM239.8,7.8h13.7l2-2.5c.5.4.9.7,1.3,1,.4.3.8.7,1.2,1,.4.4.8.7,1.1,1-.1.4-.5.6-1,.6h-17.9l-.3-1.2ZM252.9,14.9h-.4l1.7-1.8,3.3,2.7c-.1.1-.3.3-.6.4-.3.1-.6.2-1,.3,0,2.9-.2,5.4-.4,7.4s-.4,3.8-.6,5.3c-.2,1.4-.5,2.6-.9,3.4-.3.9-.7,1.5-1.2,1.9-.5.5-1.1.9-1.8,1.1-.7.2-1.4.3-2.2.3,0-.5,0-.9-.1-1.2,0-.4-.2-.7-.4-.9-.2-.2-.6-.5-1.1-.6-.5-.2-1-.3-1.6-.4v-.7c.6,0,1.3.1,2,.2.8,0,1.3,0,1.7,0,.6,0,1-.1,1.3-.4.4-.3.8-1.2,1.1-2.5.3-1.3.5-3.2.7-5.6.2-2.4.3-5.4.4-8.9ZM246.3,14.9h7.6v1.2h-7.6v-1.2ZM247.4-.1l4.6.4c0,.3-.1.5-.4.7-.2.2-.6.3-1.1.4v7h-3.1V-.1ZM269.7,8.8h3.7c-.4,3.2-1,6.2-1.8,9s-2,5.3-3.5,7.7c-1.5,2.3-3.4,4.4-5.7,6.3s-5.1,3.4-8.5,4.8l-.4-.5c2.8-1.6,5.1-3.3,7.1-5.2,1.9-1.9,3.5-4,4.8-6.3,1.3-2.3,2.2-4.7,2.9-7.3.7-2.6,1.1-5.4,1.4-8.3ZM262.2-.1l5,1c0,.3-.2.5-.4.7-.2.2-.6.3-1.1.3-.8,3.6-2,6.9-3.5,9.8-1.5,3-3.2,5.4-5.2,7.4l-.6-.3c.9-1.6,1.7-3.4,2.5-5.4.8-2,1.4-4.2,2-6.5.6-2.3,1-4.6,1.2-7ZM261.8,9.6c.4,2.7,1,5.3,1.8,7.7.8,2.4,1.7,4.7,2.9,6.7,1.2,2.1,2.6,3.9,4.4,5.5,1.7,1.6,3.7,3,6.1,4.1v.4c-.9.1-1.5.4-2,.8-.5.4-.9,1-1.1,1.8-2.8-1.8-5-4-6.7-6.6-1.7-2.6-3-5.6-3.9-8.8-.9-3.3-1.6-6.8-2.1-10.5l.6-1ZM261.6,8.8h9.4l2-2.6c.5.4.9.8,1.3,1.1.4.3.8.7,1.2,1,.4.4.8.7,1.2,1.1,0,.4-.4.6-1,.6h-14.1v-1.2Z"/>
  <path class="st0" d="M287.6,21.8h3.2v.6c-1,2.3-2.3,4.4-3.9,6.3-1.7,1.9-3.6,3.5-5.9,4.9l-.4-.6c1.6-1.5,3-3.2,4.2-5.2,1.2-2,2.1-4,2.8-6ZM280.9,11.6h16l1.6-1.9c.7.5,1.3.9,1.8,1.3.5.4.9.7,1.3,1.1,0,.2-.1.4-.3.5-.2.1-.4.2-.7.2h-19.4l-.3-1.2ZM281.5,21.8h11.6l1.7-2.2c.7.6,1.3,1.1,1.8,1.5.5.4.9.8,1.3,1.2,0,.4-.4.6-1,.6h-15l-.3-1.2ZM282.4,15.4c1,0,2.3,0,3.9,0,1.6,0,3.5-.1,5.5-.2,2,0,4.1-.2,6.2-.3v.7c-1.4.3-3.1.6-5.2,1-2.1.4-4.7.8-7.7,1.3-.1.3-.2.5-.4.6-.2.1-.4.2-.5.3l-1.8-3.3ZM285.8,2.2V.7l3.5,1.4h-.5v9.9h-3V2.2ZM287.9,11.6h3.9c-.6.7-1.3,1.5-2.2,2.3-.8.8-1.6,1.5-2.3,2h-1c.3-.5.5-1.2.9-2.1.3-.9.5-1.6.7-2.2ZM287.1,2.2h8.5l1.7-2c.7.5,1.4,1,1.9,1.4.5.4,1,.8,1.3,1.2,0,.4-.4.6-1,.6h-12.4v-1.2ZM287.2,5.2h7.9l1.4-1.6c.6.5,1.1.8,1.5,1.2s.8.6,1.2,1c0,.4-.4.6-1,.6h-11v-1.2ZM287.2,8.4h8.1l1.4-1.6c.6.5,1.1.8,1.5,1.2.4.3.8.6,1.2,1,0,.4-.4.6-1,.6h-11.2v-1.2ZM288.3,17.2l4.3.5c0,.2-.1.5-.4.6-.2.2-.6.3-1,.4v16.8c0,.1-.1.2-.4.4-.2.1-.5.3-.9.4-.4.1-.7.2-1.1.2h-.6v-19.2ZM291.2,25.2c1.3.3,2.4.7,3.2,1.1.8.5,1.3.9,1.7,1.4.3.5.5,1,.5,1.4,0,.5,0,.8-.3,1.1-.2.3-.5.5-.9.5-.4,0-.8,0-1.3-.4-.1-.6-.3-1.2-.7-1.8-.3-.6-.7-1.2-1.2-1.7-.5-.5-.9-1-1.4-1.4l.4-.4ZM294.5,12.9c1.3.2,2.4.5,3.3.9.8.4,1.5.8,1.9,1.3.4.5.7.9.8,1.4,0,.5,0,.8-.1,1.2-.2.3-.5.5-.8.6-.4,0-.8,0-1.2-.3-.2-.5-.5-1.1-1-1.7-.5-.6-1-1.1-1.5-1.6-.5-.5-1.1-.9-1.6-1.3l.4-.4ZM300.9,19.1l3.7,1.8c-.1.2-.3.4-.5.5s-.6.1-1,0c-.9,1.3-2,2.5-3.2,3.5-1.2,1-2.4,1.8-3.6,2.4l-.5-.4c.9-.9,1.8-2,2.7-3.4.9-1.4,1.7-2.9,2.4-4.4ZM296.6,32.5c1,0,2.3,0,4,0,1.7,0,3.5-.1,5.6-.2,2.1,0,4.2-.2,6.4-.3v.7c-1.3.3-3.1.7-5.3,1.2s-4.8.9-7.8,1.5c-.2.4-.6.7-1,.8l-1.9-3.5ZM303.7,24.2l4.3,1c0,.2-.2.4-.5.6-.2.2-.6.3-1,.3-.6,1.1-1.4,2.3-2.3,3.7-.9,1.4-1.9,2.6-2.9,3.7h-.8c.4-.9.8-1.9,1.2-2.9.4-1.1.7-2.2,1.1-3.3s.6-2.1.8-3ZM313.4,10.3l3.7,2.1c-.1.2-.3.3-.5.4-.2,0-.6,0-1,0-2.1,1.3-4.4,2.3-6.8,2.9-2.4.7-5,1.1-7.6,1.4l-.3-.8c2.4-.6,4.7-1.3,6.8-2.3s4-2.2,5.8-3.8ZM312.3,0l3.3,2.3c-.1.2-.3.3-.5.3-.2,0-.5,0-.9-.1-1.2.6-2.5,1.1-3.9,1.6-1.4.5-2.8.9-4.3,1.3-1.5.4-2.9.7-4.3.9l-.4-.7c1.2-.4,2.5-1,3.8-1.5,1.3-.6,2.6-1.2,3.8-1.9,1.3-.7,2.4-1.4,3.4-2.2ZM312.5,5.2l3.3,2.2c-.1.2-.3.3-.5.3-.2,0-.5,0-.9,0-1.7.8-3.7,1.5-5.8,2.1-2.1.6-4.2,1.1-6.2,1.3l-.4-.7c1.8-.6,3.7-1.3,5.6-2.2,1.9-.9,3.6-1.9,5-3ZM302.9,18.7h6.2v1.2h-5.8l-.4-1.2ZM308.3,18.7h-.7l1.2-1.8,3.3,2.2c-.2.2-.6.4-1,.6-.5.1-1,.2-1.6.2.7,1,1.8,2,3.4,2.9,1.5.9,3.2,1.6,5,2.1v.5c-.6.2-1.1.5-1.6.9s-.8,1-1,1.6c-1.6-1-3.1-2.2-4.3-3.7-1.2-1.5-2.1-3.1-2.6-4.8v-.6ZM308.1,27.9c1.6.6,2.9,1.3,3.9,2.1,1,.7,1.7,1.5,2.1,2.2.4.7.7,1.4.8,2s0,1.1-.3,1.5c-.3.4-.6.6-1,.7-.4,0-.9,0-1.4-.5-.1-.9-.4-1.8-.9-2.7-.5-.9-1-1.8-1.7-2.7-.6-.9-1.3-1.6-1.9-2.3l.4-.3Z"/>
  <path class="st0" d="M384.4,7.5l1-.4.4,1.1-30,10.1-.7-1,29.2-9.9ZM362.5,3l4.6.5c0,.3-.2.5-.4.7-.2.2-.6.3-1.1.4v25.6c0,.5.1,1,.3,1.3.2.3.6.5,1.2.7.6.1,1.4.2,2.5.2h8.6c1.9,0,3.5,0,4.8,0s2.3,0,2.9-.2c.5,0,.8-.1,1.1-.3.2-.1.4-.3.6-.5.3-.5.6-1.2.9-2.3.3-1,.7-2.5,1.1-4.3h.5v6.8c.8.2,1.3.4,1.5.6.3.2.4.5.4.8,0,.5-.2.9-.6,1.2-.4.3-1.1.5-2,.7-1,.2-2.4.3-4.2.4-1.8,0-4.2,0-7.1,0h-8.3c-1.8,0-3.2-.1-4.3-.3-1.1-.2-1.9-.7-2.4-1.3s-.7-1.6-.7-2.8V3ZM373,0l4.6.5c0,.3-.1.5-.4.7s-.6.3-1.1.4v24.8c0,.1-.1.3-.4.4-.3.2-.6.3-1,.4-.4.1-.8.2-1.2.2h-.6V0ZM384.9,7.5h-.4l1.7-1.8,3.3,2.7c-.1.2-.3.3-.6.4-.3.1-.6.2-1,.2,0,2.5-.1,4.6-.3,6.4-.1,1.8-.3,3.4-.5,4.6-.2,1.3-.4,2.3-.7,3.1-.3.8-.6,1.3-1.1,1.7-.5.5-1.1.8-1.7,1-.7.2-1.4.3-2.2.3,0-.5,0-.9-.1-1.3,0-.4-.2-.7-.4-.9-.2-.2-.6-.4-1.2-.6s-1.1-.3-1.7-.4v-.6c.4,0,.9,0,1.4.1.5,0,1,0,1.5.1.5,0,.8,0,1.1,0,.3,0,.6,0,.8,0,.2,0,.3-.1.5-.3.4-.5.8-1.9,1.1-4.3s.4-5.9.6-10.4Z"/>
  <path class="st0" d="M396.1,7.7h10.8l1.8-2.3c.7.6,1.4,1.1,1.9,1.6.5.5,1,.9,1.4,1.2,0,.4-.4.6-1,.6h-14.6l-.3-1.1ZM398,2.7h6.9l1.8-2.3c.7.6,1.4,1.1,1.9,1.6s1,.9,1.4,1.3c0,.4-.4.6-1,.6h-10.7l-.3-1.2ZM398,12.8h7.5l1.7-2.2c.7.6,1.3,1.1,1.8,1.5.5.4.9.8,1.3,1.2,0,.4-.4.6-1,.6h-10.9l-.3-1.1ZM398,17.8h7.5l1.7-2.1c.7.6,1.3,1,1.8,1.4.5.4.9.8,1.3,1.2,0,.4-.4.6-1,.6h-10.9l-.3-1.2ZM398.1,23v-1.4l3.1,1.4h6.9v1.1h-7.1v11.4c0,0-.1.2-.4.4-.3.2-.6.3-.9.4-.4.1-.8.2-1.2.2h-.4v-13.5ZM399.6,31.7h8.3v1.1h-8.3v-1.1ZM406.4,23h-.4l1.5-1.7,3.4,2.6c-.1.1-.3.3-.6.4-.3.1-.6.3-1,.3v9.4c0,.1-.1.2-.4.4s-.6.3-1,.4c-.4.1-.7.2-1.1.2h-.4v-11.9ZM410.9,12.9h16.9l1.9-2.4c.8.6,1.5,1.2,2,1.6.6.5,1,.9,1.5,1.3,0,.4-.4.6-1,.6h-21.1l-.3-1.2ZM412,3.9h15.2l1.9-2.4c.8.6,1.5,1.2,2,1.6.5.5,1,.9,1.5,1.3-.1.4-.5.6-1.1.6h-19.2l-.3-1.2ZM413.1,8.3h13.3l1.7-2.3c.8.6,1.4,1.1,1.9,1.6s1,.8,1.4,1.2c-.1.4-.5.6-1,.6h-17l-.3-1.2ZM413.9,17.1v-1.4l3.3,1.4h11.1v1.2h-11.3v17.1c0,.1-.1.2-.4.4-.3.2-.6.3-1,.5-.4.1-.8.2-1.2.2h-.5v-19.3ZM415.6,22h12.7v1.2h-12.7v-1.2ZM415.6,27h12.7v1.2h-12.7v-1.2ZM420.1,0l4.6.4c0,.3-.2.5-.4.7-.2.2-.6.3-1.1.4v11.8h-3.2V0ZM426.9,17.1h-.4l1.5-1.7,3.6,2.7c-.1.1-.3.3-.6.4-.3.1-.6.3-1,.3v13.6c0,.8,0,1.4-.3,2-.2.6-.6,1-1.2,1.4-.6.3-1.5.6-2.8.7,0-.5,0-1-.2-1.3-.1-.4-.3-.7-.5-1-.2-.3-.6-.5-1-.6-.4-.2-1-.3-1.7-.5v-.6c.6,0,1.2,0,1.6,0s.9,0,1.3,0c.4,0,.7,0,.9,0,.3,0,.5,0,.6-.2s.2-.3.2-.6v-14.9Z"/>
  <path class="st0" d="M445.7,7.7l4.4,2.1c-.1.2-.3.3-.5.4-.2,0-.6.1-1,0-.8,1.2-1.8,2.6-2.9,4-1.1,1.4-2.4,2.9-3.8,4.3-1.4,1.4-2.9,2.7-4.4,3.8l-.4-.4c.9-1,1.8-2.2,2.6-3.4.9-1.2,1.7-2.5,2.5-3.8.8-1.3,1.5-2.6,2.1-3.8.6-1.2,1.1-2.4,1.5-3.4ZM445.1-.1l4.1,2.3c-.1.2-.3.4-.5.4-.2,0-.6,0-1,0-.7.9-1.7,1.8-2.8,2.8-1.1,1-2.3,2-3.6,3-1.3,1-2.6,1.9-3.9,2.7l-.4-.5c1.1-1,2.1-2.1,3.1-3.4,1-1.3,2-2.6,2.8-3.8.9-1.3,1.6-2.4,2.1-3.5ZM442.4,16.3l1.3-1.7,3.1,1.2c-.1.3-.5.6-1.2.8v18.9c0,0-.1.2-.4.4s-.6.3-1,.5c-.4.1-.8.2-1.2.2h-.6v-20.2ZM450.9,7v-1.5l3.7,1.5h-.6v7.3c0,1.5,0,3.2-.2,5-.1,1.8-.4,3.7-.8,5.6-.4,1.9-1,3.8-1.9,5.6-.9,1.8-2.1,3.5-3.6,5l-.5-.4c1.2-2.1,2-4.4,2.6-6.7s.9-4.7,1-7.2c.2-2.4.2-4.8.2-7v-7.3ZM466.9,16h-.4l2-1.9,3.3,3c-.2.2-.4.3-.6.4-.2,0-.6.1-1,.2-1,2.9-2.3,5.6-4,8s-3.9,4.6-6.6,6.3-6,3.2-10,4.3l-.3-.6c3.4-1.3,6.2-2.9,8.6-4.9,2.4-1.9,4.3-4.2,5.8-6.7,1.5-2.5,2.6-5.3,3.4-8.3ZM452.9,7h17.4v1.2h-17.4v-1.2ZM453.1,16h15.4v1.2h-15.4v-1.2ZM457.1,16.2c.5,2.4,1.3,4.5,2.4,6.4s2.3,3.5,3.8,4.9c1.5,1.4,3.2,2.6,5,3.6,1.9,1,3.9,1.8,6.2,2.4v.4c-1.5.2-2.4,1.1-2.9,2.7-2.1-.9-4-1.9-5.6-3.1-1.7-1.2-3.1-2.5-4.3-4.1-1.2-1.6-2.3-3.4-3.1-5.5-.9-2.1-1.5-4.5-2-7.2l.7-.3ZM459.7.2l4.4.4c0,.3-.1.5-.3.7-.2.2-.5.3-1,.4v14.9h-3.1V.2ZM469.5,7h-.4l1.9-1.9,3.3,3.2c-.1.1-.3.2-.5.3-.3,0-.6,0-.9.1-.4.4-.9.9-1.5,1.5-.6.6-1.1,1.2-1.7,1.8-.6.6-1.1,1.1-1.5,1.5l-.5-.2c.2-.6.4-1.2.6-2,.3-.8.5-1.6.7-2.4.2-.8.4-1.5.6-2Z"/>
  <path class="st0" d="M478,32.4c.9-.1,2.1-.3,3.5-.6,1.5-.3,3.1-.6,5-1.1s3.9-.8,6-1.3c2.1-.5,4.3-.9,6.5-1.4l.2.6c-2.1.9-4.6,1.9-7.6,3-3,1.2-6.5,2.4-10.6,3.9-.2.5-.5.9-1,1l-2.1-4ZM481.7,8.4l4.4.4c0,.3-.1.5-.4.7s-.6.3-1,.4v22.2l-3,.9V8.4ZM488.9.2l4.6.5c0,.3-.1.5-.4.7-.2.2-.6.4-1.1.4v28.9l-3.1.8V.2ZM490.5,13.5h3.9l2-3c.5.5.9.9,1.3,1.2.4.4.8.8,1.2,1.2.4.4.8.8,1.1,1.2-.1.4-.5.6-1.1.6h-8.5v-1.2ZM500.1.2l4.6.5c0,.3-.1.5-.4.7-.2.2-.6.3-1.1.4v29.3c0,.5,0,.8.3,1s.6.3,1.3.3h2.9c.7,0,1.3,0,1.7,0s.8,0,1.1,0c.2,0,.4,0,.5-.1s.2-.2.3-.4c.1-.3.3-.7.4-1.4s.3-1.5.5-2.4c.2-.9.3-1.8.5-2.7h.5l.2,6.8c.5.2.8.4,1,.6.2.2.3.5.3.8,0,.4-.2.8-.6,1.1-.4.3-1.2.5-2.2.7-1,.1-2.5.2-4.4.2h-3.4c-1.1,0-1.9-.1-2.5-.3-.6-.2-1-.6-1.3-1.1-.2-.5-.4-1.2-.4-2V.2ZM510.9,8.3l3.6,3.3c-.2.2-.4.3-.7.3-.3,0-.6,0-1-.2-1.7,1.1-3.5,2.1-5.4,3-1.9.9-3.7,1.5-5.3,2l-.2-.6c1.3-.9,2.8-2,4.5-3.4,1.6-1.4,3.1-2.9,4.5-4.4Z"/>
  <path class="st0" d="M525.3,26.9h.6c.3,1.7.4,3.1,0,4.3-.3,1.2-.7,2.3-1.4,3.1-.6.8-1.3,1.4-1.9,1.7-.6.4-1.3.5-2,.5-.7,0-1.2-.4-1.4-.9-.2-.5-.1-1,.1-1.4.3-.4.7-.8,1.1-1.1.7-.3,1.3-.7,2-1.3.7-.6,1.3-1.3,1.8-2.1.5-.8.8-1.8.9-2.8ZM521.8,2.8v-1.4l3.2,1.4h7.1v1.2h-7.3v21.8c0,.1-.1.3-.3.4-.2.2-.5.3-.9.4-.4.1-.8.2-1.2.2h-.5V2.8ZM523.5,21.1h8.4v1.1h-8.4v-1.1ZM523.5,11.8h8.5v1.2h-8.5v-1.2ZM530.5,2.8h-.4l1.6-1.8,3.5,2.7c-.1.2-.3.3-.6.5-.3.2-.7.3-1.1.4v19.7c0,0-.1.2-.4.4-.3.2-.6.3-1,.4s-.8.2-1.1.2h-.4V2.8ZM531.1,27.2c1.2.8,2.1,1.7,2.7,2.5.6.8,1.1,1.7,1.2,2.4s.2,1.4,0,2c-.1.6-.4,1.1-.7,1.4s-.7.5-1.2.5c-.5,0-.9-.3-1.4-.8.1-.9,0-1.8,0-2.7s-.3-1.9-.5-2.8c-.2-.9-.5-1.7-.8-2.4l.5-.2ZM541.6,2.1h3.5c-.1,1.1-.3,2.2-.6,3.3-.3,1.1-.8,2.2-1.5,3.3-.7,1.1-1.7,2.1-3,3.1-1.3,1-3,1.9-5.1,2.7l-.5-.6c1.6-.9,2.9-1.9,3.8-2.9.9-1,1.6-2,2.1-3,.5-1,.8-2,1-3,.2-1,.3-2,.3-2.9ZM535.4,2.1h16.9v1.2h-16.5l-.4-1.2ZM537.4,15.1v-1.4l3.2,1.4h11v1.2h-11.2v9c0,0-.1.2-.4.4-.3.2-.6.3-1,.4-.4.1-.8.2-1.2.2h-.4v-11.1ZM538.6,27.3c1.5.6,2.8,1.3,3.7,2.1s1.6,1.5,2,2.3c.4.8.6,1.4.6,2.1s-.1,1.1-.4,1.5c-.3.4-.6.6-1.1.7-.5,0-1-.2-1.5-.6,0-.8-.3-1.7-.7-2.7-.4-1-.9-1.9-1.4-2.8-.5-.9-1.1-1.7-1.6-2.3l.5-.2ZM538.6,22.9h12.5v1.2h-12.5v-1.2ZM551,2.1h-.4l1.6-1.6,3.1,2.6c-.2.3-.7.5-1.5.6-.1,2.4-.3,4.4-.7,5.8-.4,1.4-.9,2.4-1.6,2.9-.5.3-1,.6-1.7.7-.6.2-1.3.3-2.1.3,0-.4,0-.8-.2-1.1-.1-.4-.3-.6-.5-.9-.3-.2-.7-.4-1.3-.6-.6-.2-1.2-.3-1.9-.4v-.6c.4,0,1,0,1.6.1.6,0,1.2,0,1.7.1.6,0,1,0,1.2,0,.6,0,1,0,1.2-.3.3-.3.6-1.1.9-2.4.2-1.3.4-3.1.5-5.2ZM546.7,26.8c1.9.7,3.4,1.4,4.6,2.2,1.2.8,2.1,1.7,2.6,2.5.6.8.9,1.6,1.1,2.3.1.7,0,1.3-.2,1.8-.2.5-.6.8-1.1.9-.5.1-1,0-1.6-.5-.3-1-.7-2.1-1.3-3.1-.6-1.1-1.3-2.1-2.1-3.2s-1.6-1.9-2.3-2.6l.4-.3ZM549.4,15.1h-.4l1.6-1.7,3.5,2.7c-.1.1-.3.3-.6.4-.3.1-.6.3-1,.3v8.4c0,0-.2.2-.5.3-.3.1-.7.3-1.1.4-.4.1-.8.2-1.1.2h-.5v-10.9Z"/>
  <path class="st0" d="M562.3,7.6v-1.4l3.3,1.4h-.6v6.7c0,1.5,0,3.1,0,4.9,0,1.8-.3,3.7-.6,5.6-.3,1.9-.8,3.8-1.5,5.7-.7,1.9-1.6,3.6-2.8,5.2l-.6-.4c.9-2.2,1.5-4.5,1.9-6.8.4-2.4.6-4.8.7-7.2,0-2.4.1-4.7.1-6.9v-6.7ZM560.3,3h13.7l1.9-2.4c.5.4.9.7,1.3,1,.4.3.8.6,1.2,1,.4.3.8.7,1.1,1,0,.4-.4.6-1,.6h-17.9l-.3-1.2ZM563.5,7.6h12.4v1.2h-12.4v-1.2ZM563.5,12.9h12.3v1.1h-12.3v-1.1ZM567.3,15l3.8,1.2c0,.2-.2.4-.4.6-.2.2-.6.2-1,.2-.7,1.6-1.5,3.2-2.4,4.7-.9,1.5-1.9,2.7-3,3.7l-.6-.4c.7-1.2,1.4-2.7,2.1-4.5.6-1.8,1.2-3.6,1.5-5.5ZM568.3,19.3v15.9c0,.1-.2.3-.6.5-.4.3-.9.4-1.6.4h-.5v-14.2l2.1-3,1,.4h-.5ZM567.1,32.2h8.9l1.5-1.9c.7.5,1.2,1,1.7,1.3.4.4.9.7,1.2,1.1-.1.4-.5.6-1,.6h-12.3v-1.2ZM567.2,23.5h8.5l1.2-1.6c.5.5,1,.8,1.4,1.2.4.3.7.7,1,1,0,.4-.4.6-1,.6h-11.1v-1.2ZM567.2,27.8h8.7l1.3-1.7c.5.5,1,.8,1.4,1.2.4.3.7.7,1,1,0,.4-.4.6-1,.6h-11.4v-1.2ZM567.4,19.3h8.1l1.4-1.8c.6.5,1.1.9,1.5,1.3s.8.7,1.1,1c-.1.4-.4.6-1,.6h-11.2v-1.2ZM571.4,19.3h2.5v13.5h-2.5v-13.5ZM572.8,15.3l3.7,1c-.2.6-.6.8-1.5.8-.3.4-.8.9-1.2,1.4-.5.5-1,1-1.5,1.4h-.8c.2-.6.4-1.4.7-2.3.2-.9.4-1.7.6-2.4ZM574.7,7.6h-.4l1.5-1.6,3.4,2.5c-.1.1-.3.3-.6.4-.3.1-.6.3-1,.3v5.2c0,0-.1.2-.4.3-.3.1-.6.3-1,.4-.4.1-.7.2-1,.2h-.5v-7.6ZM583.6,28.5l3.7,1.9c-.2.3-.6.4-1.3.3-.6.7-1.4,1.4-2.4,2.2-1,.7-2.1,1.4-3.2,2-1.2.6-2.3,1.1-3.5,1.6l-.4-.6c1-.6,1.9-1.4,2.8-2.2.9-.8,1.7-1.7,2.5-2.6s1.4-1.8,1.8-2.6ZM579,2.7h12.2l2-2.6c.5.4.9.7,1.3,1.1.4.3.8.6,1.2,1,.4.4.8.7,1.1,1-.1.4-.5.6-1,.6h-16.4l-.3-1.1ZM580.7,8.5v-1.3l3.1,1.3h9.5v1.2h-9.7v18.5c0,.1-.1.2-.3.4-.2.2-.5.3-.9.4-.4.1-.8.2-1.2.2h-.4V8.5ZM582,14.2h11.1v1.2h-11.1v-1.2ZM582,20.1h11.1v1.2h-11.1v-1.2ZM582,26h11.1v1.2h-11.1v-1.2ZM586,2.7h3.8c-.3.6-.6,1.3-1,2.1-.4.8-.8,1.6-1.2,2.3-.4.8-.8,1.4-1.2,2h-1c0-.6.2-1.3.2-2.1,0-.8.1-1.6.2-2.4,0-.8,0-1.4,0-1.9ZM589,28.7c1.7.5,3,1,4.1,1.6,1.1.6,1.9,1.3,2.4,2,.5.7.8,1.3.9,1.9,0,.6,0,1.1-.2,1.5s-.5.6-1,.7c-.4,0-.9,0-1.5-.3-.3-.8-.7-1.6-1.2-2.5-.6-.9-1.2-1.7-1.9-2.5-.7-.8-1.4-1.5-2-2.1l.4-.3ZM591.6,8.5h-.4l1.5-1.6,3.2,2.5c-.1.1-.3.2-.5.4-.3.1-.5.2-.9.3v17.7c0,0-.1.2-.4.3-.3.1-.6.3-1,.4-.4.1-.7.2-1.1.2h-.5V8.5Z"/>
</svg>