<?xml version="1.0" encoding="UTF-8"?>
<svg id="_圖層_1" data-name="圖層_1" xmlns="http://www.w3.org/2000/svg" xmlns:xlink="http://www.w3.org/1999/xlink" version="1.1" viewBox="0 0 855.3 623.8">
  <!-- Generator: Adobe Illustrator 29.6.0, SVG Export Plug-In . SVG Version: 2.1.1 Build 207)  -->
  <defs>
    <style>
      .st0 {
        fill: none;
      }

      .st1 {
        fill: #f8c400;
      }

      .st2 {
        fill: #009240;
      }

      .st3 {
        fill: #0093dd;
      }

      .st4 {
        fill: #fff;
      }

      .st5 {
        clip-path: url(#clippath);
      }

      .st6 {
        fill: #84c326;
      }
    </style>
    <clipPath id="clippath">
      <ellipse class="st0" cx="427.7" cy="311.9" rx="427.7" ry="311.9"/>
    </clipPath>
  </defs>
  <ellipse class="st3" cx="427.7" cy="311.9" rx="427.7" ry="311.9"/>
  <g class="st5">
    <g>
      <path class="st4" d="M399.7,127.2l-171,125h33v156.2h-39.1s-35.6-28-91.6-28-84.4,34.7-84.4,34.7c0,0,274,18.2,323.1,68.4,29.3,30,23.1,60.9-102.2,117.8l102.7,44.4,247.6-16.9,216-129.8v-70.7s-41-64.3-102.7-61.3c-56,2.7-106.2,44.9-139.1,44.9s-57.8-12-57.8-12v-149.3h24.9l-159.3-123.4Z"/>
      <path class="st2" d="M46.6,415s274,18.2,323.1,68.4,23.1,60.9-102.2,117.8l-241.4,12.2-71-152,25.5-51.6,66.1,5.1Z"/>
      <path class="st6" d="M306.4,418.2s138,32,153.3,39,84,25,83.3,83.6-25.3,82.9-25.3,82.9l71.3-4.9,150-78s-10-83.6-179.4-102.4l-253.3-20.3Z"/>
      <rect class="st1" x="416.4" y="280.8" width="71.3" height="107.2"/>
    </g>
  </g>
</svg>