<?xml version="1.0" encoding="utf-8"?>
<!-- Generator: Adobe Illustrator 29.5.1, SVG Export Plug-In . SVG Version: 9.03 Build 0)  -->
<svg version="1.0" id="圖層_1" xmlns="http://www.w3.org/2000/svg" xmlns:xlink="http://www.w3.org/1999/xlink" x="0px" y="0px"
	 viewBox="0 0 55.5 280.8" style="enable-background:new 0 0 55.5 280.8;" xml:space="preserve">
<style type="text/css">
	.st0{fill:#00D6CF;}
</style>
<path class="st0" d="M38.7,240.8c2.6,3,6,5.6,9.5,7.7c2.1,1.3,4.7,2.6,7.3,3.4l0-7.7c-4.3-1.7-8.6-4.3-11.2-7.7
	c-5.2-6-7.3-13.3-6.9-21.1l0-210.7l-7.3,0l0,209C29.7,223.6,32.7,233.1,38.7,240.8L38.7,240.8z M0,0l0,212.4
	c0.9,25.4,15.1,48.6,37,61.1c5.6,3.4,12,6,18.5,7.3l0-7.3c-2.6-0.4-4.7-1.3-7.3-2.1c-3-0.9-5.6-2.1-8.2-3.9
	c-19.3-10.7-31.4-31-32.2-53.3L7.7,0L0,0z M48.6,264.9l6,1.7l0-7.3c-3.9-1.3-7.7-2.6-11.2-4.7c-4.3-2.6-8.2-5.6-11.6-9.5
	c-7.3-9-11.2-20.6-10.8-32.2l0-209.4l-6-1.3l0,213.3c0.4,19.3,11.2,36.5,28,46C44.7,262.7,46.4,263.6,48.6,264.9z"/>
</svg>
