<?xml version="1.0" encoding="UTF-8"?>
<svg id="_レイヤー_1" data-name="レイヤー_1" xmlns="http://www.w3.org/2000/svg" version="1.1" viewBox="0 0 180 180">
  <!-- Generator: Adobe Illustrator 29.6.0, SVG Export Plug-In . SVG Version: 2.1.1 Build 207)  -->
  <path d="M10,120.2c14.7-.2,29.3-.8,44.1-1.8v-8.2s3.3,0,3.3,0l20.7-12.1-63.9.2v-4.2s71.2-.2,71.2-.2l7.9-4.6,4.8,6.8-36,16.8v5.3c13.9-1,28.6-1.9,44.1-3.2l.4,4.4c-12.5,1.7-27.3,3.4-44.5,5.1v9.2c0,6.8-1.2,12.1-4,15.9s-8,7-15.7,9.4l-4.1-8c11.9-2.2,15.9-6.8,15.9-17.3v-8.6c-8.6.8-23.3,1.9-43.6,3.2l-.6-7.9ZM12,39.6v-4.4s42.3-.1,42.3-.1v-13.7s8.2,0,8.2,0v13.7s24.4,0,24.4,0l.7-2.6h1.8s11.7,3.6,11.7,3.6l-.7,3.3-88.5.2ZM19.1,47.8h2s5.9,3.5,5.9,3.5l54.6-.2.7-2.7h2s13.2,3.8,13.2,3.8l-.7,3.3h-4.2s0,28.8,0,28.8l-5.1,2h-2.7s0-6.8,0-6.8l-57.7.2v5.5s-5.7,2-5.7,2h-2.2s-.1-39.4-.1-39.4ZM84.8,75.1v-19.6c0,0-57.7.2-57.7.2v19.6c0,0,57.7-.2,57.7-.2ZM112.7,25.7h2.6s4.8,3.1,4.8,3.1h40.1c0-.1.9-3,.9-3l9,2.7-18.2,42.2c11.4,16.6,17.1,30.4,17.1,41.5,0,2-.2,4-.5,6-2,10.8-7.8,15-24.1,15.1-3.5,0-7.5-.2-12.1-.5l-2-8.4c6.8,1.1,12.1,1.6,15.9,1.6,9,0,12.4-3,13.9-10.1.4-1.7.5-3.5.5-5.1,0-5.7-1.5-11.9-4.3-18.9-2.8-6.8-6.1-13.2-9.8-19.2l12.3-39.6h-38.3c0,.1.3,125.4.3,125.4h-7.9s-.4-132.8-.4-132.8Z"/>
</svg>