<?xml version="1.0" encoding="utf-8"?>
<!-- Generator: Adobe Illustrator 29.5.1, SVG Export Plug-In . SVG Version: 9.03 Build 0)  -->
<svg version="1.0" id="圖層_1" xmlns="http://www.w3.org/2000/svg" xmlns:xlink="http://www.w3.org/1999/xlink" x="0px" y="0px"
	 viewBox="0 0 372.9 364.4" style="enable-background:new 0 0 372.9 364.4;" xml:space="preserve">
<style type="text/css">
	.st0{fill:none;}
	.st1{fill:#333333;fill-opacity:0;}
	.st2{fill:#FF5454;}
	.st3{fill:#00D6CF;}
	.st4{fill:#7F75FF;}
	.st5{fill:#F7E700;}
	.st6{fill:#333333;}
</style>
<rect x="103.5" class="st0" width="2500" height="1686"/>
<g>
	<g>
		<g transform="translate(0,0)">
			<g transform="scale(4.299999999999996)">
				<g transform="translate(0, 0)">
					<g>
						<g>
							<rect x="0" y="0" class="st1" width="29.4" height="65.7"/>
							<path class="st2" d="M8.3,11.1c-1.1,2.5-1.6,5.3-1.3,8.1v30.8c-0.3,2.4,0.2,4.8,1.4,6.9c1.1,1.4,2.9,2.1,4.6,1.9v-1.8
								c-1.2,0.2-2.4-0.3-3.1-1.2c-1.1-2.1-1.5-4.4-1.2-6.7V20c-0.3-2.8,0.1-5.6,1.1-8.3c0.7-1.3,1.8-2.2,3.2-2.5V7.5
								C11,7.9,9.3,9.2,8.3,11.1L8.3,11.1z M6.5,8c-1,1.1-1.7,2.4-2.2,3.7c-0.5,1.4-0.8,2.9-0.8,4.4v36.2c-0.1,1.7,0.2,3.5,0.8,5.1
								c1,2.5,3.2,4.3,5.9,4.6c0.9,0.1,1.9,0.1,2.8,0v-1.7c-2.4,0.4-4.7-0.6-6.3-2.4c-1.3-2.2-1.8-4.7-1.4-7.2V17.9
								c-0.3-2.5,0.1-5,1.3-7.3c1.4-2.5,3.7-4.2,6.5-4.7V4c-1.1,0.3-2.3,0.7-3.3,1.3C8.5,6,7.4,6.9,6.5,8L6.5,8z M8.5,2.1
								C6.8,3.1,5.3,4.4,4,5.9C2.7,7.3,1.7,9,1.1,10.8C0.3,12.7,0,14.7,0,16.7v36.1c-0.1,2.2,0.2,4.3,1,6.4c1.4,3.5,4.6,6,8.4,6.5
								c1.2,0.1,2.5,0.1,3.7,0v-1.8c-1.1,0.1-2.1,0.1-3.2,0c-3.2-0.3-5.9-2.4-7.2-5.3c-0.7-1.9-1-3.9-0.9-5.9V16.3
								c0-1.7,0.3-3.5,0.9-5.1c0.6-1.6,1.4-3,2.5-4.3c1.1-1.3,2.4-2.3,3.9-3.2c1.2-0.7,2.6-1.1,3.9-1.5V0.5
								C11.5,0.8,9.9,1.4,8.5,2.1L8.5,2.1z"/>
							<path class="st3" d="M29.4,27.6l-15.8,2.3v8.3l15.8-2.3V27.6z"/>
							<path class="st4" d="M28.1,6.6C26.6,3.4,23.6,1,20,0.4c-1.4-0.3-2.8-0.4-4.2-0.4v8.8c1.1,0,2.2,0.3,3,1
								c1.3,1.1,1.9,2.7,1.8,4.4v4.6l8.7-1.2V13C29.4,10.8,29,8.6,28.1,6.6z"/>
							<path class="st5" d="M20.6,39.4v10.3c0.1,1.8-0.5,3.6-1.8,5c-0.8,0.9-1.9,1.5-3,1.8v8.8c1.4-0.3,2.8-0.8,4.2-1.5
								c5.8-3,9.4-8.9,9.3-15.4V38.1L20.6,39.4z"/>
						</g>
					</g>
				</g>
				<g transform="translate(19.449683225024753, 0)">
					<g>
						<g>
							<rect x="10" y="0" class="st1" width="27.9" height="65.7"/>
							<path class="st3" d="M28.9,56c1.4-1.8,2.1-4,2-6.3V1.1h-1.7v49c0.1,1.8-0.4,3.5-1.6,4.9C27,55.8,26,56.4,25,56.8v1.8
								c0.6-0.2,1.2-0.5,1.7-0.8C27.5,57.3,28.3,56.7,28.9,56L28.9,56z M36.1,0v49.8c-0.2,5.2-3,9.9-7.5,12.4
								c-0.6,0.4-1.2,0.7-1.9,0.9c-0.6,0.2-1.1,0.4-1.7,0.5v1.7c1.5-0.3,3-0.9,4.3-1.7c5.1-2.9,8.4-8.3,8.6-14.2V0H36.1z M27.9,60.8
								c3.9-2.2,6.4-6.2,6.5-10.7V0.5L33,0.8v48.7c0.1,2.7-0.8,5.4-2.5,7.5c-0.8,0.9-1.7,1.6-2.7,2.2c-0.8,0.5-1.7,0.8-2.6,1.1V62
								l1.4-0.4C27.1,61.3,27.5,61.1,27.9,60.8z"/>
							<path class="st2" d="M22.8,57.1c-1,0-2-0.4-2.7-1c-1.1-1.2-1.6-2.8-1.5-4.4V2.8L10,4.2v49.5c-0.1,5.3,3.4,10,8.6,11.5
								c1.4,0.4,2.8,0.6,4.2,0.5V57.1z"/>
						</g>
					</g>
				</g>
				<g transform="translate(37.87695976544363, 0)">
					<g>
						<g>
							<rect x="19.4" y="0" class="st1" width="29.4" height="65.7"/>
							<path class="st5" d="M33,56.9c-1.1,0-2.1-0.3-3-0.9c-2-1.5-1.8-4.3-1.8-6.7V19.2c-0.5-2.8,0.1-5.7,1.8-8
								c0.8-0.9,1.9-1.5,3-1.9V0.4c-1.4,0.3-2.8,0.9-4.2,1.5c-3.9,2-6.9,5.3-8.4,9.4c-0.7,2-1,4.2-1,6.3v34.1
								c-0.1,2,0.1,3.9,0.6,5.9c1.3,4.1,4.7,7.1,8.8,8c1.4,0.3,2.8,0.4,4.2,0.3V56.9z"/>
							<path class="st3" d="M44.3,54.3c0.7-1.9,1.1-3.9,1-5.9V16.3c0.2-2.6-0.1-5.2-1-7.7C43.2,6.2,41,4.5,38.5,4
								c-1.1-0.2-2.1-0.3-3.2-0.3v1.8c1.9-0.1,3.8,0.4,5.3,1.5c2.4,2.1,3.5,5.3,3,8.4v30.7c0,0.3,0,0.7,0,1c0.5,3.6-0.6,7.2-3,9.8
								c-1.5,1.5-3.3,2.5-5.3,3v1.8c1-0.2,2-0.6,3-1.1C40.9,59.3,43,57.1,44.3,54.3z M41.8,47.4c0-0.4,0-0.7,0-1.1V15.6
								c0.5-2.6-0.4-5.3-2.3-7.2c-1.2-0.8-2.7-1.3-4.2-1.2v1.8c1.1,0,2.2,0.3,3,1c2,1.4,1.8,4.3,1.8,6.6v30.4
								c0.5,2.8-0.1,5.7-1.8,8.1c-0.8,0.9-1.9,1.5-3,1.8v1.8c1.6-0.4,3.1-1.3,4.2-2.5C41.5,53.7,42.4,50.5,41.8,47.4z M47.7,6.5
								c-1.6-3.2-4.7-5.5-8.3-6C38,0.1,36.6,0,35.2,0.1v1.8c1.2-0.1,2.4-0.1,3.6,0c3.1,0.6,5.8,2.6,7.1,5.5c1,2.7,1.4,5.5,1.1,8.4
								v32.8c0,2.2-0.4,4.4-1.2,6.4c-1.5,3.2-4,5.8-7.1,7.4c-1.1,0.6-2.3,1-3.6,1.3v1.8c1.4-0.3,2.8-0.8,4.2-1.5
								c3.6-1.8,6.4-4.8,8.1-8.4c0.9-2.3,1.3-4.7,1.2-7.2V17c0.4-3.5,0-7-1.2-10.3L47.7,6.5z"/>
						</g>
					</g>
				</g>
			</g>
		</g>
	</g>
	<g transform="translate(238.5368881225586,201.3080291748047)">
		<g transform="scale(1, 1)">
			<g transform="scale(1)">
				<path class="st6" d="M-144.2,110v53.1h6.2v-29.2c0-2.4-0.1-5-0.3-7.9c-0.3-2.8-0.4-5.5-0.6-7.8h0.3l4.2,11.8l10.3,27.8h3.8
					l10.2-27.8l4.3-11.8h0.3c-0.2,2.4-0.4,5-0.6,7.8c-0.2,2.9-0.3,5.5-0.3,7.9v29.2h6.3V110h-7.9l-10.2,28.5l-3.8,10.9h-0.3
					l-3.9-10.9l-10.3-28.5H-144.2z M-62.8,141.5h-15.9l2.5-8.1c0.9-3,1.9-5.9,2.8-8.9c0.9-2.9,1.7-5.9,2.5-9h0.3
					c0.9,3.1,1.7,6.1,2.6,9c0.9,3,1.8,5.9,2.8,8.9L-62.8,141.5z M-61.1,146.9l5.1,16.2h7.2l-18-53.1h-7.6l-17.9,53.1h6.9l5.1-16.2
					H-61.1z M-41.4,110v53.1h6.3v-29.2c0-2.4-0.1-5-0.3-7.9c-0.2-2.8-0.4-5.5-0.6-7.8h0.3l4.2,11.8l10.3,27.8h3.8L-7.2,130l4.2-11.8
					h0.3c-0.2,2.4-0.4,5-0.6,7.8c-0.2,2.9-0.3,5.5-0.3,7.9v29.2h6.4V110h-8l-10.2,28.5l-3.7,10.9h-0.3l-3.9-10.9L-33.4,110H-41.4z
					 M40,141.5H24.1l2.5-8.1c1-3,1.9-5.9,2.8-8.9c0.9-2.9,1.7-5.9,2.5-9h0.3c0.9,3.1,1.8,6.1,2.6,9c0.9,3,1.8,5.9,2.8,8.9L40,141.5z
					 M41.8,146.9l5,16.2H54L36,110h-7.6l-18,53.1h6.9l5.1-16.2H41.8z"/>
			</g>
		</g>
	</g>
</g>
</svg>
